SplineFontDB: 3.0
FontName: GoudyBookletter1911
FullName: Goudy Bookletter 1911
FamilyName: Goudy Bookletter 1911
Weight: Regular
Copyright: Copyright (c) 2009 Barry Schwartz\n\nPermission is hereby granted, free of charge, to any person obtaining a copy\nof this software and associated documentation files (the "Software"), to deal\nin the Software without restriction, including without limitation the rights\nto use, copy, modify, merge, publish, distribute, sublicense, and/or sell\ncopies of the Software, and to permit persons to whom the Software is\nfurnished to do so, subject to the following conditions:\n\nThe above copyright notice and this permission notice shall be included in\nall copies or substantial portions of the Software.\n\nTHE SOFTWARE IS PROVIDED "AS IS", WITHOUT WARRANTY OF ANY KIND, EXPRESS OR\nIMPLIED, INCLUDING BUT NOT LIMITED TO THE WARRANTIES OF MERCHANTABILITY,\nFITNESS FOR A PARTICULAR PURPOSE AND NONINFRINGEMENT. IN NO EVENT SHALL THE\nAUTHORS OR COPYRIGHT HOLDERS BE LIABLE FOR ANY CLAIM, DAMAGES OR OTHER\nLIABILITY, WHETHER IN AN ACTION OF CONTRACT, TORT OR OTHERWISE, ARISING FROM,\nOUT OF OR IN CONNECTION WITH THE SOFTWARE OR THE USE OR OTHER DEALINGS IN\nTHE SOFTWARE.\n
UComments: "14pt handset: cut 3200-dpi samples 640 pixels high.+AAoACgAA-11pt: cut 3200-dpi samples 640 pixels high, then scale them to about 112%.+AAoACgAA-Open caps (36pt): cut 3200-dpi samples 2000 pixels high, then scale them to 90%. Print at 48pt to get about the same size as the 36pt foundry type.+AAoA" 
Version: 001.000
ItalicAngle: 0
UnderlinePosition: -204
UnderlineWidth: 102
Ascent: 1548
Descent: 500
LayerCount: 3
Layer: 0 0 "Back"  1
Layer: 1 0 "Fore"  0
Layer: 2 0 "backup"  1
NeedsXUIDChange: 1
XUID: [1021 658 797806517 11473725]
FSType: 0
OS2Version: 0
OS2_WeightWidthSlopeOnly: 0
OS2_UseTypoMetrics: 1
CreationTime: 1249326201
ModificationTime: 1250989420
OS2TypoAscent: 0
OS2TypoAOffset: 1
OS2TypoDescent: 0
OS2TypoDOffset: 1
OS2TypoLinegap: 184

StartChar: a
Encoding: 97 97 0
Width: 851
VWidth: 6
Flags: HW
HStem: -23 80<259.127 463.351> -12 116<613.079 789.333> 787 86<258.281 462.473>
VStem: 70 156<85.8615 329.102> 510 146<110.101 403 471.641 741.357>
LayerCount: 3
Fore
SplineSet
70 172 m 0xb8
 70 361 198 413 299 437 c 0
 469 477 510 462 510 526 c 2
 510 582 l 2
 510 689 479 787 355 787 c 0
 211 787 242 626 140 626 c 0
 99 626 71 663 71 705 c 0
 71 814 251 873 380 873 c 0
 547 873 656 766 656 618 c 2
 656 218 l 2
 656 121 702 104 718 104 c 0
 795 104 806 172 822 172 c 0
 836 172 844 164 844 147 c 0
 844 58 763 -12 668 -12 c 0x78
 559 -12 534 82 534 82 c 1
 532 80 484 -23 303 -23 c 0
 189 -23 70 8 70 172 c 0xb8
226 220 m 0
 226 127 252 57 357 57 c 0xb8
 436 57 510 108 510 206 c 2
 510 403 l 1
 290 364 226 363 226 220 c 0
EndSplineSet
AlternateSubs2: "'aalt' Access All Alternates in Latin lookup 0 subtable" a.sc
Substitution2: "'smcp' Lowercase to Small Capitals in Latin lookup 2 subtable" a.sc
EndChar

StartChar: b
Encoding: 98 98 1
Width: 982
VWidth: 1000
Flags: HMW
HStem: -12 75<335.106 649.578> 741 120<380.693 641.643> 1398 20G<242 274>
VStem: 132 156<103.107 692.909 730 1226.88> 799 143<244.275 572.128>
LayerCount: 3
Fore
SplineSet
19 1290 m 0
 19 1349 69 1349 215 1410 c 0
 223 1414 237 1418 247 1418 c 0
 301 1418 311 1395 311 1346 c 0
 311 1259 294 998 284 730 c 1
 300 745 372 861 550 861 c 0
 745 861 942 728 942 450 c 0
 942 252 828 -12 478 -12 c 0
 368 -12 300 5 241 5 c 0
 198 5 194 -36 167 -36 c 0
 148 -36 132 -28 132 5 c 0
 132 26 142 498 142 969 c 0
 142 1050 141 1164 141 1205 c 0
 141 1221 83 1233 44 1251 c 0
 28 1258 19 1273 19 1290 c 0
288 245 m 2
 288 124 320 63 486 63 c 0
 704 63 799 213 799 372 c 0
 799 584 679 741 481 741 c 0
 416 741 373 721 344 702 c 0
 289 665 288 607 288 455 c 2
 288 245 l 2
EndSplineSet
Layer: 2
SplineSet
14 1294 m 4
 14 1342 44 1340 222 1414 c 4
 234 1419 245 1422 256 1422 c 4
 284 1422 306 1402 306 1346 c 4
 306 1259 289 998 279 730 c 5
 295 745 372 861 550 861 c 4
 745 861 942 728 942 450 c 4
 942 225 798 -16 498 -16 c 4
 388 -16 300 0 241 0 c 4
 198 0 189 -36 162 -36 c 4
 143 -36 127 -18 127 -2 c 4
 127 19 142 498 142 969 c 4
 142 1050 141 1130 140 1208 c 5
 103 1248 14 1242 14 1294 c 4
486 63 m 4
 704 63 799 213 799 372 c 4
 799 551 679 741 481 741 c 4
 299 741 283 601 283 455 c 6
 283 363 l 6
 283 152 284 63 486 63 c 4
EndSplineSet
AlternateSubs2: "'aalt' Access All Alternates in Latin lookup 0 subtable" b.sc
Substitution2: "'smcp' Lowercase to Small Capitals in Latin lookup 2 subtable" b.sc
EndChar

StartChar: c
Encoding: 99 99 2
Width: 835
VWidth: 1013
Flags: W
HStem: -20 131<337.389 629.634> 758 113<284.732 531.398>
VStem: 40 149<281.732 613.955>
LayerCount: 3
Fore
SplineSet
40 404 m 0
 40 681 249 871 459 871 c 0
 618 871 747 797 747 720 c 0
 747 674 706 636 665 636 c 0
 592 636 539 758 390 758 c 0
 300 758 189 690 189 466 c 0
 189 319 278 111 487 111 c 0
 632 111 698 173 737 208 c 0
 756 225 770 231 781 231 c 0
 797 231 805 217 805 202 c 0
 805 119 632 -20 435 -20 c 0
 217 -20 40 152 40 404 c 0
EndSplineSet
Layer: 2
SplineSet
805 202 m 4
 805 119 632 -20 435 -20 c 4
 217 -20 40 152 40 404 c 4
 40 681 249 871 459 871 c 4
 618 871 747 797 747 720 c 4
 747 674 706 636 665 636 c 4
 592 636 539 758 390 758 c 4
 300 758 189 690 189 466 c 4
 189 319 278 111 487 111 c 4
 632.15234375 111 698.036132812 173.580078125 737 208.356445312 c 4
 755.74609375 225.086914062 770.333007812 231.4140625 781.106445312 231.4140625 c 4
 797.434570312 231.4140625 805 216.877929688 805 202 c 4
EndSplineSet
AlternateSubs2: "'aalt' Access All Alternates in Latin lookup 0 subtable" c.sc
Substitution2: "'smcp' Lowercase to Small Capitals in Latin lookup 2 subtable" c.sc
EndChar

StartChar: d
Encoding: 100 100 3
Width: 988
VWidth: 1010
Flags: HW
HStem: -28 21G<716.5 727> -10 122<355.852 621.343> 782 71<325.7 646.437> 1385 20G<816 846>
VStem: 40 148<285.649 625.828> 703 138<160.299 702.27> 708 152<822.882 1220.03>
LayerCount: 3
Fore
SplineSet
40 412 m 0x7c
 40 642 173 853 481 853 c 0
 617 853 708 814 708 814 c 1
 704 1202 l 2
 704 1228 555 1218 555 1270 c 0
 555 1299 611 1316 711 1356 c 0
 776 1382 801 1405 831 1405 c 0
 861 1405 869 1381 869 1346 c 0
 869 1312 861 1241 860 1203 c 0x7a
 855 948 841 653 841 223 c 0
 841 168 842 159 865 159 c 2
 915 159 l 2
 932 159 958 159 958 132 c 0
 958 89 860 78 757 -7 c 0
 741 -21 732 -28 722 -28 c 0xbc
 711 -28 701 -22 701 1 c 2
 701 124 l 1
 674 99 646 -10 456 -10 c 0
 260 -10 40 130 40 412 c 0x7c
188 466 m 0
 188 234 360 112 518 112 c 0
 672 112 702 174 703 339 c 2x7c
 705 676 l 2
 705 744 587 782 472 782 c 0
 276 782 188 647 188 466 c 0
EndSplineSet
AlternateSubs2: "'aalt' Access All Alternates in Latin lookup 0 subtable" d.sc
Substitution2: "'smcp' Lowercase to Small Capitals in Latin lookup 2 subtable" d.sc
EndChar

StartChar: e
Encoding: 101 101 4
Width: 842
VWidth: 1000
Flags: HW
HStem: -27 122<324.632 623.762> 771 106<259.731 495.49>
VStem: 40 141<340.173 634.041> 590 201<600.647 688.995>
LayerCount: 3
Fore
SplineSet
40 417 m 0
 40 709 235 877 424 877 c 0
 622 877 791 693 791 624 c 0
 791 593 696 566 678 560 c 2
 186 386 l 1
 188 362 223 95 482 95 c 0
 665 95 732 221 777 221 c 0
 793 221 802 207 802 189 c 0
 802 124 627 -27 451 -27 c 0
 256 -27 40 81 40 417 c 0
181 497 m 0
 181 477 182 464 182 464 c 1
 541 599 l 2
 568 609 590 615 590 632 c 0
 590 658 478 771 363 771 c 0
 217 771 181 614 181 497 c 0
EndSplineSet
AlternateSubs2: "'aalt' Access All Alternates in Latin lookup 0 subtable" e.sc
Substitution2: "'smcp' Lowercase to Small Capitals in Latin lookup 2 subtable" e.sc
EndChar

StartChar: f
Encoding: 102 102 5
Width: 611
VWidth: 870
Flags: W
HStem: -6 93<37.3562 175.856 339.182 481.575> 731 104<33.6387 183 334 569.737> 1321 117<461.037 682.5>
VStem: 183 151<91.5166 731 835 1105.14>
LayerCount: 3
Fore
SplineSet
33 778 m 0
 33 815 47 835 66 835 c 2
 186 835 l 1
 186 1287 457 1438 637 1438 c 0
 728 1438 799 1394 799 1344 c 0
 799 1307 764 1248 706 1248 c 0
 630 1248 591 1321 524 1321 c 0
 497 1321 469 1316 449 1298 c 0
 369 1227 328 1071 328 894 c 2
 328 835 l 1
 551 835 l 2
 564 835 571 828 571 797 c 0
 571 758 561 731 538 731 c 2
 334 731 l 1
 334 200 l 2
 334 101 352 92 385 91 c 0
 416 90 482 96 482 46 c 0
 482 7 452 -5 410 -5 c 0
 399 -5 294 0 255 0 c 0
 225 0 98 -6 88 -6 c 0
 60 -6 37 12 37 36 c 0
 37 77 68 87 101 87 c 2
 141 87 l 2
 174 87 175 102 176 136 c 0
 180 323 183 140 183 731 c 1
 52 732 l 2
 39 732 33 741 33 778 c 0
EndSplineSet
Layer: 2
SplineSet
141 95 m 2
 174 95 176 107 176 141 c 2
 176 198 l 2
 176 252 178 198 178 739 c 1
 50 740 l 2
 37 740 26 746 26 783 c 0
 26 820 47 854 66 854 c 2
 183 854 l 1
 183 889 l 2
 183 1263 426 1468 620 1468 c 0
 761 1468 799 1403 799 1369 c 0
 799 1332 771 1267 713 1267 c 0
 637 1267 595 1336 528 1336 c 0
 378 1336 328 1126 328 902 c 2
 328 854 l 1
 551 854 l 2
 564 854 571 833 571 802 c 0
 571 763 546 739 523 739 c 2
 334 739 l 1
 334 561 334 383 334 205 c 0
 334 106 351 98 392 98 c 0
 408 98 423 99 434 99 c 0
 483 99 484 58 484 46 c 0
 484 7 452 -5 410 -5 c 0
 399 -5 294 0 255 0 c 0
 225 0 94 -6 84 -6 c 0
 56 -6 35 12 35 36 c 0
 35 77 60 95 93 95 c 2
 141 95 l 2
EndSplineSet
AlternateSubs2: "'aalt' Access All Alternates in Latin lookup 0 subtable" f.sc
Substitution2: "'smcp' Lowercase to Small Capitals in Latin lookup 2 subtable" f.sc
EndChar

StartChar: g
Encoding: 103 103 6
Width: 901
VWidth: 874
Flags: HMW
HStem: -495 83<284.364 678.899> 221 89<295.623 515.958> 797 74<281.117 489.623>
VStem: 47 112<-320.291 -130.455> 58 148<407.142 705.647> 66 112<67.405 186.02> 576 156<397.079 712.262> 746 116<-357.285 -161.012>
LayerCount: 3
Fore
SplineSet
47 -247 m 0
 47 -107 198 -60 198 -60 c 1
 198 -60 66 -5 66 85 c 0
 66 185 209 273 209 273 c 1
 209 273 58 360 58 548 c 0
 58 685 166 871 389 871 c 0
 550 871 559 816 642 816 c 0
 723 816 707 909 770 909 c 0
 812 909 841 865 841 828 c 0
 841 751 784 731 750 731 c 0
 721 731 671 742 668 743 c 1
 668 743 732 678 732 566 c 0
 732 366 562 221 403 221 c 0
 337 221 300 237 274 237 c 0
 255 237 178 170 178 127 c 0
 178 68 273 29 422 29 c 0
 497 29 548 34 592 34 c 0
 729 34 862 -40 862 -214 c 0
 862 -324 802 -495 460 -495 c 0
 98 -495 47 -339 47 -247 c 0
159 -228 m 0
 159 -351 339 -412 498 -412 c 0
 746 -412 746 -286 746 -248 c 0
 746 -88 504 -130 320 -98 c 0
 277 -91 234 -76 234 -76 c 1
 234 -76 159 -103 159 -228 c 0
206 598 m 0
 206 346 355 310 418 310 c 0
 481 310 576 362 576 520 c 0
 576 664 521 797 386 797 c 0
 278 797 206 713 206 598 c 0
EndSplineSet
AlternateSubs2: "'aalt' Access All Alternates in Latin lookup 0 subtable" g.sc
Substitution2: "'smcp' Lowercase to Small Capitals in Latin lookup 2 subtable" g.sc
EndChar

StartChar: h
Encoding: 104 104 7
Width: 1088
VWidth: 994
Flags: W
HStem: -2 81<34.2771 186.213 350.568 503.847 604.325 760.125 920.945 1058.39> 738 118<429.972 661.596> 1399 20G<291 327.5>
VStem: 199 145<84.3171 675.909 703 1185.4> 771 143<82.2504 616.527>
LayerCount: 3
Fore
SplineSet
34 32 m 0
 34 75 58 79 89 79 c 0
 195 79 199 82 199 295 c 0
 199 684 204 342 204 1079 c 0
 204 1129 203 1174 203 1211 c 0
 203 1231 82 1228 63 1260 c 0
 58 1268 56 1279 56 1287 c 0
 56 1331 89 1336 193 1382 c 0
 232 1399 275 1419 307 1419 c 0
 348 1419 354 1394 354 1372 c 0
 354 1337 353 1262 335 703 c 1
 379 765 421 856 600 856 c 0
 674 856 857 818 902 560 c 0
 912 500 911 355 914 271 c 0
 919 89 906 82 1003 78 c 0
 1043 76 1059 61 1059 30 c 0
 1059 -13 1035 -14 1015 -14 c 0
 1004 -14 917 2 820 2 c 0
 732 2 675 -6 655 -6 c 0
 628 -6 604 2 604 33 c 0
 604 81 654 74 714 80 c 0
 761 84 771 99 771 310 c 0
 771 574 729 652 642 708 c 0
 609 730 572 738 536 738 c 0
 348 738 344 600 344 417 c 2
 344 359 l 2
 344 278 345 235 345 195 c 0
 345 100 347 82 411 77 c 0
 451 74 504 76 504 35 c 0
 504 -8 483 -9 463 -9 c 0
 425 -9 363 6 266 6 c 0
 163 6 87 -2 70 -2 c 0
 56 -2 34 -1 34 32 c 0
EndSplineSet
AlternateSubs2: "'aalt' Access All Alternates in Latin lookup 0 subtable" h.sc
Substitution2: "'smcp' Lowercase to Small Capitals in Latin lookup 2 subtable" h.sc
EndChar

StartChar: i
Encoding: 105 105 8
Width: 526
VWidth: 857
Flags: HW
HStem: -9 75<31.1951 179.925 336.474 484.714> 829 20G<308 326.5> 1115 177<260.669 411.217>
VStem: 188 144<70.2113 656.248> 250 172<1126.46 1280.95>
LayerCount: 3
Fore
SplineSet
31 24 m 0xf0
 31 66 61 66 95 66 c 0
 173 66 183 82 188 158 c 0
 193 241 197 397 197 427 c 0
 197 477 193 586 191 619 c 0
 188 671 44 656 44 707 c 0
 44 729 61 739 96 754 c 0
 319 847 298 849 318 849 c 0
 335 849 342 838 342 822 c 0
 342 770 333 728 333 307 c 0
 333 244 332 198 332 165 c 0
 332 58 348 75 438 63 c 0
 460 60 485 59 485 23 c 0
 485 8 465 -9 423 -9 c 0
 418 -9 362 0 251 0 c 0
 160 0 100 -9 66 -9 c 0
 40 -9 31 3 31 24 c 0xf0
250 1207 m 0xe8
 250 1250 285 1292 337 1292 c 0
 388 1292 422 1250 422 1207 c 0
 422 1133 363 1115 336 1115 c 0
 324 1115 250 1120 250 1207 c 0xe8
EndSplineSet
AlternateSubs2: "'aalt' Access All Alternates in Latin lookup 0 subtable" i.sc
Substitution2: "'smcp' Lowercase to Small Capitals in Latin lookup 2 subtable" i.sc
EndChar

StartChar: j
Encoding: 106 106 9
Width: 627
VWidth: 865
Flags: HW
HStem: -424 148<67.8517 238.288> 865 20G<414.5 434.5> 1106 178<339.908 494.916>
VStem: 302 150<-180.947 830> 329 180<1120 1272.38>
LayerCount: 3
Fore
SplineSet
14 -349 m 0xf0
 14 -293 88 -248 109 -248 c 0
 155 -248 173 -276 215 -276 c 0
 277 -276 300 -179 300 -21 c 0
 300 87 302 174 302 685 c 0
 302 705 166 711 166 741 c 0
 166 782 196 778 296 823 c 0
 358 851 403 885 426 885 c 0
 443 885 452 865 452 830 c 0
 452 334 445 149 445 -74 c 0
 445 -118 406 -198 368 -241 c 0
 222 -405 206 -424 121 -424 c 0
 62 -424 14 -386 14 -349 c 0xf0
329 1194 m 0xe8
 329 1254 374 1284 420 1284 c 0
 464 1284 509 1259 509 1199 c 0
 509 1145 464 1106 420 1106 c 0
 360 1106 329 1148 329 1194 c 0xe8
EndSplineSet
AlternateSubs2: "'aalt' Access All Alternates in Latin lookup 0 subtable" j.sc
Substitution2: "'smcp' Lowercase to Small Capitals in Latin lookup 2 subtable" j.sc
EndChar

StartChar: k
Encoding: 107 107 10
Width: 938
VWidth: 870
Flags: HMW
HStem: 0 78<51 147 305 442 774 886> 747 80<669 841> 1389 17G<255 279>
VStem: 152 137<79 329 432 1268>
LayerCount: 3
Fore
SplineSet
49 1312 m 0
 49 1333 83 1344 94 1347 c 2
 94 1347 243 1406 267 1406 c 0
 290 1406 295 1384 295 1364 c 2
 288 432 l 1
 432 583 545 683 545 722 c 0
 545 775 455 754 455 799 c 0
 455 807 459 827 509 827 c 0
 523 827 549 823 643 823 c 0
 731 823 774 827 790 827 c 0
 820 827 842 824 842 797 c 0
 842 758 808 766 735 747 c 0
 686 734 603 653 539 587 c 2
 447 492 l 1
 644 243 l 1
 788 64 816 76 851 67 c 0
 866 64 886 53 886 31 c 0
 886 16 870 -4 828 -4 c 0
 797 -4 751 0 673 0 c 0
 659 0 560 -4 531 -4 c 0
 505 -4 478 7 478 28 c 0
 478 89 573 47 573 102 c 0
 573 155 394 366 364 405 c 1
 290 329 l 1
 294 82 280 78 396 68 c 0
 418 66 442 53 442 31 c 0
 442 16 427 -4 385 -4 c 0
 322 -4 287 0 229 0 c 0
 195 0 140 -4 103 -4 c 0
 77 -4 50 7 50 28 c 0
 50 64 78 63 95 67 c 0
 152 82 152 93 152 177 c 2
 157 1216 l 2
 157 1265 49 1281 49 1312 c 0
EndSplineSet
AlternateSubs2: "'aalt' Access All Alternates in Latin lookup 0 subtable" k.sc
Substitution2: "'smcp' Lowercase to Small Capitals in Latin lookup 2 subtable" k.sc
EndChar

StartChar: l
Encoding: 108 108 11
Width: 503
VWidth: 870
Flags: W
HStem: -9 78<39.1801 173.211 337.527 476.989> 1391 20G<278.5 315.5>
VStem: 177 153<78.7666 652.738>
LayerCount: 3
Fore
SplineSet
38 18 m 0
 38 76 105 67 141 76 c 0
 167 82 177 93 177 156 c 2
 184 1181 l 1
 70 1209 55 1206 55 1243 c 0
 55 1291 85 1296 170 1348 c 0
 227 1382 254 1411 303 1411 c 0
 328 1411 350 1398 350 1367 c 0
 350 1230 330 1367 330 192 c 0
 330 70 342 86 428 69 c 0
 462 62 477 50 477 31 c 0
 477 16 476 -9 434 -9 c 0
 388 -9 312 0 270 0 c 0
 202 0 119 -14 90 -14 c 0
 64 -14 38 -3 38 18 c 0
EndSplineSet
AlternateSubs2: "'aalt' Access All Alternates in Latin lookup 0 subtable" l.sc
Substitution2: "'smcp' Lowercase to Small Capitals in Latin lookup 2 subtable" l.sc
EndChar

StartChar: m
Encoding: 109 109 12
Width: 1436
VWidth: 870
Flags: W
HStem: -2 77<69.078 181.957 330.4 470.771 514.084 657.065 818.486 966.922 1023.55 1154.83 1317.56 1436.81> 750 112<413.661 607.012 877.203 1080.7> 861 20G<290.5 310.5>
VStem: 185 142<80.0975 688.656> 669 143<83.9813 682.422> 1163 149<86.6203 653.206>
LayerCount: 3
Fore
SplineSet
69 34 m 0xdc
 69 70 96 76 113 77 c 0
 183 81 184 81 185 177 c 2
 188 634 l 2
 188 672 174 674 142 688 c 2
 94 709 l 2
 78 716 71 726 71 738 c 0
 71 781 116 786 185 824 c 0
 233 850 280 881 301 881 c 0xbc
 320 881 327 864 327 854 c 2
 327 727 l 1
 342 741 414 862 540 862 c 0
 716 862 785 720 785 720 c 1
 785 720 864 858 1003 858 c 0
 1301 858 1313 574 1313 370 c 0
 1313 326 1312 274 1312 220 c 0
 1312 81 1317 87 1373 80 c 0
 1408 76 1437 71 1437 33 c 0
 1437 18 1422 -2 1380 -2 c 0
 1317 -2 1287 2 1224 2 c 0
 1189 2 1096 -2 1070 -2 c 0
 1044 -2 1023 9 1023 30 c 0
 1023 94 1108 66 1135 86 c 0
 1153 99 1163 127 1163 160 c 2
 1163 411 l 2
 1163 448 1162 479 1160 506 c 0
 1146 701 1047 746 971 746 c 0
 856 746 815 665 811 663 c 1
 811 663 812 631 812 614 c 2
 812 163 l 2
 812 86 830 82 932 73 c 0
 966 70 967 47 967 32 c 0
 967 19 966 -2 918 -2 c 0
 906 -2 783 6 740 6 c 0
 724 6 578 -2 546 -2 c 0
 524 -2 514 13 514 34 c 0
 514 74 543 74 570 75 c 2
 601 76 l 2
 667 78 669 76 669 456 c 0
 669 617 650 750 476 750 c 0
 392 750 327 678 327 574 c 2
 327 159 l 2
 327 84 342 82 384 79 c 0
 436 75 471 76 471 41 c 0
 471 18 461 2 419 2 c 0
 363 2 327 6 263 6 c 0
 234 6 164 2 121 2 c 0
 95 2 69 13 69 34 c 0xdc
EndSplineSet
AlternateSubs2: "'aalt' Access All Alternates in Latin lookup 0 subtable" m.sc
Substitution2: "'smcp' Lowercase to Small Capitals in Latin lookup 2 subtable" m.sc
EndChar

StartChar: n
Encoding: 110 110 13
Width: 1068
VWidth: 870
Flags: W
HStem: 0 80<50.9088 190.629 341.961 484.805 613.215 763.797 911.081 1049.98> 760 123<471.166 695.013>
VStem: 197 142<81.349 683.877> 769 146<80.0998 683.446>
LayerCount: 3
Fore
SplineSet
50 30 m 0
 50 70 85 75 138 80 c 0
 205 86 195 71 197 444 c 0
 197 500 195 588 195 668 c 0
 195 682 176 688 153 693 c 2
 130 698 l 2
 80 708 66 715 66 738 c 0
 66 755 66 761 97 780 c 2
 288 893 l 2
 303 902 318 913 329 913 c 0
 339 913 346 904 346 874 c 2
 344 747 l 1
 389 780 492 883 623 883 c 0
 745 883 850 805 889 702 c 0
 910 648 915 583 915 511 c 2
 915 463 l 2
 915 388 909 281 909 178 c 0
 909 94 911 80 964 80 c 2
 998 80 l 2
 1024 80 1050 75 1050 39 c 0
 1050 24 1044 -8 1000 -8 c 0
 987 -8 890 0 832 0 c 0
 816 0 704 -4 672 -4 c 0
 638 -4 612 7 612 28 c 0
 612 82 659 76 724 80 c 0
 755 82 766 92 766 162 c 0
 766 180 769 162 769 539 c 0
 769 699 662 760 560 760 c 0
 444 760 345 684 344 585 c 0
 343 445 339 165 339 153 c 0
 339 60 380 86 451 73 c 0
 478 68 485 52 485 36 c 0
 485 16 471 -4 435 -4 c 0
 379 -4 310 0 259 0 c 0
 220 0 113 -8 97 -8 c 0
 55 -8 50 19 50 30 c 0
EndSplineSet
AlternateSubs2: "'aalt' Access All Alternates in Latin lookup 0 subtable" n.sc
Substitution2: "'smcp' Lowercase to Small Capitals in Latin lookup 2 subtable" n.sc
EndChar

StartChar: o
Encoding: 111 111 14
Width: 953
VWidth: -7
Flags: HW
HStem: -21 82<331.922 614.123> 773 88<309.4 598.342>
VStem: 33 163<221.987 616.531> 746 154<224.176 611.598>
LayerCount: 3
Fore
SplineSet
33 423 m 0
 33 653 208 861 466 861 c 0
 686 861 900 717 900 431 c 0
 900 113 652 -21 460 -21 c 0
 196 -21 33 183 33 423 c 0
196 423 m 0
 196 240 281 61 459 61 c 0
 683 61 746 231 746 415 c 0
 746 644 612 773 458 773 c 0
 272 773 196 642 196 423 c 0
EndSplineSet
AlternateSubs2: "'aalt' Access All Alternates in Latin lookup 0 subtable" o.sc
Substitution2: "'smcp' Lowercase to Small Capitals in Latin lookup 2 subtable" o.sc
EndChar

StartChar: p
Encoding: 112 112 15
Width: 972
VWidth: 870
Flags: HW
HStem: -459 79<8.59409 144.799 294.035 475.896> 0 71<307.354 645.388> 721 131<409.91 635.141> 854 20G<262 271.5>
VStem: 146 144<-374.467 16 100.612 660.476> 785 137<227.833 564.477>
LayerCount: 3
Fore
SplineSet
8 -427 m 0
 8 -384 54 -384 112 -380 c 0
 146 -377 146 -365 146 -278 c 2
 146 -262 l 2
 146 -141 156 613 156 632 c 0
 156 650 155 672 146 674 c 0
 50 691 23 684 23 718 c 0
 23 744 38 745 208 843 c 0
 234 858 257 874 267 874 c 0
 276 874 299 870 299 818 c 0
 299 814 294 726 292 680 c 1
 292 680 385 852 542 852 c 0
 792 852 922 628 922 456 c 0
 922 91 677 0 490 0 c 0
 400 0 287 16 287 16 c 1
 290 -310 l 2
 291 -393 341 -372 434 -380 c 0
 471 -383 476 -396 476 -416 c 0
 476 -432 472 -456 426 -456 c 0
 414 -456 317 -452 228 -452 c 0
 182 -452 123 -459 62 -459 c 0
 31 -459 8 -458 8 -427 c 0
290 149 m 2
 290 130 290 113 310 100 c 0
 327 89 399 71 480 71 c 0
 724 71 785 237 785 377 c 0
 785 619 616 721 496 721 c 0
 430 721 291 705 291 520 c 2
 290 149 l 2
EndSplineSet
AlternateSubs2: "'aalt' Access All Alternates in Latin lookup 0 subtable" p.sc
Substitution2: "'smcp' Lowercase to Small Capitals in Latin lookup 2 subtable" p.sc
EndChar

StartChar: q
Encoding: 113 113 16
Width: 1031
VWidth: 870
Flags: HW
HStem: -449 81<559.703 701.762 853.995 998.538> -24 117<357.728 633.7> 760 78<326.693 685.669> 834 20G<842.5 864.5>
VStem: 77 116<267.534 607.599> 717 143<-363.676 104 125.76 728.945>
LayerCount: 3
Fore
SplineSet
77 391 m 0xdc
 77 645 221 838 524 838 c 0xec
 602 838 700 821 754 821 c 0
 800 821 832 854 853 854 c 0
 876 854 878 821 878 785 c 0
 878 740 861 641 860 552 c 2
 853 -291 l 2
 853 -365 854 -365 960 -366 c 0
 981 -366 999 -374 999 -398 c 0
 999 -439 983 -450 960 -450 c 0
 925 -450 796 -438 756 -438 c 0
 634 -438 613 -449 591 -449 c 0
 571 -449 557 -442 557 -420 c 0
 557 -383 618 -377 660 -368 c 0
 689 -361 709 -342 709 -268 c 0
 709 -131 718 104 718 104 c 1
 708 96 650 -24 470 -24 c 0
 246 -24 77 136 77 391 c 0xdc
193 458 m 0
 193 235 328 93 531 93 c 0
 705 93 717 170 717 244 c 2
 717 286 l 2
 717 331 718 294 718 662 c 0
 718 719 661 760 491 760 c 0
 277 760 193 624 193 458 c 0
EndSplineSet
AlternateSubs2: "'aalt' Access All Alternates in Latin lookup 0 subtable" q.sc
Substitution2: "'smcp' Lowercase to Small Capitals in Latin lookup 2 subtable" q.sc
EndChar

StartChar: r
Encoding: 114 114 17
Width: 749
VWidth: 996
Flags: W
HStem: -6 77<35.2654 169.552 343.597 524.167> 710 162<478.384 672.864>
VStem: 179 153<80.5214 655.389>
LayerCount: 3
Fore
SplineSet
35 39 m 0
 35 66 72 69 90 71 c 0
 152 76 178 81 179 175 c 2
 184 667 l 2
 184 679 60 682 60 713 c 2
 60 725 l 2
 60 746 60 762 91 777 c 2
 233 843 l 2
 278 864 292 875 310 875 c 0
 328 875 335 865 335 810 c 2
 335 701 l 1
 335 701 458 872 627 872 c 0
 665 872 723 857 723 776 c 0
 723 724 679 680 636 680 c 0
 583 680 567 710 514 710 c 0
 380 710 332 609 332 552 c 2
 332 200 l 2
 332 90 350 84 397 76 c 0
 452 66 525 78 525 24 c 0
 525 4 515 -13 475 -13 c 0
 432 -13 316 5 234 5 c 0
 172 5 102 -6 87 -6 c 0
 58 -6 35 0 35 39 c 0
EndSplineSet
Layer: 2
SplineSet
514 718 m 4
 410 718 340 631 340 582 c 4
 338 301 337 266 337 231 c 4
 337 91 338 89 473 83 c 4
 516 81 539 61 539 29 c 4
 539 14 533 -14 481 -14 c 4
 477 -14 314 4 250 4 c 4
 188 4 111 0 96 0 c 4
 67 0 35 0 35 39 c 4
 35 72 72 78 90 80 c 4
 152 85 176 90 177 184 c 6
 184 665 l 6
 184 689 46 696 46 734 c 4
 46 759 56 773 91 790 c 6
 233 856 l 6
 278 877 292 888 310 888 c 4
 328 888 335 878 335 823 c 6
 335 714 l 5
 335 714 458 885 627 885 c 4
 665 885 723 870 723 789 c 4
 723 737 679 693 636 693 c 4
 583 693 567 718 514 718 c 4
EndSplineSet
AlternateSubs2: "'aalt' Access All Alternates in Latin lookup 0 subtable" r.sc
Substitution2: "'smcp' Lowercase to Small Capitals in Latin lookup 2 subtable" r.sc
EndChar

StartChar: s
Encoding: 115 115 18
Width: 718
VWidth: 1008
Flags: W
HStem: -29 98<248.331 527.696> 751 92<233.868 470.447>
VStem: 62 85<160.471 349.412> 107 110<576.088 735.373> 541 72<570.201 674.595 788 846.99> 569 109<111.001 282.952>
LayerCount: 3
Fore
SplineSet
62 97 m 0xe4
 62 114 72 177 72 207 c 0
 72 221 73 258 73 287 c 0
 73 335 90 351 117 351 c 0
 147 351 146 316 147 273 c 0
 148 228 148 173 255 108 c 0
 308 76 368 69 416 69 c 0
 508 69 569 141 569 200 c 0xe4
 569 293 477 313 417 333 c 0
 196 408 107 405 107 596 c 0
 107 714 184 843 360 843 c 0
 458 843 513 804 530 788 c 1
 532 819 l 2
 532 833 535 847 566 847 c 2
 576 847 l 2
 592 847 596 844 600 793 c 2
 611 662 l 2
 612 655 613 642 613 628 c 0
 613 601 608 570 581 570 c 0
 559 570 547 585 541 608 c 0
 516 705 408 751 341 751 c 0
 296 751 217 749 217 639 c 0xd8
 217 482 678 584 678 265 c 0
 678 44 474 -29 382 -29 c 0
 324 -29 270 -25 154 23 c 0
 81 53 62 57 62 97 c 0xe4
EndSplineSet
AlternateSubs2: "'aalt' Access All Alternates in Latin lookup 0 subtable" s.sc
Substitution2: "'smcp' Lowercase to Small Capitals in Latin lookup 2 subtable" s.sc
EndChar

StartChar: t
Encoding: 116 116 19
Width: 747
VWidth: 1013
Flags: W
HStem: -23 136<392.191 573.853> 709 125<382 677.643>
VStem: 200 155<146.22 709.155> 216 148<369.862 713>
LayerCount: 3
Fore
SplineSet
64 743 m 0xd0
 64 770 100 781 151 825 c 0
 334 981 303 1068 364 1068 c 0
 389 1068 400 1045 400 1017 c 0
 400 987 382 878 382 844 c 2
 382 821 l 1
 468 825 642 834 651 834 c 0
 677 834 685 812 685 792 c 0
 685 779 677 709 628 709 c 0
 602 709 575 710 364 713 c 1xd0
 361 555 355 385 355 369 c 0
 355 170 394 113 472 113 c 0
 602 113 641 232 683 232 c 0
 693 232 715 225 715 196 c 0
 715 125 581 -23 426 -23 c 0
 287 -23 200 46 200 314 c 0xe0
 200 332 216 713 216 713 c 1
 112 713 l 2
 74 713 64 721 64 743 c 0xd0
EndSplineSet
AlternateSubs2: "'aalt' Access All Alternates in Latin lookup 0 subtable" t.sc
Substitution2: "'smcp' Lowercase to Small Capitals in Latin lookup 2 subtable" t.sc
EndChar

StartChar: u
Encoding: 117 117 20
Width: 1016
VWidth: 870
Flags: HMW
HStem: -27 103<385.952 629.32> 750 93<16 130.049 530.701 711.47>
VStem: 132 149<197.253 720.345> 700 144<138.849 651.088>
LayerCount: 3
Fore
SplineSet
16 780 m 2
 16 811 l 2
 16 829 30 846 49 846 c 0
 118 846 258 854 264 854 c 0
 280 854 298 842 298 814 c 0
 298 772 281 476 281 392 c 0
 281 227 350 76 521 76 c 0
 658 76 697 194 700 285 c 0
 701 326 712 656 712 697 c 0
 712 740 683 750 628 750 c 2
 574 750 l 2
 545 750 530 756 530 812 c 0
 530 837 564 843 582 843 c 2
 833 846 l 2
 863 846 863 835 863 821 c 0
 846 307 844 307 844 178 c 0
 844 145 845 130 896 130 c 2
 932 130 l 2
 977 130 982 126 982 114 c 2
 982 67 l 2
 982 54 977 55 840 11 c 0
 821 5 760 -20 734 -20 c 0
 720 -20 710 -17 710 -1 c 0
 710 69 712 76 712 84 c 2
 712 108 l 1
 695 99 656 -27 472 -27 c 0
 365 -27 132 24 132 318 c 0
 132 381 130 691 130 722 c 0
 130 745 120 748 105 748 c 2
 56 748 l 2
 38 748 16 762 16 780 c 2
EndSplineSet
AlternateSubs2: "'aalt' Access All Alternates in Latin lookup 0 subtable" u.sc
Substitution2: "'smcp' Lowercase to Small Capitals in Latin lookup 2 subtable" u.sc
EndChar

StartChar: v
Encoding: 118 118 21
Width: 1052
VWidth: 876
Flags: W
HStem: -20 21G<552 593> 747 101<903.971 1018.27> 757 91<31.7381 151.031 320.3 481.958>
VStem: 30 290<689.5 833> 779 242<637.5 816>
LayerCount: 3
Fore
SplineSet
30 819 m 0xb8
 30 847 68 848 92 848 c 0xb8
 117 848 131 845 244 845 c 0
 332 845 406 849 422 849 c 0
 452 849 482 840 482 804 c 0
 482 774 468 763 423 763 c 0
 366 763 320 751 320 708 c 0
 320 671 564 194 592 194 c 0
 609 194 779 562 779 713 c 0
 779 797 647 719 647 812 c 0
 647 839 684 849 714 849 c 0
 769 849 810 843 887 843 c 0
 917 843 959 848 982 848 c 0
 1011 848 1021 822 1021 810 c 0
 1021 756 972 760 936 747 c 0xd8
 890 730 915 649 693 166 c 0
 665 107 616 -20 570 -20 c 0
 534 -20 500 35 451 117 c 0
 176 570 191 720 105 757 c 0
 60 776 30 768 30 819 c 0xb8
EndSplineSet
AlternateSubs2: "'aalt' Access All Alternates in Latin lookup 0 subtable" v.sc
Substitution2: "'smcp' Lowercase to Small Capitals in Latin lookup 2 subtable" v.sc
EndChar

StartChar: w
Encoding: 119 119 22
Width: 1606
VWidth: 876
Flags: W
HStem: -20 23G<558 608.5 1108 1147.5> 747 97<1455.17 1568.27> 763 86<34.5498 171.944 345.012 481.913 889.262 1076.58 1207.32 1346.54>
VStem: 34 311<711 831> 542 344<694 814.5> 1347 224<646.5 816>
LayerCount: 3
Fore
SplineSet
34 817 m 0xdc
 34 845 57 851 81 851 c 0
 106 851 151 845 264 845 c 0
 352 845 406 849 422 849 c 0
 452 849 482 840 482 804 c 0
 482 774 468 763 423 763 c 0xbc
 406 763 395 764 388 764 c 0
 362 764 345 750 345 730 c 0
 345 692 561 185 590 185 c 0
 607 185 724 391 777 572 c 1
 756 619 712 706 699 729 c 0
 658 802 542 731 542 806 c 0
 542 823 551 845 590 845 c 0
 605 845 776 836 834 836 c 0
 891 836 932 842 1010 842 c 0
 1040 842 1077 829 1077 802 c 0
 1077 767 1049 754 1014 754 c 2
 954 754 l 2
 917 754 886 740 886 710 c 0
 886 678 926 604 959 542 c 0
 1133 207 1127 206 1142 206 c 0
 1176 206 1347 580 1347 713 c 0
 1347 745 1321 752 1298 756 c 0
 1257 763 1207 753 1207 812 c 0
 1207 839 1244 845 1274 845 c 0
 1329 845 1360 839 1437 839 c 0
 1467 839 1509 844 1532 844 c 0
 1561 844 1571 822 1571 810 c 0
 1571 756 1522 760 1486 747 c 0
 1442 731 1492 721 1238 166 c 0
 1210 107 1169 -18 1126 -18 c 0
 1090 -18 1036 62 946 243 c 2
 834 470 l 1
 732 245 647 -20 570 -20 c 0
 546 -20 500 35 451 117 c 0
 398 205 377 247 224 607 c 0
 175 723 160 755 125 757 c 0
 64 760 34 757 34 817 c 0xdc
EndSplineSet
Layer: 2
SplineSet
1346 713 m 4
 1346 802 1206 720 1206 812 c 4
 1206 839 1243 847 1273 847 c 4
 1328 847 1359 839 1436 839 c 4
 1466 839 1514 842 1537 842 c 4
 1568 842 1570 819 1570 807 c 4
 1570 771 1522 762 1485 744 c 4
 1441 722 1469 676 1238 171 c 4
 1217 126 1169 -13 1127 -13 c 4
 1081 -13 1010 119 946 248 c 6
 834 475 l 5
 834 475 676 93 632 31 c 4
 612 2 604 -15 570 -15 c 4
 510 -15 447 106 377 260 c 4
 188 673 181 761 123 764 c 4
 62 767 36 764 36 824 c 4
 36 852 57 858 81 858 c 4
 106 858 151 850 264 850 c 4
 352 850 406 854 422 854 c 4
 452 854 482 845 482 809 c 4
 482 779 468 768 423 768 c 4
 406 768 395 769 388 769 c 4
 362 769 345 755 345 735 c 4
 345 697 561 190 590 190 c 4
 607 190 724 396 777 577 c 5
 756 624 712 711 699 734 c 4
 658 807 542 736 542 811 c 4
 542 828 551 850 590 850 c 4
 605 850 776 839 834 839 c 4
 891 839 932 847 1010 847 c 4
 1040 847 1077 834 1077 807 c 4
 1077 772 1049 759 1014 759 c 6
 954 759 l 6
 917 759 886 745 886 715 c 4
 886 683 926 609 959 547 c 4
 1133 212 1127 211 1142 211 c 4
 1176 211 1346 580 1346 713 c 4
EndSplineSet
AlternateSubs2: "'aalt' Access All Alternates in Latin lookup 0 subtable" w.sc
Substitution2: "'smcp' Lowercase to Small Capitals in Latin lookup 2 subtable" w.sc
EndChar

StartChar: x
Encoding: 120 120 23
Width: 980
VWidth: 870
Flags: W
HStem: -4 98<787.175 941.093> -4 83<22.0204 177.913> 739 85<29.7034 192.782 726.62 915.12>
LayerCount: 3
Fore
SplineSet
22 37 m 0x60
 22 70 50 79 71 79 c 2
 107 79 l 2x60
 143 79 147 81 169 107 c 0
 207 150 405 426 405 426 c 1
 195 707 184 723 126 739 c 0
 67 755 29 738 29 792 c 0
 29 808 49 824 78 824 c 0
 92 824 170 821 264 821 c 0
 352 821 373 825 389 825 c 0
 419 825 450 815 450 788 c 0
 450 736 371 774 371 718 c 0
 371 696 494 537 494 537 c 1
 494 537 622 696 622 724 c 0
 622 765 546 741 546 788 c 0
 546 815 572 824 602 824 c 0
 615 824 668 822 715 822 c 0
 745 822 840 828 857 828 c 0
 909 828 916 802 916 790 c 0
 916 725 839 763 778 735 c 0
 752 723 724 698 698 663 c 2
 546 462 l 1
 791 130 809 108 827 94 c 0
 862 66 942 103 942 40 c 0
 942 3 920 -4 892 -4 c 0xa0
 857 -4 840 0 718 0 c 0
 683 0 568 -4 542 -4 c 0
 516 -4 492 11 492 32 c 0
 492 102 618 57 618 99 c 0
 618 133 456 348 456 348 c 1
 456 348 285 140 285 103 c 0
 285 50 376 94 376 38 c 0
 376 23 369 -4 327 -4 c 0
 276 -4 302 0 72 0 c 0
 46 0 22 9 22 37 c 0x60
EndSplineSet
AlternateSubs2: "'aalt' Access All Alternates in Latin lookup 0 subtable" x.sc
Substitution2: "'smcp' Lowercase to Small Capitals in Latin lookup 2 subtable" x.sc
EndChar

StartChar: y
Encoding: 121 121 24
Width: 1031
VWidth: 870
Flags: W
HStem: 755 83<374 464.922 609.105 690 887.625 1004.41>
VStem: 46 294<694 803> 742 264<644 819.5>
LayerCount: 3
Fore
SplineSet
46 799 m 0
 46 807 51 835 101 835 c 0
 115 835 139 828 233 828 c 0
 321 828 390 838 423 838 c 0
 453 838 465 825 465 798 c 0
 465 766 438 761 410 755 c 2
 374 747 l 2
 355 743 340 736 340 717 c 0
 340 671 543 220 562 220 c 0
 576 220 742 596 742 692 c 0
 742 737 711 745 690 748 c 2
 665 752 l 2
 635 756 609 762 609 794 c 0
 609 821 625 833 655 833 c 0
 668 833 714 828 791 828 c 0
 821 828 948 836 971 836 c 0
 989 836 1006 829 1006 810 c 0
 1006 773 978 760 948 749 c 0
 888 726 895 749 804 549 c 1
 657 220 482 -169 357 -300 c 0
 314 -344 273 -367 232 -367 c 0
 176 -367 153 -341 153 -293 c 0
 153 -257 191 -232 237 -209 c 0
 291 -182 305 -188 365 -120 c 0
 418 -59 469 23 469 30 c 0
 469 34 320 416 152 721 c 0
 120 778 46 745 46 799 c 0
EndSplineSet
AlternateSubs2: "'aalt' Access All Alternates in Latin lookup 0 subtable" y.sc
Substitution2: "'smcp' Lowercase to Small Capitals in Latin lookup 2 subtable" y.sc
EndChar

StartChar: z
Encoding: 122 122 25
Width: 756
VWidth: 870
Flags: W
HStem: 0 136<236.029 587.771> 685 139<214.841 477.987>
VStem: 125 91<824 917.186> 590 86<-172.949 -13.4303> 647 84<158.441 312.677>
LayerCount: 3
Fore
SplineSet
33 35 m 0xf0
 33 57 46 81 48 84 c 2
 432 600 l 2
 463 642 478 661 478 672 c 0
 478 683 460 685 410 685 c 2
 273 685 l 2
 145 685 197 573 138 573 c 0
 113 573 105 592 105 618 c 0
 105 660 125 731 125 800 c 2
 125 823 l 2
 125 846 129 918 178 918 c 0
 208 918 216 875 216 851 c 0
 216 836 220 824 255 824 c 2
 631 824 l 2
 679 824 681 823 681 795 c 2
 681 790 l 2
 681 755 586 675 498 545 c 0
 329 292 236 193 236 166 c 0
 236 142 275 136 534 136 c 0
 593 136 617 136 647 260 c 0
 654 291 670 314 700 314 c 0
 710 314 731 306 731 270 c 0xe8
 731 213 688 50 676 -64 c 0
 672 -103 677 -173 634 -173 c 0
 607 -173 590 -155 590 -131 c 2
 590 -57 l 2
 590 -28 582 0 458 0 c 2
 67 0 l 2
 33 0 33 16 33 35 c 0xf0
EndSplineSet
AlternateSubs2: "'aalt' Access All Alternates in Latin lookup 0 subtable" z.sc
Substitution2: "'smcp' Lowercase to Small Capitals in Latin lookup 2 subtable" z.sc
EndChar

StartChar: A
Encoding: 65 65 26
Width: 851
VWidth: 0
Flags: HW
HStem: -23 80<259.127 463.351> -12 116<613.079 789.333> 787 86<258.281 462.473>
VStem: 70 156<85.8615 329.102> 510 146<110.101 403 471.641 741.357>
LayerCount: 3
Fore
SplineSet
70 172 m 0xb8
 70 361 198 413 299 437 c 0
 469 477 510 462 510 526 c 2
 510 582 l 2
 510 689 479 787 355 787 c 0
 211 787 242 626 140 626 c 0
 99 626 71 663 71 705 c 0
 71 814 251 873 380 873 c 0
 547 873 656 766 656 618 c 2
 656 218 l 2
 656 121 702 104 718 104 c 0
 795 104 806 172 822 172 c 0
 836 172 844 164 844 147 c 0
 844 58 763 -12 668 -12 c 0x78
 559 -12 534 82 534 82 c 1
 532 80 484 -23 303 -23 c 0
 189 -23 70 8 70 172 c 0xb8
226 220 m 0
 226 127 252 57 357 57 c 0xb8
 436 57 510 108 510 206 c 2
 510 403 l 1
 290 364 226 363 226 220 c 0
EndSplineSet
AlternateSubs2: "'aalt' Access All Alternates in Latin lookup 0 subtable" a.sc A.title
Substitution2: "'c2sc' Capitals to Small Capitals in Latin lookup 3 subtable" a.sc
Substitution2: "'titl' Titling in Latin lookup 0 subtable" A.title
EndChar

StartChar: B
Encoding: 66 66 27
Width: 1178
VWidth: 0
Flags: HW
HStem: -10 90<24.1673 214.438 427.196 799.878> 721 65<410.045 738.765> 1288 104<29.4375 228.612 410 725.371>
VStem: 238 172<103.791 720.995 786 1279.39> 860 198<916.742 1174.99> 960 176<235.161 555.859>
LayerCount: 3
Fore
SplineSet
24 42 m 0xf4
 24 55 36 90 74 90 c 0
 94 90 125 92 145 92 c 0
 199 92 223 121 225 157 c 0
 237 427 238 618 238 833 c 0
 238 972 235 1007 235 1181 c 0
 235 1257 225 1287 135 1287 c 2
 92 1287 l 2
 60 1287 28 1300 28 1338 c 0
 28 1348 36 1392 88 1392 c 0
 220 1392 292 1389 390 1389 c 0
 463 1389 534 1392 624 1392 c 0
 958 1392 1058 1189 1058 1080 c 0
 1058 862 860 770 860 770 c 1xf8
 860 770 1136 698 1136 420 c 0
 1136 -4 675 -10 642 -10 c 0
 576 -10 373 6 292 6 c 0
 224 6 140 -10 82 -10 c 0
 29 -10 24 12 24 42 c 0xf4
403 277 m 0
 403 116 412 80 606 80 c 0
 889 80 960 283 960 399 c 0xf4
 960 615 760 690 686 704 c 0
 635 714 561 721 454 721 c 0
 405 721 404 715 404 653 c 0
 404 578 403 615 403 277 c 0
410 816 m 2
 410 795 430 786 451 786 c 2
 512 786 l 2
 674 786 860 793 860 1036 c 0xf8
 860 1244 672 1288 466 1288 c 0
 418 1288 410 1273 410 1243 c 2
 410 816 l 2
EndSplineSet
AlternateSubs2: "'aalt' Access All Alternates in Latin lookup 0 subtable" b.sc B.title
Substitution2: "'c2sc' Capitals to Small Capitals in Latin lookup 3 subtable" b.sc
Substitution2: "'titl' Titling in Latin lookup 0 subtable" B.title
EndChar

StartChar: C
Encoding: 67 67 28
Width: 835
VWidth: 0
Flags: W
HStem: -20 131<337.389 629.634> 758 113<284.732 531.398>
VStem: 40 149<281.732 613.955>
LayerCount: 3
Fore
SplineSet
40 404 m 0
 40 681 249 871 459 871 c 0
 618 871 747 797 747 720 c 0
 747 674 706 636 665 636 c 0
 592 636 539 758 390 758 c 0
 300 758 189 690 189 466 c 0
 189 319 278 111 487 111 c 0
 632 111 698 173 737 208 c 0
 756 225 770 231 781 231 c 0
 797 231 805 217 805 202 c 0
 805 119 632 -20 435 -20 c 0
 217 -20 40 152 40 404 c 0
EndSplineSet
AlternateSubs2: "'aalt' Access All Alternates in Latin lookup 0 subtable" c.sc C.title
Substitution2: "'c2sc' Capitals to Small Capitals in Latin lookup 3 subtable" c.sc
Substitution2: "'titl' Titling in Latin lookup 0 subtable" C.title
EndChar

StartChar: D
Encoding: 68 68 29
Width: 988
VWidth: 0
Flags: HW
HStem: -28 21G<716.5 727> -10 122<355.852 621.343> 782 71<325.7 646.437> 1385 20G<816 846>
VStem: 40 148<285.649 625.828> 703 138<160.299 702.27> 708 152<822.882 1220.03>
LayerCount: 3
Fore
SplineSet
40 412 m 0x7c
 40 642 173 853 481 853 c 0
 617 853 708 814 708 814 c 1
 704 1202 l 2
 704 1228 555 1218 555 1270 c 0
 555 1299 611 1316 711 1356 c 0
 776 1382 801 1405 831 1405 c 0
 861 1405 869 1381 869 1346 c 0
 869 1312 861 1241 860 1203 c 0x7a
 855 948 841 653 841 223 c 0
 841 168 842 159 865 159 c 2
 915 159 l 2
 932 159 958 159 958 132 c 0
 958 89 860 78 757 -7 c 0
 741 -21 732 -28 722 -28 c 0xbc
 711 -28 701 -22 701 1 c 2
 701 124 l 1
 674 99 646 -10 456 -10 c 0
 260 -10 40 130 40 412 c 0x7c
188 466 m 0
 188 234 360 112 518 112 c 0
 672 112 702 174 703 339 c 2x7c
 705 676 l 2
 705 744 587 782 472 782 c 0
 276 782 188 647 188 466 c 0
EndSplineSet
AlternateSubs2: "'aalt' Access All Alternates in Latin lookup 0 subtable" d.sc D.title
Substitution2: "'c2sc' Capitals to Small Capitals in Latin lookup 3 subtable" d.sc
Substitution2: "'titl' Titling in Latin lookup 0 subtable" D.title
EndChar

StartChar: E
Encoding: 69 69 30
Width: 842
VWidth: 0
Flags: HW
HStem: -27 122<324.632 623.762> 771 106<259.731 495.49>
VStem: 40 141<340.173 634.041> 590 201<600.647 688.995>
LayerCount: 3
Fore
SplineSet
40 417 m 0
 40 709 235 877 424 877 c 0
 622 877 791 693 791 624 c 0
 791 593 696 566 678 560 c 2
 186 386 l 1
 188 362 223 95 482 95 c 0
 665 95 732 221 777 221 c 0
 793 221 802 207 802 189 c 0
 802 124 627 -27 451 -27 c 0
 256 -27 40 81 40 417 c 0
181 497 m 0
 181 477 182 464 182 464 c 1
 541 599 l 2
 568 609 590 615 590 632 c 0
 590 658 478 771 363 771 c 0
 217 771 181 614 181 497 c 0
EndSplineSet
AlternateSubs2: "'aalt' Access All Alternates in Latin lookup 0 subtable" e.sc E.title
Substitution2: "'c2sc' Capitals to Small Capitals in Latin lookup 3 subtable" e.sc
Substitution2: "'titl' Titling in Latin lookup 0 subtable" E.title
EndChar

StartChar: F
Encoding: 70 70 31
Width: 611
VWidth: 0
Flags: W
LayerCount: 3
Fore
SplineSet
33 778 m 0
 33 815 47 835 66 835 c 2
 186 835 l 1
 186 1287 457 1438 637 1438 c 0
 728 1438 799 1394 799 1344 c 0
 799 1307 764 1248 706 1248 c 0
 630 1248 591 1321 524 1321 c 0
 497 1321 469 1316 449 1298 c 0
 369 1227 328 1071 328 894 c 2
 328 835 l 1
 551 835 l 2
 564 835 571 828 571 797 c 0
 571 758 561 731 538 731 c 2
 334 731 l 1
 334 200 l 2
 334 101 352 92 385 91 c 0
 416 90 482 96 482 46 c 0
 482 7 452 -5 410 -5 c 0
 399 -5 294 0 255 0 c 0
 225 0 98 -6 88 -6 c 0
 60 -6 37 12 37 36 c 0
 37 77 68 87 101 87 c 2
 141 87 l 2
 174 87 175 102 176 136 c 0
 180 323 183 140 183 731 c 1
 52 732 l 2
 39 732 33 741 33 778 c 0
EndSplineSet
AlternateSubs2: "'aalt' Access All Alternates in Latin lookup 0 subtable" f.sc F.title
Substitution2: "'c2sc' Capitals to Small Capitals in Latin lookup 3 subtable" f.sc
Substitution2: "'titl' Titling in Latin lookup 0 subtable" F.title
EndChar

StartChar: G
Encoding: 71 71 32
Width: 901
VWidth: 0
Flags: HW
HStem: -495 83<284.364 678.899> 221 89<295.623 515.958> 731 178<714.057 828.679> 797 74<281.117 489.623>
VStem: 47 112<-320.291 -130.455> 58 148<407.142 705.647> 66 112<67.405 186.02> 576 156<397.079 712.262> 746 116<-357.285 -161.012>
LayerCount: 3
Fore
SplineSet
47 -247 m 0xe980
 47 -107 198 -60 198 -60 c 1
 198 -60 66 -5 66 85 c 0xe380
 66 185 209 273 209 273 c 1
 209 273 58 360 58 548 c 0
 58 685 166 871 389 871 c 0xd580
 550 871 559 816 642 816 c 0
 723 816 707 909 770 909 c 0
 812 909 841 865 841 828 c 0
 841 751 784 731 750 731 c 0
 721 731 671 742 668 743 c 1
 668 743 732 678 732 566 c 0
 732 366 562 221 403 221 c 0
 337 221 300 237 274 237 c 0
 255 237 178 170 178 127 c 0xe380
 178 68 273 29 422 29 c 0
 497 29 548 34 592 34 c 0
 729 34 862 -40 862 -214 c 0
 862 -324 802 -495 460 -495 c 0
 98 -495 47 -339 47 -247 c 0xe980
159 -228 m 0xc980
 159 -351 339 -412 498 -412 c 0
 746 -412 746 -286 746 -248 c 0
 746 -88 504 -130 320 -98 c 0
 277 -91 234 -76 234 -76 c 1
 234 -76 159 -103 159 -228 c 0xc980
206 598 m 0xd580
 206 346 355 310 418 310 c 0
 481 310 576 362 576 520 c 0
 576 664 521 797 386 797 c 0
 278 797 206 713 206 598 c 0xd580
EndSplineSet
AlternateSubs2: "'aalt' Access All Alternates in Latin lookup 0 subtable" g.sc G.title
Substitution2: "'c2sc' Capitals to Small Capitals in Latin lookup 3 subtable" g.sc
Substitution2: "'titl' Titling in Latin lookup 0 subtable" G.title
EndChar

StartChar: H
Encoding: 72 72 33
Width: 1088
VWidth: 0
Flags: W
HStem: -2 81<34.2771 186.213 350.568 503.847 604.325 760.125 920.945 1058.39> 738 118<429.972 661.596> 1399 20G<291 327.5>
VStem: 199 145<84.3171 675.909 703 1185.4> 771 143<82.2504 616.527>
LayerCount: 3
Fore
SplineSet
34 32 m 0
 34 75 58 79 89 79 c 0
 195 79 199 82 199 295 c 0
 199 684 204 342 204 1079 c 0
 204 1129 203 1174 203 1211 c 0
 203 1231 82 1228 63 1260 c 0
 58 1268 56 1279 56 1287 c 0
 56 1331 89 1336 193 1382 c 0
 232 1399 275 1419 307 1419 c 0
 348 1419 354 1394 354 1372 c 0
 354 1337 353 1262 335 703 c 1
 379 765 421 856 600 856 c 0
 674 856 857 818 902 560 c 0
 912 500 911 355 914 271 c 0
 919 89 906 82 1003 78 c 0
 1043 76 1059 61 1059 30 c 0
 1059 -13 1035 -14 1015 -14 c 0
 1004 -14 917 2 820 2 c 0
 732 2 675 -6 655 -6 c 0
 628 -6 604 2 604 33 c 0
 604 81 654 74 714 80 c 0
 761 84 771 99 771 310 c 0
 771 574 729 652 642 708 c 0
 609 730 572 738 536 738 c 0
 348 738 344 600 344 417 c 2
 344 359 l 2
 344 278 345 235 345 195 c 0
 345 100 347 82 411 77 c 0
 451 74 504 76 504 35 c 0
 504 -8 483 -9 463 -9 c 0
 425 -9 363 6 266 6 c 0
 163 6 87 -2 70 -2 c 0
 56 -2 34 -1 34 32 c 0
EndSplineSet
AlternateSubs2: "'aalt' Access All Alternates in Latin lookup 0 subtable" h.sc H.title
Substitution2: "'c2sc' Capitals to Small Capitals in Latin lookup 3 subtable" h.sc
Substitution2: "'titl' Titling in Latin lookup 0 subtable" H.title
EndChar

StartChar: I
Encoding: 73 73 34
Width: 526
VWidth: 0
Flags: HW
LayerCount: 3
Fore
SplineSet
31 24 m 0xf0
 31 66 61 66 95 66 c 0
 173 66 183 82 188 158 c 0
 193 241 197 397 197 427 c 0
 197 477 193 586 191 619 c 0
 188 671 44 656 44 707 c 0
 44 729 61 739 96 754 c 0
 319 847 298 849 318 849 c 0
 335 849 342 838 342 822 c 0
 342 770 333 728 333 307 c 0
 333 244 332 198 332 165 c 0
 332 58 348 75 438 63 c 0
 460 60 485 59 485 23 c 0
 485 8 465 -9 423 -9 c 0
 418 -9 362 0 251 0 c 0
 160 0 100 -9 66 -9 c 0
 40 -9 31 3 31 24 c 0xf0
250 1207 m 0xe8
 250 1250 285 1292 337 1292 c 0
 388 1292 422 1250 422 1207 c 0
 422 1133 363 1115 336 1115 c 0
 324 1115 250 1120 250 1207 c 0xe8
EndSplineSet
AlternateSubs2: "'aalt' Access All Alternates in Latin lookup 0 subtable" i.sc I.title
Substitution2: "'c2sc' Capitals to Small Capitals in Latin lookup 3 subtable" i.sc
Substitution2: "'titl' Titling in Latin lookup 0 subtable" I.title
EndChar

StartChar: J
Encoding: 74 74 35
Width: 627
VWidth: 0
Flags: HW
HStem: -424 148<67.8517 238.288> 865 20G<414.5 434.5> 1106 178<339.908 494.916>
VStem: 302 150<-180.947 830> 329 180<1120 1272.38>
LayerCount: 3
Fore
SplineSet
14 -349 m 0xf0
 14 -293 88 -248 109 -248 c 0
 155 -248 173 -276 215 -276 c 0
 277 -276 300 -179 300 -21 c 0
 300 87 302 174 302 685 c 0
 302 705 166 711 166 741 c 0
 166 782 196 778 296 823 c 0
 358 851 403 885 426 885 c 0
 443 885 452 865 452 830 c 0
 452 334 445 149 445 -74 c 0
 445 -118 406 -198 368 -241 c 0
 222 -405 206 -424 121 -424 c 0
 62 -424 14 -386 14 -349 c 0xf0
329 1194 m 0xe8
 329 1254 374 1284 420 1284 c 0
 464 1284 509 1259 509 1199 c 0
 509 1145 464 1106 420 1106 c 0
 360 1106 329 1148 329 1194 c 0xe8
EndSplineSet
AlternateSubs2: "'aalt' Access All Alternates in Latin lookup 0 subtable" j.sc J.title
Substitution2: "'c2sc' Capitals to Small Capitals in Latin lookup 3 subtable" j.sc
Substitution2: "'titl' Titling in Latin lookup 0 subtable" J.title
EndChar

StartChar: K
Encoding: 75 75 36
Width: 938
VWidth: 0
Flags: W
HStem: -4 71<50.1806 147.227 304.619 441.983 776.691 885.985> 747 80<668.326 840.773> 1386 20G<255 278.5>
VStem: 152 138<77.2483 329 432 1268.1> 545 297<702.5 810.5>
LayerCount: 3
Fore
SplineSet
49 1312 m 0
 49 1333 83 1344 94 1347 c 2
 94 1347 243 1406 267 1406 c 0
 290 1406 295 1384 295 1364 c 2
 288 432 l 1
 432 583 545 683 545 722 c 0
 545 775 455 754 455 799 c 0
 455 807 459 827 509 827 c 0
 523 827 549 823 643 823 c 0
 731 823 774 827 790 827 c 0
 820 827 842 824 842 797 c 0
 842 758 808 766 735 747 c 0
 686 734 603 653 539 587 c 2
 447 492 l 1
 644 243 l 1
 788 64 816 76 851 67 c 0
 866 64 886 53 886 31 c 0
 886 16 870 -4 828 -4 c 0
 797 -4 751 0 673 0 c 0
 659 0 560 -4 531 -4 c 0
 505 -4 478 7 478 28 c 0
 478 89 573 47 573 102 c 0
 573 155 394 366 364 405 c 1
 290 329 l 1
 294 82 280 78 396 68 c 0
 418 66 442 53 442 31 c 0
 442 16 427 -4 385 -4 c 0
 322 -4 287 0 229 0 c 0
 195 0 140 -4 103 -4 c 0
 77 -4 50 7 50 28 c 0
 50 64 78 63 95 67 c 0
 152 82 152 93 152 177 c 2
 157 1216 l 2
 157 1265 49 1281 49 1312 c 0
EndSplineSet
AlternateSubs2: "'aalt' Access All Alternates in Latin lookup 0 subtable" k.sc K.title
Substitution2: "'c2sc' Capitals to Small Capitals in Latin lookup 3 subtable" k.sc
Substitution2: "'titl' Titling in Latin lookup 0 subtable" K.title
EndChar

StartChar: L
Encoding: 76 76 37
Width: 503
VWidth: 0
Flags: W
HStem: -9 78<39.1801 173.211 337.527 476.989> 1391 20G<278.5 315.5>
VStem: 177 153<78.7666 652.738>
LayerCount: 3
Fore
SplineSet
38 18 m 0
 38 76 105 67 141 76 c 0
 167 82 177 93 177 156 c 2
 184 1181 l 1
 70 1209 55 1206 55 1243 c 0
 55 1291 85 1296 170 1348 c 0
 227 1382 254 1411 303 1411 c 0
 328 1411 350 1398 350 1367 c 0
 350 1230 330 1367 330 192 c 0
 330 70 342 86 428 69 c 0
 462 62 477 50 477 31 c 0
 477 16 476 -9 434 -9 c 0
 388 -9 312 0 270 0 c 0
 202 0 119 -14 90 -14 c 0
 64 -14 38 -3 38 18 c 0
EndSplineSet
AlternateSubs2: "'aalt' Access All Alternates in Latin lookup 0 subtable" l.sc L.title
Substitution2: "'c2sc' Capitals to Small Capitals in Latin lookup 3 subtable" l.sc
Substitution2: "'titl' Titling in Latin lookup 0 subtable" L.title
EndChar

StartChar: M
Encoding: 77 77 38
Width: 1436
VWidth: 0
Flags: W
HStem: -2 77<69.078 181.957 330.4 470.771 514.084 657.065 818.486 966.922 1023.55 1154.83 1317.56 1436.81> 750 112<413.661 607.012 877.203 1080.7> 861 20G<290.5 310.5>
VStem: 185 142<80.0975 688.656> 669 143<83.9813 682.422> 1163 149<86.6203 653.206>
LayerCount: 3
Fore
SplineSet
69 34 m 0xdc
 69 70 96 76 113 77 c 0
 183 81 184 81 185 177 c 2
 188 634 l 2
 188 672 174 674 142 688 c 2
 94 709 l 2
 78 716 71 726 71 738 c 0
 71 781 116 786 185 824 c 0
 233 850 280 881 301 881 c 0xbc
 320 881 327 864 327 854 c 2
 327 727 l 1
 342 741 414 862 540 862 c 0
 716 862 785 720 785 720 c 1
 785 720 864 858 1003 858 c 0
 1301 858 1313 574 1313 370 c 0
 1313 326 1312 274 1312 220 c 0
 1312 81 1317 87 1373 80 c 0
 1408 76 1437 71 1437 33 c 0
 1437 18 1422 -2 1380 -2 c 0
 1317 -2 1287 2 1224 2 c 0
 1189 2 1096 -2 1070 -2 c 0
 1044 -2 1023 9 1023 30 c 0
 1023 94 1108 66 1135 86 c 0
 1153 99 1163 127 1163 160 c 2
 1163 411 l 2
 1163 448 1162 479 1160 506 c 0
 1146 701 1047 746 971 746 c 0
 856 746 815 665 811 663 c 1
 811 663 812 631 812 614 c 2
 812 163 l 2
 812 86 830 82 932 73 c 0
 966 70 967 47 967 32 c 0
 967 19 966 -2 918 -2 c 0
 906 -2 783 6 740 6 c 0
 724 6 578 -2 546 -2 c 0
 524 -2 514 13 514 34 c 0
 514 74 543 74 570 75 c 2
 601 76 l 2
 667 78 669 76 669 456 c 0
 669 617 650 750 476 750 c 0
 392 750 327 678 327 574 c 2
 327 159 l 2
 327 84 342 82 384 79 c 0
 436 75 471 76 471 41 c 0
 471 18 461 2 419 2 c 0
 363 2 327 6 263 6 c 0
 234 6 164 2 121 2 c 0
 95 2 69 13 69 34 c 0xdc
EndSplineSet
AlternateSubs2: "'aalt' Access All Alternates in Latin lookup 0 subtable" m.sc M.title
Substitution2: "'c2sc' Capitals to Small Capitals in Latin lookup 3 subtable" m.sc
Substitution2: "'titl' Titling in Latin lookup 0 subtable" M.title
EndChar

StartChar: N
Encoding: 78 78 39
Width: 1068
VWidth: 0
Flags: W
HStem: 0 80<50.9088 190.629 341.961 484.805 613.215 763.797 911.081 1049.98> 760 123<471.166 695.013>
VStem: 197 142<81.349 683.877> 769 146<80.0998 683.446>
LayerCount: 3
Fore
SplineSet
50 30 m 0
 50 70 85 75 138 80 c 0
 205 86 195 71 197 444 c 0
 197 500 195 588 195 668 c 0
 195 682 176 688 153 693 c 2
 130 698 l 2
 80 708 66 715 66 738 c 0
 66 755 66 761 97 780 c 2
 288 893 l 2
 303 902 318 913 329 913 c 0
 339 913 346 904 346 874 c 2
 344 747 l 1
 389 780 492 883 623 883 c 0
 745 883 850 805 889 702 c 0
 910 648 915 583 915 511 c 2
 915 463 l 2
 915 388 909 281 909 178 c 0
 909 94 911 80 964 80 c 2
 998 80 l 2
 1024 80 1050 75 1050 39 c 0
 1050 24 1044 -8 1000 -8 c 0
 987 -8 890 0 832 0 c 0
 816 0 704 -4 672 -4 c 0
 638 -4 612 7 612 28 c 0
 612 82 659 76 724 80 c 0
 755 82 766 92 766 162 c 0
 766 180 769 162 769 539 c 0
 769 699 662 760 560 760 c 0
 444 760 345 684 344 585 c 0
 343 445 339 165 339 153 c 0
 339 60 380 86 451 73 c 0
 478 68 485 52 485 36 c 0
 485 16 471 -4 435 -4 c 0
 379 -4 310 0 259 0 c 0
 220 0 113 -8 97 -8 c 0
 55 -8 50 19 50 30 c 0
EndSplineSet
AlternateSubs2: "'aalt' Access All Alternates in Latin lookup 0 subtable" n.sc N.title
Substitution2: "'c2sc' Capitals to Small Capitals in Latin lookup 3 subtable" n.sc
Substitution2: "'titl' Titling in Latin lookup 0 subtable" N.title
EndChar

StartChar: O
Encoding: 79 79 40
Width: 1543
VWidth: -23
Flags: HW
HStem: -32 93<596.699 1028.31> 1330 100<520.027 968.148>
VStem: 55 197<485.564 971.004> 1292 197<419.554 967.658>
LayerCount: 3
Fore
SplineSet
55 705 m 0
 55 1106 318 1430 750 1430 c 0
 1250 1430 1489 1114 1489 685 c 0
 1489 286 1245 -32 793 -32 c 0
 293 -32 55 300 55 705 c 0
252 793 m 0
 252 445 407 61 813 61 c 0
 1212 61 1292 375 1292 691 c 0
 1292 1081 1079 1330 744 1330 c 0
 460 1330 252 1177 252 793 c 0
EndSplineSet
AlternateSubs2: "'aalt' Access All Alternates in Latin lookup 0 subtable" o.sc O.title
Substitution2: "'c2sc' Capitals to Small Capitals in Latin lookup 3 subtable" o.sc
Substitution2: "'titl' Titling in Latin lookup 0 subtable" O.title
EndChar

StartChar: P
Encoding: 80 80 41
Width: 972
VWidth: 0
Flags: HW
HStem: -459 79<8.59409 144.799 294.035 475.896> 0 71<307.354 645.388> 721 131<409.91 635.141> 854 20G<262 271.5>
VStem: 146 144<-374.467 16 100.612 660.476> 785 137<227.833 564.477>
LayerCount: 3
Fore
SplineSet
8 -427 m 0
 8 -384 54 -384 112 -380 c 0
 146 -377 146 -365 146 -278 c 2
 146 -262 l 2
 146 -141 156 613 156 632 c 0
 156 650 155 672 146 674 c 0
 50 691 23 684 23 718 c 0
 23 744 38 745 208 843 c 0
 234 858 257 874 267 874 c 0
 276 874 299 870 299 818 c 0
 299 814 294 726 292 680 c 1
 292 680 385 852 542 852 c 0
 792 852 922 628 922 456 c 0
 922 91 677 0 490 0 c 0
 400 0 287 16 287 16 c 1
 290 -310 l 2
 291 -393 341 -372 434 -380 c 0
 471 -383 476 -396 476 -416 c 0
 476 -432 472 -456 426 -456 c 0
 414 -456 317 -452 228 -452 c 0
 182 -452 123 -459 62 -459 c 0
 31 -459 8 -458 8 -427 c 0
290 149 m 2
 290 130 290 113 310 100 c 0
 327 89 399 71 480 71 c 0
 724 71 785 237 785 377 c 0
 785 619 616 721 496 721 c 0
 430 721 291 705 291 520 c 2
 290 149 l 2
EndSplineSet
AlternateSubs2: "'aalt' Access All Alternates in Latin lookup 0 subtable" p.sc P.title
Substitution2: "'c2sc' Capitals to Small Capitals in Latin lookup 3 subtable" p.sc
Substitution2: "'titl' Titling in Latin lookup 0 subtable" P.title
EndChar

StartChar: Q
Encoding: 81 81 42
Width: 1031
VWidth: 0
Flags: HW
HStem: -449 81<559.703 701.762 853.995 998.538> -24 117<357.728 633.7> 760 78<326.693 685.669> 834 20G<842.5 864.5>
VStem: 77 116<267.534 607.599> 717 143<-363.676 104 125.76 728.945>
LayerCount: 3
Fore
SplineSet
77 391 m 0xdc
 77 645 221 838 524 838 c 0xec
 602 838 700 821 754 821 c 0
 800 821 832 854 853 854 c 0
 876 854 878 821 878 785 c 0
 878 740 861 641 860 552 c 2
 853 -291 l 2
 853 -365 854 -365 960 -366 c 0
 981 -366 999 -374 999 -398 c 0
 999 -439 983 -450 960 -450 c 0
 925 -450 796 -438 756 -438 c 0
 634 -438 613 -449 591 -449 c 0
 571 -449 557 -442 557 -420 c 0
 557 -383 618 -377 660 -368 c 0
 689 -361 709 -342 709 -268 c 0
 709 -131 718 104 718 104 c 1
 708 96 650 -24 470 -24 c 0
 246 -24 77 136 77 391 c 0xdc
193 458 m 0
 193 235 328 93 531 93 c 0
 705 93 717 170 717 244 c 2
 717 286 l 2
 717 331 718 294 718 662 c 0
 718 719 661 760 491 760 c 0
 277 760 193 624 193 458 c 0
EndSplineSet
AlternateSubs2: "'aalt' Access All Alternates in Latin lookup 0 subtable" q.sc Q.title
Substitution2: "'c2sc' Capitals to Small Capitals in Latin lookup 3 subtable" q.sc
Substitution2: "'titl' Titling in Latin lookup 0 subtable" Q.title
EndChar

StartChar: R
Encoding: 82 82 43
Width: 749
VWidth: 0
Flags: W
HStem: -6 77<35.2654 169.552 343.597 524.167> 710 162<478.384 672.864>
VStem: 179 153<80.5214 655.389>
LayerCount: 3
Fore
SplineSet
35 39 m 0
 35 66 72 69 90 71 c 0
 152 76 178 81 179 175 c 2
 184 667 l 2
 184 679 60 682 60 713 c 2
 60 725 l 2
 60 746 60 762 91 777 c 2
 233 843 l 2
 278 864 292 875 310 875 c 0
 328 875 335 865 335 810 c 2
 335 701 l 1
 335 701 458 872 627 872 c 0
 665 872 723 857 723 776 c 0
 723 724 679 680 636 680 c 0
 583 680 567 710 514 710 c 0
 380 710 332 609 332 552 c 2
 332 200 l 2
 332 90 350 84 397 76 c 0
 452 66 525 78 525 24 c 0
 525 4 515 -13 475 -13 c 0
 432 -13 316 5 234 5 c 0
 172 5 102 -6 87 -6 c 0
 58 -6 35 0 35 39 c 0
EndSplineSet
AlternateSubs2: "'aalt' Access All Alternates in Latin lookup 0 subtable" r.sc R.title
Substitution2: "'c2sc' Capitals to Small Capitals in Latin lookup 3 subtable" r.sc
Substitution2: "'titl' Titling in Latin lookup 0 subtable" R.title
EndChar

StartChar: S
Encoding: 83 83 44
Width: 718
VWidth: 0
Flags: W
HStem: -29 98<248.331 527.696> 751 92<233.868 470.447>
VStem: 62 85<160.471 349.412> 107 110<576.088 735.373> 541 72<570.201 674.595 788 846.99> 569 109<111.001 282.952>
LayerCount: 3
Fore
SplineSet
62 97 m 0xe4
 62 114 72 177 72 207 c 0
 72 221 73 258 73 287 c 0
 73 335 90 351 117 351 c 0
 147 351 146 316 147 273 c 0
 148 228 148 173 255 108 c 0
 308 76 368 69 416 69 c 0
 508 69 569 141 569 200 c 0xe4
 569 293 477 313 417 333 c 0
 196 408 107 405 107 596 c 0
 107 714 184 843 360 843 c 0
 458 843 513 804 530 788 c 1
 532 819 l 2
 532 833 535 847 566 847 c 2
 576 847 l 2
 592 847 596 844 600 793 c 2
 611 662 l 2
 612 655 613 642 613 628 c 0
 613 601 608 570 581 570 c 0
 559 570 547 585 541 608 c 0
 516 705 408 751 341 751 c 0
 296 751 217 749 217 639 c 0xd8
 217 482 678 584 678 265 c 0
 678 44 474 -29 382 -29 c 0
 324 -29 270 -25 154 23 c 0
 81 53 62 57 62 97 c 0xe4
EndSplineSet
AlternateSubs2: "'aalt' Access All Alternates in Latin lookup 0 subtable" s.sc S.title
Substitution2: "'c2sc' Capitals to Small Capitals in Latin lookup 3 subtable" s.sc
Substitution2: "'titl' Titling in Latin lookup 0 subtable" S.title
EndChar

StartChar: T
Encoding: 84 84 45
Width: 747
VWidth: 0
Flags: W
HStem: -23 136<392.191 573.853> 709 125<382 677.643>
VStem: 200 155<146.22 709.155> 216 148<369.862 713>
LayerCount: 3
Fore
SplineSet
64 743 m 0xd0
 64 770 100 781 151 825 c 0
 334 981 303 1068 364 1068 c 0
 389 1068 400 1045 400 1017 c 0
 400 987 382 878 382 844 c 2
 382 821 l 1
 468 825 642 834 651 834 c 0
 677 834 685 812 685 792 c 0
 685 779 677 709 628 709 c 0
 602 709 575 710 364 713 c 1xd0
 361 555 355 385 355 369 c 0
 355 170 394 113 472 113 c 0
 602 113 641 232 683 232 c 0
 693 232 715 225 715 196 c 0
 715 125 581 -23 426 -23 c 0
 287 -23 200 46 200 314 c 0xe0
 200 332 216 713 216 713 c 1
 112 713 l 2
 74 713 64 721 64 743 c 0xd0
EndSplineSet
AlternateSubs2: "'aalt' Access All Alternates in Latin lookup 0 subtable" t.sc T.title
Substitution2: "'c2sc' Capitals to Small Capitals in Latin lookup 3 subtable" t.sc
Substitution2: "'titl' Titling in Latin lookup 0 subtable" T.title
EndChar

StartChar: U
Encoding: 85 85 46
Width: 1016
VWidth: 0
Flags: W
HStem: -27 103<385.952 629.32> 11 119<844.004 974.168> 750 93<16 130.049 530.701 711.47>
VStem: 130 168<396.091 748> 132 149<197.253 720.345> 700 144<138.849 651.088> 712 151<333.722 747.115>
LayerCount: 3
Fore
SplineSet
16 780 m 2xb0
 16 811 l 2
 16 829 30 846 49 846 c 0
 118 846 258 854 264 854 c 0
 280 854 298 842 298 814 c 0xb0
 298 772 281 476 281 392 c 0
 281 227 350 76 521 76 c 0
 658 76 697 194 700 285 c 0xac
 701 326 712 656 712 697 c 0
 712 740 683 750 628 750 c 2
 574 750 l 2
 545 750 530 756 530 812 c 0
 530 837 564 843 582 843 c 2
 833 846 l 2
 863 846 863 835 863 821 c 0xa2
 846 307 844 307 844 178 c 0
 844 145 845 130 896 130 c 2
 932 130 l 2
 977 130 982 126 982 114 c 2
 982 67 l 2
 982 54 977 55 840 11 c 0x64
 821 5 760 -20 734 -20 c 0
 720 -20 710 -17 710 -1 c 0
 710 69 712 76 712 84 c 2
 712 108 l 1
 695 99 656 -27 472 -27 c 0
 365 -27 132 24 132 318 c 0xaa
 132 381 130 691 130 722 c 0
 130 745 120 748 105 748 c 2
 56 748 l 2
 38 748 16 762 16 780 c 2xb0
EndSplineSet
AlternateSubs2: "'aalt' Access All Alternates in Latin lookup 0 subtable" u.sc U.title
Substitution2: "'c2sc' Capitals to Small Capitals in Latin lookup 3 subtable" u.sc
Substitution2: "'titl' Titling in Latin lookup 0 subtable" U.title
EndChar

StartChar: V
Encoding: 86 86 47
Width: 1052
VWidth: 0
Flags: W
HStem: -20 21G<552 593> 747 101<903.971 1018.27> 757 91<31.7381 151.031 320.3 481.958>
VStem: 30 290<689.5 833> 779 242<637.5 816>
LayerCount: 3
Fore
SplineSet
30 819 m 0xb8
 30 847 68 848 92 848 c 0xb8
 117 848 131 845 244 845 c 0
 332 845 406 849 422 849 c 0
 452 849 482 840 482 804 c 0
 482 774 468 763 423 763 c 0
 366 763 320 751 320 708 c 0
 320 671 564 194 592 194 c 0
 609 194 779 562 779 713 c 0
 779 797 647 719 647 812 c 0
 647 839 684 849 714 849 c 0
 769 849 810 843 887 843 c 0
 917 843 959 848 982 848 c 0
 1011 848 1021 822 1021 810 c 0
 1021 756 972 760 936 747 c 0xd8
 890 730 915 649 693 166 c 0
 665 107 616 -20 570 -20 c 0
 534 -20 500 35 451 117 c 0
 176 570 191 720 105 757 c 0
 60 776 30 768 30 819 c 0xb8
EndSplineSet
AlternateSubs2: "'aalt' Access All Alternates in Latin lookup 0 subtable" v.sc V.title
Substitution2: "'c2sc' Capitals to Small Capitals in Latin lookup 3 subtable" v.sc
Substitution2: "'titl' Titling in Latin lookup 0 subtable" V.title
EndChar

StartChar: W
Encoding: 87 87 48
Width: 1606
VWidth: 0
Flags: W
HStem: -20 23G<558 608.5 1108 1147.5> 747 97<1455.17 1568.27> 763 86<34.5498 171.944 345.012 481.913 889.262 1076.58 1207.32 1346.54>
VStem: 34 311<711 831> 542 344<694 814.5> 1347 224<646.5 816>
LayerCount: 3
Fore
SplineSet
34 817 m 0xdc
 34 845 57 851 81 851 c 0
 106 851 151 845 264 845 c 0
 352 845 406 849 422 849 c 0
 452 849 482 840 482 804 c 0
 482 774 468 763 423 763 c 0xbc
 406 763 395 764 388 764 c 0
 362 764 345 750 345 730 c 0
 345 692 561 185 590 185 c 0
 607 185 724 391 777 572 c 1
 756 619 712 706 699 729 c 0
 658 802 542 731 542 806 c 0
 542 823 551 845 590 845 c 0
 605 845 776 836 834 836 c 0
 891 836 932 842 1010 842 c 0
 1040 842 1077 829 1077 802 c 0
 1077 767 1049 754 1014 754 c 2
 954 754 l 2
 917 754 886 740 886 710 c 0
 886 678 926 604 959 542 c 0
 1133 207 1127 206 1142 206 c 0
 1176 206 1347 580 1347 713 c 0
 1347 745 1321 752 1298 756 c 0
 1257 763 1207 753 1207 812 c 0
 1207 839 1244 845 1274 845 c 0
 1329 845 1360 839 1437 839 c 0
 1467 839 1509 844 1532 844 c 0
 1561 844 1571 822 1571 810 c 0
 1571 756 1522 760 1486 747 c 0
 1442 731 1492 721 1238 166 c 0
 1210 107 1169 -18 1126 -18 c 0
 1090 -18 1036 62 946 243 c 2
 834 470 l 1
 732 245 647 -20 570 -20 c 0
 546 -20 500 35 451 117 c 0
 398 205 377 247 224 607 c 0
 175 723 160 755 125 757 c 0
 64 760 34 757 34 817 c 0xdc
EndSplineSet
AlternateSubs2: "'aalt' Access All Alternates in Latin lookup 0 subtable" w.sc W.title
Substitution2: "'c2sc' Capitals to Small Capitals in Latin lookup 3 subtable" w.sc
Substitution2: "'titl' Titling in Latin lookup 0 subtable" W.title
EndChar

StartChar: X
Encoding: 88 88 49
Width: 980
VWidth: 0
Flags: W
HStem: -4 98<787.175 941.093> -4 83<22.0204 177.913> 739 85<29.7034 192.782 726.62 915.12>
LayerCount: 3
Fore
SplineSet
22 37 m 0x60
 22 70 50 79 71 79 c 2
 107 79 l 2x60
 143 79 147 81 169 107 c 0
 207 150 405 426 405 426 c 1
 195 707 184 723 126 739 c 0
 67 755 29 738 29 792 c 0
 29 808 49 824 78 824 c 0
 92 824 170 821 264 821 c 0
 352 821 373 825 389 825 c 0
 419 825 450 815 450 788 c 0
 450 736 371 774 371 718 c 0
 371 696 494 537 494 537 c 1
 494 537 622 696 622 724 c 0
 622 765 546 741 546 788 c 0
 546 815 572 824 602 824 c 0
 615 824 668 822 715 822 c 0
 745 822 840 828 857 828 c 0
 909 828 916 802 916 790 c 0
 916 725 839 763 778 735 c 0
 752 723 724 698 698 663 c 2
 546 462 l 1
 791 130 809 108 827 94 c 0
 862 66 942 103 942 40 c 0
 942 3 920 -4 892 -4 c 0xa0
 857 -4 840 0 718 0 c 0
 683 0 568 -4 542 -4 c 0
 516 -4 492 11 492 32 c 0
 492 102 618 57 618 99 c 0
 618 133 456 348 456 348 c 1
 456 348 285 140 285 103 c 0
 285 50 376 94 376 38 c 0
 376 23 369 -4 327 -4 c 0
 276 -4 302 0 72 0 c 0
 46 0 22 9 22 37 c 0x60
EndSplineSet
AlternateSubs2: "'aalt' Access All Alternates in Latin lookup 0 subtable" x.sc X.title
Substitution2: "'c2sc' Capitals to Small Capitals in Latin lookup 3 subtable" x.sc
Substitution2: "'titl' Titling in Latin lookup 0 subtable" X.title
EndChar

StartChar: Y
Encoding: 89 89 50
Width: 1031
VWidth: 0
Flags: W
HStem: 755 83<374 464.922 609.105 690 887.625 1004.41>
VStem: 46 294<694 803> 742 264<644 819.5>
LayerCount: 3
Fore
SplineSet
46 799 m 0
 46 807 51 835 101 835 c 0
 115 835 139 828 233 828 c 0
 321 828 390 838 423 838 c 0
 453 838 465 825 465 798 c 0
 465 766 438 761 410 755 c 2
 374 747 l 2
 355 743 340 736 340 717 c 0
 340 671 543 220 562 220 c 0
 576 220 742 596 742 692 c 0
 742 737 711 745 690 748 c 2
 665 752 l 2
 635 756 609 762 609 794 c 0
 609 821 625 833 655 833 c 0
 668 833 714 828 791 828 c 0
 821 828 948 836 971 836 c 0
 989 836 1006 829 1006 810 c 0
 1006 773 978 760 948 749 c 0
 888 726 895 749 804 549 c 1
 657 220 482 -169 357 -300 c 0
 314 -344 273 -367 232 -367 c 0
 176 -367 153 -341 153 -293 c 0
 153 -257 191 -232 237 -209 c 0
 291 -182 305 -188 365 -120 c 0
 418 -59 469 23 469 30 c 0
 469 34 320 416 152 721 c 0
 120 778 46 745 46 799 c 0
EndSplineSet
AlternateSubs2: "'aalt' Access All Alternates in Latin lookup 0 subtable" y.sc Y.title
Substitution2: "'c2sc' Capitals to Small Capitals in Latin lookup 3 subtable" y.sc
Substitution2: "'titl' Titling in Latin lookup 0 subtable" Y.title
EndChar

StartChar: Z
Encoding: 90 90 51
Width: 756
VWidth: 0
Flags: W
HStem: 0 136<236.029 587.771> 685 139<214.841 477.987>
VStem: 125 91<824 917.186> 590 86<-172.949 -13.4303> 647 84<158.441 312.677>
LayerCount: 3
Fore
SplineSet
33 35 m 0xf0
 33 57 46 81 48 84 c 2
 432 600 l 2
 463 642 478 661 478 672 c 0
 478 683 460 685 410 685 c 2
 273 685 l 2
 145 685 197 573 138 573 c 0
 113 573 105 592 105 618 c 0
 105 660 125 731 125 800 c 2
 125 823 l 2
 125 846 129 918 178 918 c 0
 208 918 216 875 216 851 c 0
 216 836 220 824 255 824 c 2
 631 824 l 2
 679 824 681 823 681 795 c 2
 681 790 l 2
 681 755 586 675 498 545 c 0
 329 292 236 193 236 166 c 0
 236 142 275 136 534 136 c 0
 593 136 617 136 647 260 c 0
 654 291 670 314 700 314 c 0
 710 314 731 306 731 270 c 0xe8
 731 213 688 50 676 -64 c 0
 672 -103 677 -173 634 -173 c 0
 607 -173 590 -155 590 -131 c 2
 590 -57 l 2
 590 -28 582 0 458 0 c 2
 67 0 l 2
 33 0 33 16 33 35 c 0xf0
EndSplineSet
AlternateSubs2: "'aalt' Access All Alternates in Latin lookup 0 subtable" z.sc Z.title
Substitution2: "'c2sc' Capitals to Small Capitals in Latin lookup 3 subtable" z.sc
Substitution2: "'titl' Titling in Latin lookup 0 subtable" Z.title
EndChar

StartChar: ae
Encoding: 230 230 53
Width: 1325
VWidth: 0
Flags: HW
HStem: -26 120<772.617 1058.2> -21 75<266.304 452.671> 765 95<697.953 942.544> 791 76<259.582 447.498>
VStem: 71 155<85.4641 317.325> 503 124<465.678 694.834> 1014 218<589.062 698.742>
LayerCount: 3
Fore
SplineSet
62 702 m 0x5e
 62 787 222 867 358 867 c 0x5e
 444 867 550 846 608 736 c 1
 684 837 793 860 871 860 c 0
 1067 860 1232 690 1232 635 c 0
 1232 595 1153 572 974 509 c 2
 638 390 l 1
 638 390 660 94 922 94 c 0
 1107 94 1179 229 1218 229 c 0
 1237 229 1250 217 1250 200 c 0
 1250 146 1086 -26 881 -26 c 0xae
 639 -26 566 154 566 154 c 1
 566 154 534 -21 284 -21 c 0
 115 -21 71 82 71 181 c 0
 71 238 105 363 226 402 c 0
 486 486 503 454 503 509 c 2
 503 543 l 2
 503 688 475 791 342 791 c 0
 213 791 226 619 141 619 c 0
 123 619 62 629 62 702 c 0x5e
226 221 m 0
 226 121 262 54 356 54 c 0
 385 54 512 75 512 224 c 2
 512 420 l 1
 274 368 226 348 226 221 c 0
627 504 m 0
 627 479 630 460 630 460 c 1
 984 588 l 2
 1012 598 1014 613 1014 632 c 0
 1014 684 904 765 801 765 c 0x2e
 711 765 627 703 627 504 c 0
EndSplineSet
EndChar

StartChar: oe
Encoding: 339 339 54
Width: 1616
VWidth: 0
Flags: HW
HStem: -26 124<1063.64 1354.56> -17 73<377.479 634.866> 768 99<990.048 1217.2> 791 68<371.859 607.615>
VStem: 70 158<230.749 622.048> 775 129<271.969 390 459 618.721> 1310 206<590.522 686.167>
LayerCount: 3
Fore
SplineSet
70 426 m 0x4e
 70 638 212 859 498 859 c 0x5e
 776 859 844 667 844 667 c 1
 845 668 929 867 1163 867 c 0
 1360 867 1516 685 1516 630 c 0
 1516 606 1499 587 1459 574 c 2
 912 390 l 1
 912 336 975 98 1229 98 c 0
 1393 98 1453 235 1497 235 c 0
 1508 235 1527 230 1527 208 c 0
 1527 116 1358 -26 1181 -26 c 0xae
 894 -26 837 178 837 178 c 1
 837 178 752 -17 499 -17 c 0
 156 -17 70 282 70 426 c 0x4e
228 427 m 0
 228 176 343 56 517 56 c 0
 652 56 775 169 775 414 c 0
 775 643 643 791 491 791 c 0
 328 791 228 646 228 427 c 0
904 459 m 1
 1279 595 l 2
 1307 606 1310 611 1310 628 c 0
 1310 654 1205 768 1082 768 c 0x2e
 913 768 904 525 904 470 c 2
 904 459 l 1
EndSplineSet
EndChar

StartChar: f_f
Encoding: 65536 -1 55
Width: 1024
VWidth: 0
Flags: HW
HStem: 1 78<312.459 449.862 500.276 619.219 779.137 926.982> 739 91<18.032 179 315 631 773 985.695> 1298 93<441.912 685.183> 1335 100<891.667 1139>
VStem: 165 143<92.8123 724.081> 179 129<277.212 739 830 1079.47> 631 141<85.9824 739 830 1127.11>
LayerCount: 3
Fore
SplineSet
18 786 m 0xd6
 18 823 29 830 42 830 c 2
 183 830 l 1
 183 1184 376 1391 630 1391 c 0xe6
 737 1391 808 1329 808 1329 c 1
 892 1406 974 1435 1096 1435 c 0
 1182 1435 1274 1416 1274 1344 c 0
 1274 1307 1231 1244 1173 1244 c 0
 1093 1244 1079 1335 981 1335 c 0
 822 1335 773 1066 773 894 c 2
 773 830 l 1
 968 830 l 2
 981 830 986 828 986 797 c 0
 986 759 980 739 958 739 c 2
 772 739 l 1
 770 200 l 2
 770 72 799 87 878 81 c 0
 903 79 927 70 927 41 c 0
 927 2 902 -6 860 -6 c 0
 849 -6 739 0 700 0 c 0
 622 0 581 -4 551 -4 c 0
 523 -4 500 2 500 35 c 0
 500 76 543 76 552 77 c 0
 610 87 619 76 625 169 c 0
 629 228 631 330 631 499 c 2
 631 739 l 1
 315 739 l 1
 312 546 308 489 308 445 c 2
 308 272 l 2
 308 216 309 177 309 149 c 0
 309 82 336 86 404 79 c 0
 439 75 450 58 450 36 c 0
 450 21 429 1 387 1 c 0
 346 1 289 6 226 6 c 0
 187 6 137 -1 97 -1 c 0
 54 -1 22 7 22 40 c 0
 22 126 165 41 165 158 c 0xda
 165 461 179 415 179 739 c 1
 42 739 l 2
 29 739 18 752 18 786 c 0xd6
315 830 m 1
 639 830 l 1
 643 910 636 957 650 1036 c 0
 662 1107 705 1213 705 1213 c 1
 605 1268 566 1298 510 1298 c 0
 456 1298 315 1248 315 830 c 1
EndSplineSet
Ligature2: "liga subtable" f f
LCarets2: 1 0 
EndChar

StartChar: f_i
Encoding: 65537 -1 56
Width: 959
VWidth: 870
Flags: W
HStem: -5 90<37.2014 173.94 334.794 466.748 506.081 643.1 833 919.862> 731 104<38.6387 183 330 640.783> 1321 102<481.489 702.5>
VStem: 176 153<86.7962 731> 191 139<835 1100.78> 651 140<82.9148 731>
LayerCount: 3
Fore
SplineSet
37 36 m 0xf4
 37 77 68 84 101 85 c 0
 173 89 175 85 176 131 c 0xf4
 180 318 183 140 183 731 c 1
 57 732 l 2
 44 732 38 741 38 778 c 0
 38 815 52 835 71 835 c 2
 191 835 l 1
 191 1287 488 1423 657 1423 c 0
 748 1423 809 1384 809 1334 c 0
 809 1297 784 1248 726 1248 c 0
 650 1248 611 1321 544 1321 c 0
 373 1321 330 999 330 835 c 1xec
 551 835 l 2
 693 835 744 842 770 842 c 0
 787 842 797 829 797 809 c 0
 797 745 791 649 791 165 c 0
 791 96 802 83 833 81 c 2
 869 79 l 2
 891 78 920 80 920 44 c 0
 920 3 899 -7 862 -7 c 0
 824 -7 771 4 708 4 c 0
 617 4 592 0 558 0 c 0
 532 0 506 17 506 38 c 0
 506 80 534 82 568 82 c 0
 646 82 640 82 645 158 c 0
 650 241 651 397 651 427 c 0
 651 731 636 731 609 731 c 2
 329 731 l 1
 329 195 l 2
 329 83 343 93 401 81 c 0
 428 76 467 72 467 46 c 0
 467 6 449 0 412 0 c 0
 371 0 311 8 242 8 c 0
 197 8 141 -5 98 -5 c 0
 63 -5 37 4 37 36 c 0xf4
EndSplineSet
Ligature2: "liga subtable" f i
LCarets2: 1 0 
EndChar

StartChar: f_l
Encoding: 65538 -1 57
Width: 971
VWidth: 870
Flags: W
HStem: -5 84<35.0327 169.853 319.057 451.96 489.115 629.703 788.456 920.669> 736 99<28.252 178 310 535.584> 1321 95<414.586 617.5>
VStem: 178 131<80.6172 736 835 1147.22> 632 153<87.0938 805.899> 656 139<594.101 1258.83>
LayerCount: 3
Fore
SplineSet
28 778 m 0xf4
 28 815 33 835 52 835 c 2
 178 835 l 1
 178 1088 224 1260 402 1365 c 0
 466 1403 530 1416 592 1416 c 0
 643 1416 707 1386 707 1386 c 1
 707 1386 740 1418 755 1418 c 0
 780 1418 795 1397 795 1366 c 0xf4
 795 1229 785 1367 785 192 c 0
 785 70 793 97 879 79 c 0
 913 72 921 50 921 31 c 0
 921 16 909 -10 867 -10 c 0
 821 -10 767 0 725 0 c 0
 657 0 574 -6 545 -6 c 0
 519 -6 488 5 488 26 c 0
 488 80 551 74 596 82 c 0
 624 87 630 93 632 156 c 2xf8
 656 1244 l 1
 592 1254 540 1321 479 1321 c 0
 402 1321 340 1190 323 1072 c 0
 311 989 310 913 310 894 c 2
 310 835 l 1
 514 835 l 2
 527 835 536 828 536 797 c 0
 536 758 531 736 508 736 c 2
 309 736 l 1
 309 200 l 2
 309 101 332 83 365 78 c 0
 397 73 452 81 452 38 c 0
 452 5 432 -3 398 -3 c 0
 362 -3 311 6 250 6 c 0
 194 6 137 -5 96 -5 c 0
 60 -5 35 4 35 36 c 0
 35 77 80 76 96 77 c 2
 136 79 l 2
 169 81 170 94 171 128 c 0
 175 315 178 145 178 736 c 1
 49 737 l 2
 36 737 28 741 28 778 c 0xf4
EndSplineSet
Ligature2: "liga subtable" f l
LCarets2: 1 0 
EndChar

StartChar: f_f_i
Encoding: 65539 -1 58
Width: 1434
VWidth: 0
Flags: HW
HStem: 1 78<331.459 468.862 519.276 638.219 798.137 945.982 986.081 1122.07 1313 1399.86> 739 91<57.032 198 334 650 792 1119.45> 1288 93<464.138 653.601> 1325 95<900.71 1096.68>
VStem: 184 143<92.8123 739> 202 132<830 1078.11> 650 141<85.9824 739 830 1123.5> 1131 140<82.9148 731>
LayerCount: 3
Fore
SplineSet
41 40 m 0xdb
 41 126 184 41 184 158 c 0xdb
 184 461 198 415 198 739 c 1
 81 739 l 2
 68 739 57 752 57 786 c 0
 57 823 68 830 81 830 c 2
 202 830 l 1
 202 1184 408 1381 649 1381 c 0xe7
 756 1381 821 1319 821 1319 c 1
 916 1406 990 1420 1079 1420 c 0
 1213 1420 1288 1355 1288 1311 c 0
 1288 1291 1273 1230 1200 1230 c 0
 1104 1230 1098 1325 1000 1325 c 0
 841 1325 792 1066 792 894 c 2
 792 830 l 1
 1031 835 l 2
 1173 838 1224 842 1250 842 c 0
 1267 842 1277 829 1277 809 c 0
 1277 745 1271 649 1271 165 c 0
 1271 96 1282 83 1313 81 c 2
 1349 79 l 2
 1371 78 1400 80 1400 44 c 0
 1400 3 1379 -7 1342 -7 c 0
 1304 -7 1251 4 1188 4 c 0
 1097 4 1072 0 1038 0 c 0
 1012 0 986 17 986 38 c 0
 986 80 1014 82 1048 82 c 0
 1126 82 1120 82 1125 158 c 0
 1130 241 1131 397 1131 427 c 0
 1131 731 1116 730 1089 731 c 2
 791 739 l 1
 789 200 l 2
 789 72 818 87 897 81 c 0
 922 79 946 70 946 41 c 0
 946 2 921 -6 879 -6 c 0
 868 -6 758 0 719 0 c 0
 641 0 600 -4 570 -4 c 0
 542 -4 519 2 519 35 c 0
 519 76 562 76 571 77 c 0
 629 87 638 76 644 169 c 0
 648 228 650 330 650 499 c 2
 650 739 l 1
 334 739 l 1xd7
 331 546 327 489 327 445 c 2
 327 272 l 2
 327 216 328 177 328 149 c 0
 328 82 355 86 423 79 c 0
 458 75 469 58 469 36 c 0
 469 21 448 1 406 1 c 0
 365 1 308 6 245 6 c 0
 206 6 156 -1 116 -1 c 0
 73 -1 41 7 41 40 c 0xdb
334 830 m 1xe7
 658 830 l 1
 663 933 661 1033 692 1120 c 0
 710 1170 730 1213 730 1213 c 1
 644 1240 585 1288 529 1288 c 0
 514 1288 334 1248 334 830 c 1xe7
EndSplineSet
Ligature2: "liga subtable" f f i
LCarets2: 2 0 0 
EndChar

StartChar: f_f_l
Encoding: 65540 -1 59
Width: 1449
VWidth: 0
Flags: HW
HStem: 1 78<312.459 449.862 497.289 631.853 781.057 913.841 952.155 1091.22 1250.95 1382.24> 739 91<18.032 179 315 640 772 997.896> 1298 93<441.912 636.599> 1321 95<871.072 1079.5>
VStem: 165 143<92.8123 149 830 1248> 640 131<80.6172 739 830 1144.31> 1094 153<87.0938 805.899> 1118 139<594.101 1258.83>
LayerCount: 3
Fore
SplineSet
18 786 m 0
 18 823 29 830 42 830 c 2
 183 830 l 1
 183 1184 376 1391 630 1391 c 0xed
 737 1391 808 1329 808 1329 c 1
 836 1350 914 1416 1054 1416 c 0
 1105 1416 1169 1386 1169 1386 c 1
 1169 1386 1202 1418 1217 1418 c 0
 1242 1418 1257 1397 1257 1366 c 0xdd
 1257 1229 1247 1367 1247 192 c 0
 1247 70 1255 97 1341 79 c 0
 1375 72 1383 50 1383 31 c 0
 1383 16 1371 -10 1329 -10 c 0
 1283 -10 1229 0 1187 0 c 0
 1119 0 1036 -6 1007 -6 c 0
 981 -6 950 5 950 26 c 0
 950 80 1013 74 1058 82 c 0
 1086 87 1092 93 1094 156 c 2xde
 1118 1244 l 1
 1054 1254 1002 1321 941 1321 c 0
 864 1321 802 1190 785 1072 c 0
 773 989 772 913 772 894 c 2
 772 830 l 1
 976 830 l 2
 989 830 998 823 998 792 c 0
 998 753 993 739 970 739 c 2
 771 739 l 1
 771 200 l 2
 771 101 794 83 827 78 c 0
 859 73 914 81 914 38 c 0
 914 5 894 -3 860 -3 c 0
 824 -3 773 6 712 6 c 0
 656 6 599 -5 558 -5 c 0
 522 -5 497 4 497 36 c 0
 497 77 542 76 558 77 c 2
 598 79 l 2
 631 81 632 94 633 128 c 0
 637 315 640 148 640 739 c 1xdd
 315 739 l 1
 312 546 308 489 308 445 c 2
 308 272 l 2
 308 216 309 177 309 149 c 0
 309 82 336 86 404 79 c 0
 439 75 450 58 450 36 c 0
 450 21 429 1 387 1 c 0
 346 1 289 6 226 6 c 0
 187 6 137 -1 97 -1 c 0
 54 -1 22 7 22 40 c 0
 22 126 165 41 165 158 c 0
 165 461 179 415 179 739 c 1
 42 739 l 2
 29 739 18 752 18 786 c 0
315 830 m 1
 640 830 l 1
 641 848 640 857 642 921 c 0
 648 1091 711 1213 711 1213 c 1
 611 1268 566 1298 510 1298 c 0
 456 1298 315 1248 315 830 c 1
EndSplineSet
Ligature2: "liga subtable" f f l
LCarets2: 2 0 0 
EndChar

StartChar: f_j
Encoding: 65541 -1 60
Width: 987
VWidth: 870
Flags: W
HStem: -424 148<411.852 582.288> -5 90<37.2014 175.952 332.526 466.748> 731 104<38.6387 183 330 643.921> 1316 112<473.623 692.5>
VStem: 183 146<87.2241 731 835 1086.7> 646 151<-180.865 809>
LayerCount: 3
Fore
SplineSet
37 36 m 0
 37 77 68 84 101 85 c 0
 173 89 175 85 176 131 c 0
 180 318 183 140 183 731 c 1
 57 732 l 2
 44 732 38 741 38 778 c 0
 38 815 52 835 71 835 c 2
 186 835 l 1
 186 1212 430 1428 647 1428 c 0
 738 1428 809 1384 809 1334 c 0
 809 1297 774 1243 716 1243 c 0
 640 1243 601 1316 534 1316 c 0
 376 1316 330 991 330 894 c 2
 330 835 l 1
 551 835 l 2
 693 835 744 842 770 842 c 0
 787 842 797 829 797 809 c 0
 797 313 789 149 789 -74 c 0
 789 -118 750 -198 712 -241 c 0
 566 -405 550 -424 465 -424 c 0
 406 -424 358 -386 358 -349 c 0
 358 -293 432 -248 453 -248 c 0
 499 -248 517 -276 559 -276 c 0
 621 -276 644 -179 644 -21 c 0
 644 87 646 150 646 661 c 0
 646 694 636 731 618 731 c 2
 329 731 l 1
 329 195 l 2
 329 83 343 93 401 81 c 0
 428 76 467 72 467 46 c 0
 467 6 449 0 412 0 c 0
 371 0 311 8 242 8 c 0
 197 8 141 -5 98 -5 c 0
 63 -5 37 4 37 36 c 0
EndSplineSet
Layer: 2
SplineSet
618 731 m 6xf6
 329 731 l 5
 329 195 l 6
 329 83 343 93 401 81 c 4
 428 76 467 72 467 46 c 4
 467 6 449 0 412 0 c 4
 371 0 311 8 242 8 c 4
 197 8 141 -5 98 -5 c 4
 63 -5 37 4 37 36 c 4
 37 77 68 84 101 85 c 4
 173 89 175 85 176 131 c 4xfa
 180 318 183 140 183 731 c 5
 57 732 l 6
 44 732 38 741 38 778 c 4
 38 815 52 835 71 835 c 6
 191 835 l 5
 191 1287 488 1423 657 1423 c 4
 748 1423 809 1384 809 1334 c 4
 809 1297 784 1248 726 1248 c 4
 650 1248 611 1321 544 1321 c 4
 373 1321 330 999 330 835 c 5
 551 835 l 6
 693 835 744 842 770 842 c 4
 787 842 797 829 797 809 c 4
 797 313 789 149 789 -74 c 4
 789 -118 750 -198 712 -241 c 4
 566 -405 550 -424 465 -424 c 4
 406 -424 358 -386 358 -349 c 4
 358 -293 432 -248 453 -248 c 4
 499 -248 517 -276 559 -276 c 4
 621 -276 644 -179 644 -21 c 4
 644 87 646 150 646 661 c 4
 646 694 636 731 618 731 c 6xf6
EndSplineSet
Ligature2: "liga subtable" f j
LCarets2: 1 0 
EndChar

StartChar: f_f_j
Encoding: 65542 -1 61
Width: 1434
VWidth: 0
Flags: HW
HStem: -424 148<897.852 1068.29> 1 78<331.459 468.862 519.276 638.219 798.137 945.982> 739 91<57.032 198 334 650 792 1121.44> 1288 93<464.138 653.601> 1325 95<900.71 1096.68>
VStem: 184 143<92.8123 739> 202 132<830 1078.11> 650 141<85.9824 739 830 1123.5> 1132 150<-180.947 731>
LayerCount: 3
Fore
SplineSet
41 40 m 0xed80
 41 126 184 41 184 158 c 0xed80
 184 461 198 415 198 739 c 1
 81 739 l 2
 68 739 57 752 57 786 c 0
 57 823 68 830 81 830 c 2
 202 830 l 1
 202 1184 408 1381 649 1381 c 0xf380
 756 1381 821 1319 821 1319 c 1
 916 1406 990 1420 1079 1420 c 0
 1213 1420 1288 1355 1288 1311 c 0
 1288 1291 1273 1230 1200 1230 c 0
 1104 1230 1098 1325 1000 1325 c 0
 841 1325 792 1066 792 894 c 2
 792 830 l 1
 1031 835 l 2
 1173 838 1214 842 1240 842 c 0
 1281 842 1282 833 1282 805 c 0
 1282 278 1275 102 1275 -74 c 0
 1275 -118 1236 -198 1198 -241 c 0
 1052 -405 1036 -424 951 -424 c 0
 892 -424 844 -386 844 -349 c 0
 844 -293 918 -248 939 -248 c 0
 985 -248 1003 -276 1045 -276 c 0
 1107 -276 1130 -179 1130 -21 c 0
 1130 71 1132 217 1132 528 c 0
 1132 671 1125 730 1089 731 c 2
 791 739 l 1
 789 200 l 2
 789 72 818 87 897 81 c 0
 922 79 946 70 946 41 c 0
 946 2 921 -6 879 -6 c 0
 868 -6 758 0 719 0 c 0
 641 0 600 -4 570 -4 c 0
 542 -4 519 2 519 35 c 0
 519 76 562 76 571 77 c 0
 629 87 638 76 644 169 c 0
 648 228 650 330 650 499 c 2
 650 739 l 1
 334 739 l 1xeb80
 331 546 327 489 327 445 c 2
 327 272 l 2
 327 216 328 177 328 149 c 0
 328 82 355 86 423 79 c 0
 458 75 469 58 469 36 c 0
 469 21 448 1 406 1 c 0
 365 1 308 6 245 6 c 0
 206 6 156 -1 116 -1 c 0
 73 -1 41 7 41 40 c 0xed80
334 830 m 1xf380
 658 830 l 1
 663 933 661 1033 692 1120 c 0
 710 1170 730 1213 730 1213 c 1
 644 1240 585 1288 529 1288 c 0
 514 1288 334 1248 334 830 c 1xf380
EndSplineSet
Ligature2: "liga subtable" f f j
LCarets2: 2 0 0 
EndChar

StartChar: c_t
Encoding: 65543 -1 62
Width: 1453
VWidth: 870
Flags: W
HStem: -23 116<348.458 645.292 1082 1252.23> 711 116<1081 1366.67> 746 107<301.207 518.884> 1086 77<717.799 957.27>
VStem: 46 128<299.099 594.234> 556 90<819.343 1020.73> 910 142<121.703 711> 983 98<851.305 1059.41>
LayerCount: 3
Fore
SplineSet
46 359 m 0xbd
 46 457 61 568 121 646 c 0
 250 816 381 853 456 853 c 0xbd
 535 853 561 819 561 819 c 1
 561 819 556 841 556 864 c 0
 556 903 584 1163 840 1163 c 0
 1094 1163 1078 966 1081 827 c 1xdd
 1338 827 l 2
 1356 827 1373 820 1373 805 c 0
 1373 799 1373 802 1370 776 c 0
 1363 704 1330 703 1314 703 c 0
 1301 703 1292 704 1279 704 c 2
 1060 711 l 1
 1057 574 1052 327 1052 313 c 0
 1052 140 1093 93 1161 93 c 0
 1256 93 1297 185 1338 185 c 0
 1347 185 1368 179 1368 154 c 0
 1368 92 1237 -23 1102 -23 c 0
 989 -23 910 32 910 265 c 0
 910 361 920 587 920 694 c 2
 920 711 l 1
 799 711 l 2xde
 777 711 765 712 765 730 c 0
 765 769 983 792 983 966 c 0
 983 1045 946 1086 830 1086 c 0
 671 1086 646 935 646 879 c 0
 646 846 646 822 652 804 c 0
 669 752 709 725 709 692 c 0
 709 655 632 621 623 621 c 0
 553 621 542 746 401 746 c 0
 256 746 174 630 174 472 c 0
 174 313 308 88 482 88 c 0
 671 88 724 162 763 162 c 0
 771 162 787 158 787 136 c 0
 787 82 607 -23 456 -23 c 0
 187 -23 46 152 46 359 c 0xbd
EndSplineSet
Layer: 2
SplineSet
787 136 m 4xbd
 787 82.2265625 606.784375 -23 456 -23 c 4
 187 -23 46 152 46 359 c 4
 46 457 61 568 121 646 c 4
 250 816 381 853 456 853 c 4xbd
 535 853 561 819 561 819 c 5
 561 819 556 841 556 864 c 4
 556 903 584 1163 840 1163 c 4
 1094 1163 1078 966 1081 827 c 5xdd
 1338 827 l 6
 1356 827 1373 820 1373 805 c 4
 1373 799 1373 802 1370 776 c 4
 1363 704 1330 703 1314 703 c 4
 1301 703 1292 704 1279 704 c 6
 1060 711 l 5
 1057 574 1052 319 1052 305 c 4
 1052 132 1093 85 1161 85 c 4
 1256 85 1297 177 1338 177 c 4
 1347 177 1368 171 1368 146 c 4
 1368 84 1237 -31 1102 -31 c 4
 989 -31 910 24 910 257 c 4
 910 353 920 587 920 694 c 6
 920 711 l 5
 799 711 l 6xde
 777 711 765 712 765 730 c 4
 765 769 983 792 983 966 c 4
 983 1045 946 1086 830 1086 c 4
 671 1086 646 935 646 879 c 4
 646 846 646 822 652 804 c 4
 669 752 709 725 709 692 c 4
 709 655 632 621 623 621 c 4
 553 621 542 746 401 746 c 4
 256 746 174 630 174 472 c 4
 174 313 308 88 482 88 c 4
 671 88 724 162 763 162 c 4
 771 162 787 158 787 136 c 4xbd
EndSplineSet
Ligature2: "dlig subtable" c t
LCarets2: 1 6 
EndChar

StartChar: s_t
Encoding: 65544 -1 63
Width: 1325
VWidth: 870
Flags: HMW
HStem: -29 98<208.331 487.696> -23 117<948.826 1124.53> 705 126<1183 1235.7> 751 92<193.868 430.276> 1146 77<576.728 793.334>
VStem: 22 85<160.471 349.412> 67 110<576.088 735.373> 405 88<773.986 1068.6> 501 70<569.816 671.266> 529 109<111.001 282.952> 782 139<120.016 311> 839 104<869.863 1104.39>
LayerCount: 3
Fore
SplineSet
22 97 m 0
 22 114 32 177 32 207 c 0
 32 221 33 258 33 287 c 0
 33 335 50 351 77 351 c 0
 107 351 106 316 107 273 c 0
 108 228 108 173 215 108 c 0
 268 76 328 69 376 69 c 0
 468 69 529 141 529 200 c 0
 529 293 437 313 377 333 c 0
 156 408 67 405 67 596 c 0
 67 714 144 843 320 843 c 0
 374 843 402 831 431 818 c 1
 422 846 405 904 405 937 c 0
 405 1016 469 1223 685 1223 c 0
 949 1223 940 960 943 821 c 1
 1032 824 1201 831 1210 831 c 0
 1227 831 1239 822 1239 806 c 2
 1239 780 l 2
 1239 743 1228 705 1183 705 c 0
 1171 705 1104 706 1081 707 c 2
 926 712 l 1
 923 575 921 325 921 311 c 0
 921 138 958 94 1026 94 c 0
 1114 94 1166 192 1210 192 c 0
 1232 192 1239 171 1239 157 c 0
 1239 113 1126 -23 988 -23 c 0
 867 -23 782 30 782 263 c 2
 782 712 l 1
 655 712 l 2
 624 712 621 727 621 750 c 0
 621 769 650 778 686 791 c 0
 799 832 839 928 839 1001 c 0
 839 1086 782 1146 692 1146 c 0
 521 1146 493 979 493 923 c 0
 493 792 571 666 571 611 c 0
 571 591 566 569 544 569 c 0
 518 569 507 587 501 608 c 0
 476 705 368 751 301 751 c 0
 256 751 177 749 177 639 c 0
 177 482 638 584 638 265 c 0
 638 44 434 -29 342 -29 c 0
 284 -29 230 -25 114 23 c 0
 41 53 22 57 22 97 c 0
EndSplineSet
Layer: 2
SplineSet
430.8125 818 m 1
 402.104492188 831.248046875 373.795463145 843 320 843 c 0
 144 843 67 714 67 596 c 0xd4
 67 405 156 408 377 333 c 0
 437 313 529 293 529 200 c 0
 529 141 468 69 376 69 c 0
 328 69 268 76 215 108 c 0
 108 173 108 228 107 273 c 0xe4
 106 316 107 351 77 351 c 0
 50 351 33 335 33 287 c 0
 33 258 32 221 32 207 c 0
 32 177 22 114 22 97 c 0
 22 57 41 53 114 23 c 0
 230 -25 284 -29 342 -29 c 0
 434 -29 638 44 638 265 c 0
 638 584 177 482 177 639 c 0xd8
 177 749 256 751 301 751 c 0
 368 751 476 705 501 608 c 0
 507 585 519 570 541 570 c 0
 566.92465572 570 552.809483875 573 555 573 c 0
 566 573 571 595 571 611 c 0
 571 636 555 662 548 693 c 0
 535.90320836 743.806524888 518.318952921 775.589841938 506.310546875 818 c 1
 498.46484375 845.708007812 493 877.951712348 493 923 c 0
 493 979 521 1146 692 1146 c 0
 782 1146 839 1086 839 1001 c 0
 839 928 799 832 686 791 c 0
 650 778 621 769 621 750 c 0
 621 727 624 712 655 712 c 2
 782 712 l 1
 782 251 l 2
 782 18 867 -35 988 -35 c 0
 1126 -35 1239 101 1239 145 c 0
 1239 159 1232 180 1210 180 c 0
 1166 180 1114 82 1026 82 c 0
 958 82 921 126 921 299 c 0
 921 313 923 575 926 712 c 1
 1081 707 l 2
 1104 706 1171 705 1183 705 c 0
 1206 705 1214 708 1224 723 c 0
 1236 740 1239 765 1239 780 c 2
 1239 806 l 2
 1239 822 1227 831 1210 831 c 0
 1201 831 1032 824 943 821 c 1
 940 960 949 1223 685 1223 c 0
 469 1223 405 1016 405 937 c 0
 405 904.428679764 421.987304688 846.102539062 430.8125 818 c 1
1026 82 m 0
 1114 82 1166 180 1210 180 c 0
 1232 180 1239 159 1239 145 c 0
 1239 101 1126 -35 988 -35 c 0
 867 -35 782 18 782 251 c 2
 782 712 l 1
 655 712 l 2
 624 712 621 727 621 750 c 0
 621 769 650 778 686 791 c 0
 799 832 839 928 839 1001 c 0
 839 1086 782 1146 692 1146 c 0
 521 1146 493 979 493 923 c 0
 493 809 528 777 548 693 c 0
 555 662 571 636 571 611 c 0
 571 595 566 573 555 573 c 0
 500 573 512 621 489 663 c 0
 465 706 380 750 300 750 c 0
 229 750 177 710 177 647 c 0
 177 549 263 540 371 511 c 0
 494 479 647 441 647 241 c 0
 647 82 507 -24 332 -24 c 0
 236 -24 42 29 42 99 c 0
 42 122 49 256 49 279 c 0
 49 329 69 341 85 341 c 0
 143 341 110 264 137 189 c 1
 169 104 287 65 378 65 c 0
 508 65 552 147 552 219 c 0
 552 275 510 303 347 349 c 0
 296 364 263 375 241 379 c 0
 162 394 78 432 78 601 c 0
 78 665 141 839 313 839 c 0
 404 839 436 802 436 802 c 1
 436 802 405 893 405 937 c 0
 405 1016 469 1223 685 1223 c 0
 949 1223 940 960 943 821 c 1
 1032 824 1201 831 1210 831 c 0
 1227 831 1239 822 1239 806 c 2
 1239 780 l 2
 1239 765 1236 740 1224 723 c 0
 1214 708 1206 705 1183 705 c 0
 1171 705 1104 706 1081 707 c 2
 926 712 l 1
 923 575 921 313 921 299 c 0
 921 126 958 82 1026 82 c 0
EndSplineSet
Ligature2: "dlig subtable" s t
LCarets2: 1 0 
EndChar

StartChar: f_b
Encoding: 65545 -1 64
Width: 1507
VWidth: 1000
Flags: HW
HStem: -36 21G<657.5 680.5> -12 75<835.106 1149.58> -5 82<35.0327 169.853 319.057 451.942> 736 99<28.252 178 310 535.584> 741 120<880.693 1141.64> 1321 95<414.586 617.5>
VStem: 178 131<80.6172 736 835 1147.22> 632 156<103.107 501.286> 648 140<501.286 692.909 730 1263.21> 1299 143<244.275 572.128>
LayerCount: 3
Fore
SplineSet
28 778 m 0xb6c0
 28 815 33 835 52 835 c 2
 178 835 l 1xb6c0
 178 1088 224 1260 402 1365 c 0
 466 1403 530 1416 592 1416 c 0
 643 1416 707 1386 707 1386 c 1
 707 1386 740 1418 755 1418 c 0
 791 1418 794 1379 794 1357 c 2
 794 1334 l 2
 794 1252 793 968 784 730 c 1
 800 745 872 861 1050 861 c 0
 1245 861 1442 728 1442 450 c 0
 1442 252 1328 -12 978 -12 c 0
 868 -12 800 5 741 5 c 0
 698 5 694 -36 667 -36 c 0
 648 -36 632 -28 632 5 c 0xcf40
 632 26 648 498 648 969 c 0
 648 1050 656 1244 656 1244 c 1
 592 1254 540 1321 479 1321 c 0
 402 1321 340 1190 323 1072 c 0
 311 989 310 913 310 894 c 2
 310 835 l 1
 514 835 l 2
 527 835 536 828 536 797 c 0
 536 758 531 736 508 736 c 2
 309 736 l 1
 309 200 l 2
 309 101 332 83 365 78 c 0
 397 73 452 81 452 38 c 0
 452 5 432 -3 398 -3 c 0
 362 -3 311 6 250 6 c 0
 194 6 137 -5 96 -5 c 0
 60 -5 35 4 35 36 c 0
 35 77 80 76 96 77 c 2
 136 79 l 2
 169 81 170 94 171 128 c 0
 175 315 178 145 178 736 c 1
 49 737 l 2
 36 737 28 741 28 778 c 0xb6c0
788 245 m 2xcf40
 788 124 820 63 986 63 c 0
 1204 63 1299 213 1299 372 c 0
 1299 584 1179 741 981 741 c 0
 916 741 873 721 844 702 c 0
 789 665 788 607 788 455 c 2
 788 245 l 2xcf40
EndSplineSet
Ligature2: "liga subtable" f b
LCarets2: 1 0 
EndChar

StartChar: f_h
Encoding: 65546 -1 65
Width: 1550
VWidth: 994
Flags: W
HStem: -5 84<35.0327 169.853 319.057 451.96 504.156 640.069 1370.95 1464.43> 736 99<28.252 178 310 535.584> 738 118<879.972 1111.6> 1321 95<414.586 617.5>
VStem: 178 131<80.6172 736 835 1147.22> 649 145<81.6055 675.909 703 1263.21> 1221 143<82.2504 616.527>
LayerCount: 3
Fore
SplineSet
28 778 m 0xde
 28 815 33 835 52 835 c 2
 178 835 l 1xde
 178 1088 224 1260 402 1365 c 0
 466 1403 530 1416 592 1416 c 0
 643 1416 707 1386 707 1386 c 1
 707 1386 738 1419 757 1419 c 0
 791 1419 794 1393 794 1374 c 2
 794 1363 l 2
 794 1328 794 1260 785 703 c 1
 829 765 871 856 1050 856 c 0
 1124 856 1307 818 1352 560 c 0
 1362 500 1361 355 1364 271 c 0
 1369 89 1356 82 1453 78 c 0
 1493 76 1509 61 1509 30 c 0
 1509 -13 1485 -14 1465 -14 c 0
 1454 -14 1367 2 1270 2 c 0
 1182 2 1125 -6 1105 -6 c 0
 1078 -6 1054 2 1054 33 c 0
 1054 81 1104 74 1164 80 c 0
 1211 84 1221 99 1221 310 c 0
 1221 574 1179 652 1092 708 c 0
 1059 730 1022 738 986 738 c 0xbe
 798 738 794 600 794 417 c 2
 794 359 l 2
 794 278 795 235 795 195 c 0
 795 100 797 82 861 77 c 0
 901 74 954 76 954 35 c 0
 954 -8 933 -9 913 -9 c 0
 875 -9 813 6 716 6 c 0
 613 6 557 -2 540 -2 c 0
 526 -2 504 -1 504 32 c 0
 504 75 528 79 559 79 c 0
 648 79 649 82 649 295 c 0
 649 684 654 342 654 1079 c 0
 654 1244 656 1236 656 1244 c 1
 592 1254 540 1321 479 1321 c 0
 402 1321 340 1190 323 1072 c 0
 311 989 310 913 310 894 c 2
 310 835 l 1
 514 835 l 2
 527 835 536 828 536 797 c 0
 536 758 531 736 508 736 c 2
 309 736 l 1
 309 200 l 2
 309 101 332 83 365 78 c 0
 397 73 452 81 452 38 c 0
 452 5 432 -3 398 -3 c 0
 362 -3 311 6 250 6 c 0
 194 6 137 -5 96 -5 c 0
 60 -5 35 4 35 36 c 0
 35 77 80 76 96 77 c 2
 136 79 l 2
 169 81 170 94 171 128 c 0
 175 315 178 145 178 736 c 1
 49 737 l 2
 36 737 28 741 28 778 c 0xde
EndSplineSet
Ligature2: "liga subtable" f h
LCarets2: 1 0 
EndChar

StartChar: f_k
Encoding: 65547 -1 66
Width: 1430
VWidth: 870
Flags: HMW
HStem: -4 71<35.2896 169.086 325.563 451.637 549.181 646.227 803.619 940.983 1275.69 1384.99> 736 99<28.252 178 310 535.584 1148.14 1337.96> 1321 95<414.586 617.5>
VStem: 178 131<80.6172 736 835 1147.22> 651 138<77.2483 329 432 1261.71>
LayerCount: 3
Fore
SplineSet
28 778 m 0
 28 815 33 835 52 835 c 2
 178 835 l 1
 178 1088 224 1260 402 1365 c 0
 466 1403 530 1416 592 1416 c 0
 643 1416 707 1386 707 1386 c 1
 729 1404 737 1418 760 1418 c 0
 788 1418 794 1384 794 1364 c 2
 787 432 l 1
 931 583 1044 683 1044 722 c 0
 1044 775 954 754 954 799 c 0
 954 807 958 827 1008 827 c 0
 1022 827 1048 823 1142 823 c 0
 1230 823 1273 827 1289 827 c 0
 1319 827 1341 824 1341 797 c 0
 1341 758 1307 766 1234 747 c 0
 1185 734 1102 653 1038 587 c 2
 946 492 l 1
 1143 243 l 1
 1287 64 1315 76 1350 67 c 0
 1365 64 1385 53 1385 31 c 0
 1385 16 1369 -4 1327 -4 c 0
 1296 -4 1250 0 1172 0 c 0
 1158 0 1059 -4 1030 -4 c 0
 1004 -4 977 7 977 28 c 0
 977 89 1072 47 1072 102 c 0
 1072 155 893 366 863 405 c 1
 789 329 l 1
 793 82 779 78 895 68 c 0
 917 66 941 53 941 31 c 0
 941 16 926 -4 884 -4 c 0
 821 -4 786 0 728 0 c 0
 694 0 639 -4 602 -4 c 0
 576 -4 549 7 549 28 c 0
 549 64 577 63 594 67 c 0
 651 82 651 93 651 177 c 2
 656 1244 l 1
 592 1254 540 1321 479 1321 c 0
 402 1321 340 1190 323 1072 c 0
 311 989 310 913 310 894 c 2
 310 835 l 1
 514 835 l 2
 527 835 536 828 536 797 c 0
 536 758 531 736 508 736 c 2
 309 736 l 1
 309 200 l 2
 309 101 332 83 365 78 c 0
 397 73 452 81 452 38 c 0
 452 5 432 -3 398 -3 c 0
 362 -3 311 6 250 6 c 0
 194 6 137 -5 96 -5 c 0
 60 -5 35 4 35 36 c 0
 35 77 80 76 96 77 c 2
 136 79 l 2
 169 81 170 94 171 128 c 0
 175 315 178 145 178 736 c 1
 49 737 l 2
 36 737 28 741 28 778 c 0
EndSplineSet
Ligature2: "liga subtable" f k
LCarets2: 1 0 
EndChar

StartChar: f_f_b
Encoding: 65548 -1 67
Width: 1959
VWidth: 0
Flags: HW
HStem: -36 21G<1117.5 1140.5> -12 75<1295.11 1609.58> 1 78<312.459 449.862 497.289 631.853 781.057 913.841> 739 91<18.032 179 315 640 772 997.896> 741 120<1340.69 1601.64> 1298 93<441.912 636.599> 1321 95<871.072 1079.5>
VStem: 165 143<92.8123 149 830 1248> 640 131<80.6172 739 830 1144.31> 1092 156<103.107 501.286> 1108 140<501.286 692.909 730 1263.21> 1759 143<244.275 572.128>
LayerCount: 3
Fore
SplineSet
18 786 m 0
 18 823 29 830 42 830 c 2
 183 830 l 1
 183 1184 376 1391 630 1391 c 0xb5b0
 737 1391 808 1329 808 1329 c 1
 836 1350 914 1416 1054 1416 c 0x83b0
 1105 1416 1169 1386 1169 1386 c 1
 1169 1386 1200 1418 1215 1418 c 0
 1251 1418 1254 1379 1254 1357 c 2
 1254 1334 l 2
 1254 1252 1253 968 1244 730 c 1
 1260 745 1332 861 1510 861 c 0
 1705 861 1902 728 1902 450 c 0
 1902 252 1788 -12 1438 -12 c 0
 1328 -12 1260 5 1201 5 c 0
 1158 5 1154 -36 1127 -36 c 0
 1108 -36 1092 -28 1092 5 c 0xcbd0
 1092 26 1108 498 1108 969 c 0
 1108 1050 1116 1244 1116 1244 c 1
 1052 1254 1002 1321 941 1321 c 0xcbb0
 864 1321 802 1190 785 1072 c 0
 773 989 772 913 772 894 c 2
 772 830 l 1
 976 830 l 2
 989 830 998 823 998 792 c 0
 998 753 993 739 970 739 c 2
 771 739 l 1
 771 200 l 2
 771 101 794 83 827 78 c 0
 859 73 914 81 914 38 c 0
 914 5 894 -3 860 -3 c 0
 824 -3 773 6 712 6 c 0
 656 6 599 -5 558 -5 c 0
 522 -5 497 4 497 36 c 0
 497 77 542 76 558 77 c 2
 598 79 l 2
 631 81 632 94 633 128 c 0
 637 315 640 148 640 739 c 1
 315 739 l 1
 312 546 308 489 308 445 c 2
 308 272 l 2
 308 216 309 177 309 149 c 0
 309 82 336 86 404 79 c 0
 439 75 450 58 450 36 c 0
 450 21 429 1 387 1 c 0
 346 1 289 6 226 6 c 0
 187 6 137 -1 97 -1 c 0
 54 -1 22 7 22 40 c 0
 22 126 165 41 165 158 c 0
 165 461 179 415 179 739 c 1
 42 739 l 2
 29 739 18 752 18 786 c 0
315 830 m 1
 640 830 l 1x9590
 641 848 640 857 642 921 c 0
 648 1091 711 1213 711 1213 c 1
 611 1268 566 1298 510 1298 c 0
 456 1298 315 1248 315 830 c 1
1248 245 m 2xc9d0
 1248 124 1280 63 1446 63 c 0
 1664 63 1759 213 1759 372 c 0
 1759 584 1639 741 1441 741 c 0
 1376 741 1333 721 1304 702 c 0
 1249 665 1248 607 1248 455 c 2
 1248 245 l 2xc9d0
EndSplineSet
Ligature2: "liga subtable" f f b
LCarets2: 2 0 0 
EndChar

StartChar: f_f_h
Encoding: 65549 -1 68
Width: 2024
VWidth: 870
Flags: HW
HStem: 1 78<312.459 449.862 497.289 631.853 781.057 913.841 948.431 1100.21 1835.62 1928.43> 738 118<1343.97 1575.6> 739 91<18.032 179 315 640 772 997.896> 1298 93<441.912 636.599> 1321 95<871.072 1079.5>
VStem: 165 143<92.8123 149 830 1248> 640 131<80.6172 739 830 1144.31> 1113 145<84.3171 675.909 703 1261.71> 1685 143<82.2504 616.527>
LayerCount: 3
Fore
SplineSet
18 786 m 0
 18 823 29 830 42 830 c 2
 183 830 l 1
 183 1184 376 1391 630 1391 c 0xb780
 737 1391 808 1329 808 1329 c 1
 836 1350 914 1416 1054 1416 c 0
 1105 1416 1169 1386 1169 1386 c 1
 1169 1386 1202 1418 1217 1418 c 0x8f80
 1258 1418 1258 1394 1258 1372 c 2
 1258 1372 1251 771 1249 703 c 1
 1293 765 1335 856 1514 856 c 0
 1588 856 1771 818 1816 560 c 0
 1826 500 1825 355 1828 271 c 0
 1833 89 1820 82 1917 78 c 0
 1957 76 1973 61 1973 30 c 0
 1973 -13 1949 -14 1929 -14 c 0
 1918 -14 1831 2 1734 2 c 0
 1646 2 1589 -6 1569 -6 c 0
 1542 -6 1518 2 1518 33 c 0
 1518 81 1568 74 1628 80 c 0
 1675 84 1685 99 1685 310 c 0
 1685 574 1643 652 1556 708 c 0
 1523 730 1486 738 1450 738 c 0
 1262 738 1258 600 1258 417 c 2
 1258 359 l 2
 1258 278 1259 235 1259 195 c 0
 1259 100 1261 82 1325 77 c 0
 1365 74 1418 76 1418 35 c 0
 1418 -8 1397 -9 1377 -9 c 0
 1339 -9 1277 6 1180 6 c 0
 1077 6 1001 -2 984 -2 c 0
 970 -2 948 -1 948 32 c 0
 948 75 972 79 1003 79 c 0
 1109 79 1113 82 1113 295 c 0
 1113 654 1118 349 1118 1244 c 1
 1054 1254 1002 1321 941 1321 c 0xcf80
 864 1321 802 1190 785 1072 c 0
 773 989 772 913 772 894 c 2
 772 830 l 1
 976 830 l 2
 989 830 998 823 998 792 c 0
 998 753 993 739 970 739 c 2
 771 739 l 1
 771 200 l 2
 771 101 794 83 827 78 c 0
 859 73 914 81 914 38 c 0
 914 5 894 -3 860 -3 c 0
 824 -3 773 6 712 6 c 0
 656 6 599 -5 558 -5 c 0
 522 -5 497 4 497 36 c 0
 497 77 542 76 558 77 c 2
 598 79 l 2
 631 81 632 94 633 128 c 0
 637 315 640 148 640 739 c 1
 315 739 l 1
 312 546 308 489 308 445 c 2
 308 272 l 2
 308 216 309 177 309 149 c 0
 309 82 336 86 404 79 c 0
 439 75 450 58 450 36 c 0
 450 21 429 1 387 1 c 0
 346 1 289 6 226 6 c 0
 187 6 137 -1 97 -1 c 0
 54 -1 22 7 22 40 c 0
 22 126 165 41 165 158 c 0
 165 461 179 415 179 739 c 1
 42 739 l 2
 29 739 18 752 18 786 c 0
315 830 m 1
 640 830 l 1xb780
 641 848 640 857 642 921 c 0
 648 1091 711 1213 711 1213 c 1
 611 1268 566 1298 510 1298 c 0
 456 1298 315 1248 315 830 c 1
EndSplineSet
Ligature2: "liga subtable" f f h
LCarets2: 2 0 0 
EndChar

StartChar: f_f_k
Encoding: 65550 -1 69
Width: 1924
VWidth: 0
Flags: HW
HStem: -4 71<319.14 449.246 497.29 631.086 787.563 913.637 1010.18 1107.23 1264.62 1401.98 1736.69 1845.99> 739 91<18.032 179 315 640 772 997.896 1612.38 1799.97> 1298 93<441.912 636.599> 1321 95<871.072 1079.5>
VStem: 165 143<92.8123 149 830 1248> 640 131<80.6172 739 830 1144.31> 1112 138<77.2483 329 432 1261.71> 1505 297<702.5 810.5>
LayerCount: 3
Fore
SplineSet
18 786 m 0
 18 823 29 830 42 830 c 2
 183 830 l 1
 183 1184 376 1391 630 1391 c 0xef
 737 1391 808 1329 808 1329 c 1
 836 1350 914 1416 1054 1416 c 0
 1105 1416 1169 1386 1169 1386 c 1
 1169 1386 1202 1418 1217 1418 c 0xdf
 1253 1418 1255 1384 1255 1364 c 2
 1248 432 l 1
 1392 583 1505 683 1505 722 c 0
 1505 775 1415 754 1415 799 c 0
 1415 807 1419 827 1469 827 c 0
 1483 827 1509 823 1603 823 c 0
 1691 823 1734 827 1750 827 c 0
 1780 827 1802 824 1802 797 c 0
 1802 758 1768 766 1695 747 c 0
 1646 734 1563 653 1499 587 c 2
 1407 492 l 1
 1604 243 l 1
 1748 64 1776 76 1811 67 c 0
 1826 64 1846 53 1846 31 c 0
 1846 16 1830 -4 1788 -4 c 0
 1757 -4 1711 0 1633 0 c 0
 1619 0 1520 -4 1491 -4 c 0
 1465 -4 1438 7 1438 28 c 0
 1438 89 1533 47 1533 102 c 0
 1533 155 1354 366 1324 405 c 1
 1250 329 l 1
 1254 82 1240 78 1356 68 c 0
 1378 66 1402 53 1402 31 c 0
 1402 16 1387 -4 1345 -4 c 0
 1282 -4 1247 0 1189 0 c 0
 1155 0 1100 -4 1063 -4 c 0
 1037 -4 1010 7 1010 28 c 0
 1010 64 1038 63 1055 67 c 0
 1112 82 1112 93 1112 177 c 2
 1118 1244 l 1
 1054 1254 1002 1321 941 1321 c 0xdf
 864 1321 802 1190 785 1072 c 0
 773 989 772 913 772 894 c 2
 772 830 l 1
 976 830 l 2
 989 830 998 823 998 792 c 0
 998 753 993 739 970 739 c 2
 771 739 l 1
 771 200 l 2
 771 101 794 83 827 78 c 0
 859 73 914 81 914 38 c 0
 914 5 894 -3 860 -3 c 0
 824 -3 773 6 712 6 c 0
 656 6 599 -5 558 -5 c 0
 522 -5 497 4 497 36 c 0
 497 77 542 76 558 77 c 2
 598 79 l 2
 631 81 632 94 633 128 c 0
 637 315 640 148 640 739 c 1
 315 739 l 1
 312 546 308 489 308 445 c 2
 308 272 l 2
 308 216 309 177 309 149 c 0
 309 82 336 86 404 79 c 0
 439 75 450 58 450 36 c 0
 450 21 429 1 387 1 c 0
 346 1 289 6 226 6 c 0
 187 6 137 -1 97 -1 c 0
 54 -1 22 7 22 40 c 0
 22 126 165 41 165 158 c 0
 165 461 179 415 179 739 c 1
 42 739 l 2
 29 739 18 752 18 786 c 0
315 830 m 1
 640 830 l 1
 641 848 640 857 642 921 c 0
 648 1091 711 1213 711 1213 c 1
 611 1268 566 1298 510 1298 c 0xef
 456 1298 315 1248 315 830 c 1
EndSplineSet
Ligature2: "liga subtable" f f k
LCarets2: 2 0 0 
EndChar

StartChar: comma
Encoding: 44 44 70
Width: 468
VWidth: 0
Flags: W
HStem: -268 84<104.378 241.864> 0 228<118.598 272.951>
VStem: 278 114<-146.063 60>
LayerCount: 3
Fore
SplineSet
91 115 m 0
 91 179 150 228 216 228 c 0
 338 228 392 120 392 0 c 0
 392 -137 276 -268 164 -268 c 0
 124 -268 103 -240 103 -216 c 0
 103 -199 114 -184 138 -184 c 0
 225 -184 278 -124 278 -69 c 0
 278 -37 266 -6 225 0 c 0
 141 13 91 48 91 115 c 0
EndSplineSet
EndChar

StartChar: A.open
Encoding: 65551 -1 71
Width: 1739
VWidth: -15
Flags: HMW
HStem: -12 54<415.053 559.451> 6 58<1131.51 1272.79 1293.03 1447.69 1537.61 1700.86> 637 75<610.408 1070.34> 1197 42<841.624 880.234> 1315 103<872.239 919.603>
LayerCount: 3
Back
SplineSet
840 1232 m 5
 840 1232 844 1234 854 1234 c 4
 899 1234 917 1177 999 985 c 5
 1129 672 l 6
 1209 479 1323 220 1323 137 c 4
 1323 97 1292 56 1292 56 c 5
 1314 59 1338 59 1361 59 c 4
 1390 59 1421 58 1449 56 c 5
 1449 56 1423 84 1401 139 c 6
 1318 344 l 6
 1108 862 1034 1039 942 1222 c 5
 902 1300 l 6
 897 1309 894 1310 890 1310 c 4
 885 1310 878 1300 875 1294 c 6
 840 1232 l 5
861 1192 m 4
 825 1192 609 723 609 719 c 4
 609 708 625 707 651 707 c 4
 703 707 774 705 837 705 c 4
 925 705 889 703 1029 703 c 4
 1057 703 1072 705 1072 715 c 4
 1072 720 1070 728 1066 740 c 6
 1028 832 l 6
 933 1062 883 1192 861 1192 c 4
659 963 m 5
 777 1200 840 1319 880 1381 c 4
 894 1403 906 1413 916 1413 c 4
 936 1413 952 1378 978 1328 c 4
 1044 1201 1250 722 1260 698 c 6
 1488 151 l 6
 1518 79 1581 57 1666 57 c 4
 1680 57 1701 50 1701 34 c 4
 1701 -1 1683 -6 1640 -6 c 4
 1594 -6 1519 1 1407 1 c 4
 1315 1 1211 -10 1177 -10 c 4
 1157 -10 1130 -8 1130 21 c 4
 1130 47 1156 50 1178 50 c 6
 1186 50 l 6
 1229 50 1286 52 1286 156 c 4
 1286 182 1266 234 1216 365 c 6
 1132 586 l 6
 1117 625 1105 630 979 630 c 4
 943 630 677 632 622 632 c 4
 556 632 559 624 525 556 c 4
 490 486 361 177 361 120 c 4
 361 46 529 47 546 37 c 4
 554 33 560 24 560 16 c 4
 560 9 558 -17 518 -17 c 4
 450 -17 382 -11 306 -11 c 4
 98 -11 71 -20 45 -20 c 4
 34 -20 16 -17 16 7 c 4
 16 69 102 13 184 84 c 4
 260 151 302 234 406 450 c 5
 659 963 l 5
EndSplineSet
Fore
SplineSet
16 12 m 0
 16 74 102 18 184 89 c 0
 260 156 301 242 406 455 c 2
 659 968 l 2
 776 1204 840 1324 880 1386 c 0
 894 1408 906 1418 916 1418 c 0
 936 1418 952 1383 978 1333 c 0
 1044 1206 1250 727 1260 703 c 2
 1488 156 l 2
 1518 84 1581 62 1666 62 c 0
 1680 62 1701 55 1701 39 c 0
 1701 4 1683 -1 1640 -1 c 0
 1594 -1 1519 6 1407 6 c 0
 1315 6 1211 -5 1177 -5 c 0
 1157 -5 1130 -3 1130 26 c 0
 1130 52 1156 55 1178 55 c 2
 1186 55 l 2
 1229 55 1286 57 1286 161 c 0
 1286 187 1266 239 1216 370 c 2
 1132 591 l 2
 1117 630 1105 635 979 635 c 0
 943 635 677 637 622 637 c 0
 556 637 559 629 525 561 c 0
 490 491 361 182 361 125 c 0
 361 51 529 52 546 42 c 0
 554 38 560 29 560 21 c 0
 560 14 558 -12 518 -12 c 0
 450 -12 382 -6 306 -6 c 0
 98 -6 71 -15 45 -15 c 0
 34 -15 16 -12 16 12 c 0
609 724 m 0
 609 713 625 712 651 712 c 0
 703 712 774 710 837 710 c 0
 925 710 889 708 1029 708 c 0
 1057 708 1072 710 1072 720 c 0
 1072 725 1070 733 1066 745 c 2
 1028 837 l 2
 933 1067 883 1197 861 1197 c 0
 825 1197 609 728 609 724 c 0
840 1237 m 1
 840 1237 844 1239 854 1239 c 0
 899 1239 919 1182 999 990 c 2
 1129 677 l 2
 1209 484 1323 225 1323 142 c 0
 1323 102 1292 61 1292 61 c 1
 1314 64 1338 64 1361 64 c 0
 1390 64 1421 63 1449 61 c 1
 1449 61 1423 89 1401 144 c 2
 1318 349 l 2
 1108 867 1040 1035 942 1227 c 2
 902 1305 l 2
 897 1314 894 1315 890 1315 c 0
 885 1315 878 1305 875 1299 c 2
 840 1237 l 1
EndSplineSet
EndChar

StartChar: B.open
Encoding: 65552 -1 72
Width: 1178
VWidth: 0
Flags: H
HStem: -10 90<24.1673 214.438 427.196 799.878> 721 65<410.045 738.765> 1288 104<29.4375 228.612 410 725.371>
VStem: 238 172<103.791 720.995 786 1279.39> 860 198<916.742 1174.99> 960 176<235.161 555.859>
LayerCount: 3
Fore
SplineSet
24 42 m 0xf4
 24 55 36 90 74 90 c 0
 94 90 125 92 145 92 c 0
 199 92 223 121 225 157 c 0
 237 427 238 618 238 833 c 0
 238 972 235 1007 235 1181 c 0
 235 1257 225 1287 135 1287 c 2
 92 1287 l 2
 60 1287 28 1300 28 1338 c 0
 28 1348 36 1392 88 1392 c 0
 220 1392 292 1389 390 1389 c 0
 463 1389 534 1392 624 1392 c 0
 958 1392 1058 1189 1058 1080 c 0
 1058 862 860 770 860 770 c 1xf8
 860 770 1136 698 1136 420 c 0
 1136 -4 675 -10 642 -10 c 0
 576 -10 373 6 292 6 c 0
 224 6 140 -10 82 -10 c 0
 29 -10 24 12 24 42 c 0xf4
403 277 m 0
 403 116 412 80 606 80 c 0
 889 80 960 283 960 399 c 0xf4
 960 615 760 690 686 704 c 0
 635 714 561 721 454 721 c 0
 405 721 404 715 404 653 c 0
 404 578 403 615 403 277 c 0
410 816 m 2
 410 795 430 786 451 786 c 2
 512 786 l 2
 674 786 860 793 860 1036 c 0xf8
 860 1244 672 1288 466 1288 c 0
 418 1288 410 1273 410 1243 c 2
 410 816 l 2
EndSplineSet
EndChar

StartChar: C.open
Encoding: 65553 -1 73
Width: 1518
VWidth: -15
Flags: HW
HStem: -39 73<604.945 1010.19> 880 21G<1297.5 1315.5> 1203 75<1146.35 1247.59> 1354 63<570.978 924.515> 1369 20G<1266.5 1298.5>
VStem: 58 31<540.56 843.224> 144 106<400.764 964.862> 1286 56<882.477 1031.45>
LayerCount: 3
Back
SplineSet
1105 1240 m 5
 1164 1196 1244 1107 1275 1040 c 13
 1255 1190 l 21
 1250 1187 1244 1186 1237 1186 c 4
 1198 1186 1138 1228 1105 1240 c 5
386 1276 m 5
 376 1276 89 1066 89 676 c 4
 89 305 331 100 351 100 c 4
 352 100 353 101 353 102 c 4
 353 116 144 274 144 682 c 4
 144 1060 387 1264 387 1275 c 4
 387 1276 386 1276 386 1276 c 5
767 -56 m 4
 371 -56 58 221 58 654 c 4
 58 846 107 1031 246 1191 c 4
 354 1316 521 1400 750 1400 c 4
 1027 1400 1190 1261 1220 1261 c 4
 1259 1261 1245 1372 1288 1372 c 4
 1309 1372 1314 1354 1314 1338 c 4
 1314 1277 1316 1297 1316 1270 c 4
 1316 1132 1342 1015 1342 929 c 4
 1342 899 1326 863 1305 863 c 4
 1290 863 1286 874 1286 886 c 6
 1286 904 l 6
 1286 970 1268 1003 1226 1068 c 4
 1142 1199 975 1337 744 1337 c 4
 597 1337 507 1287 432 1209 c 4
 290 1061 250 861 250 690 c 4
 250 136 586 17 810 17 c 4
 874 17 1102 25 1273 245 c 5
 1371 378 1346 478 1394 478 c 4
 1411 478 1419 469 1419 456 c 4
 1419 436 1414 457 1384 254 c 4
 1357 75 1374 68 1342 68 c 4
 1315 68 1312 116 1292 116 c 4
 1280 116 1126 -56 767 -56 c 4
EndSplineSet
Fore
SplineSet
58 671 m 0
 58 863 107 1048 246 1208 c 0
 354 1333 521 1417 750 1417 c 0xf7
 1027 1417 1190 1278 1220 1278 c 0
 1259 1278 1245 1389 1288 1389 c 0xef
 1309 1389 1314 1371 1314 1355 c 0
 1314 1294 1316 1314 1316 1287 c 0
 1316 1149 1342 1032 1342 946 c 0
 1342 916 1326 880 1305 880 c 0
 1290 880 1286 891 1286 903 c 2
 1286 921 l 2
 1286 987 1268 1020 1226 1085 c 0
 1142 1216 975 1354 744 1354 c 0xf7
 597 1354 507 1304 432 1226 c 0
 290 1078 250 878 250 707 c 0
 250 153 586 34 810 34 c 0
 874 34 1102 43 1273 262 c 0
 1366 381 1347 495 1394 495 c 0
 1411 495 1419 486 1419 473 c 0
 1419 453 1414 474 1384 271 c 0
 1357 92 1374 85 1342 85 c 0
 1315 85 1312 133 1292 133 c 0
 1280 133 1126 -39 767 -39 c 0
 371 -39 58 238 58 671 c 0
89 693 m 0
 89 322 331 117 351 117 c 0
 352 117 353 118 353 119 c 0
 353 133 144 291 144 699 c 0
 144 1077 387 1281 387 1292 c 0
 387 1293 386 1293 386 1293 c 1
 376 1293 89 1083 89 693 c 0
1105 1257 m 1xe7
 1164 1213 1244 1124 1275 1057 c 9
 1255 1207 l 17
 1250 1204 1244 1203 1237 1203 c 0
 1198 1203 1138 1245 1105 1257 c 1xe7
EndSplineSet
EndChar

StartChar: D.open
Encoding: 65554 -1 74
Width: 988
VWidth: 0
Flags: H
HStem: -28 21G<716.5 727> -10 122<355.852 621.343> 782 71<325.7 646.437> 1385 20G<816 846>
VStem: 40 148<285.649 625.828> 703 138<160.299 702.27> 708 152<822.882 1220.03>
LayerCount: 3
Fore
SplineSet
40 412 m 0x7c
 40 642 173 853 481 853 c 0
 617 853 708 814 708 814 c 1
 704 1202 l 2
 704 1228 555 1218 555 1270 c 0
 555 1299 611 1316 711 1356 c 0
 776 1382 801 1405 831 1405 c 0
 861 1405 869 1381 869 1346 c 0
 869 1312 861 1241 860 1203 c 0x7a
 855 948 841 653 841 223 c 0
 841 168 842 159 865 159 c 2
 915 159 l 2
 932 159 958 159 958 132 c 0
 958 89 860 78 757 -7 c 0
 741 -21 732 -28 722 -28 c 0xbc
 711 -28 701 -22 701 1 c 2
 701 124 l 1
 674 99 646 -10 456 -10 c 0
 260 -10 40 130 40 412 c 0x7c
188 466 m 0
 188 234 360 112 518 112 c 0
 672 112 702 174 703 339 c 2x7c
 705 676 l 2
 705 744 587 782 472 782 c 0
 276 782 188 647 188 466 c 0
EndSplineSet
EndChar

StartChar: E.open
Encoding: 65555 -1 75
Width: 1239
VWidth: 0
Flags: HW
HStem: 3 65<80.1879 262.887 273.048 436 494.803 983.649> 768 68<460.254 886.262> 1329 59<76.218 260.889 274.665 411.874 473.127 940.996>
VStem: 298 32<137.479 1268.1> 384 76<97.2572 767.859 839.375 1316.84> 906 57<546.942 748.2 858.315 1035.99>
LayerCount: 3
Fore
SplineSet
76 1364 m 0
 76 1383 95 1388 114 1388 c 2
 257 1388 l 2
 353 1388 545 1391 739 1391 c 0
 871 1391 1015 1395 1048 1395 c 0
 1061 1395 1069 1386 1071 1372 c 2
 1106 1124 l 2
 1108 1115 1108 1108 1108 1101 c 0
 1108 1078 1100 1070 1090 1070 c 0
 1060 1070 1074 1102 941 1302 c 0
 928 1321 931 1323 907 1323 c 0
 803 1325 750 1325 663 1325 c 2
 592 1325 l 2
 499 1325 460 1324 460 1247 c 2
 460 880 l 2
 460 840 463 836 604 836 c 0
 673 836 729 840 820 841 c 1
 888 843 893 870 899 926 c 0
 903 958 906 976 906 1006 c 0
 906 1026 918 1036 935 1036 c 0
 953 1036 963 1023 963 994 c 0
 963 918 959 866 959 792 c 0
 959 624 967 597 967 575 c 0
 967 562 960 545 947 545 c 0
 914 545 915 571 908 633 c 0
 898 722 895 765 828 765 c 2
 489 768 l 2
 470 768 457 755 457 736 c 2
 457 649 l 2
 457 592 458 586 462 297 c 0
 464 126 471 74 578 74 c 0
 992 74 982 96 990 107 c 0
 1008 131 1028 175 1071 240 c 0
 1142 348 1150 356 1170 356 c 0
 1184 356 1188 343 1188 336 c 0
 1188 318 1139 177 1107 18 c 0
 1104 4 1094 2 1079 2 c 2
 1054 2 l 2
 928 2 483 3 353 3 c 0
 264 3 204 -4 116 -4 c 0
 90 -4 79 9 79 27 c 0
 79 48 96 60 115 60 c 2
 146 60 l 2
 244 60 297 82 297 254 c 0
 297 375 298 655 298 883 c 2
 298 1071 l 2
 298 1283 298 1329 134 1329 c 2
 122 1329 l 2
 80 1329 76 1347 76 1364 c 0
273 64 m 1
 273 64 339 68 358 68 c 0
 379 68 436 67 436 67 c 1
 390 99 385 153 385 203 c 0
 385 303 384 203 384 1204 c 2
 384 1215 l 2
 384 1321 413 1331 413 1331 c 1
 389 1327 364 1327 341 1327 c 0
 314 1327 288 1329 274 1331 c 1
 294 1319 329 1270 329 1160 c 0
 329 977 330 1038 330 550 c 2
 330 455 l 2
 330 358 329 186 319 135 c 0
 307 76 273 64 273 64 c 1
EndSplineSet
EndChar

StartChar: F.open
Encoding: 65556 -1 76
Width: 1239
VWidth: 0
Flags: HW
HStem: 3 65<137.896 304.573 317.406 474.876 545.98 783.987> 768 70<500.178 936.541> 1325 65<104.332 305.925 317.665 454.874 502.638 1004>
VStem: 342 35<138.302 1257.84> 430 70<114.013 768 838.023 1319.91> 964 58<549.956 743.624 871.297 1031.96>
LayerCount: 3
Fore
SplineSet
104 1364 m 0
 104 1383 121 1396 140 1396 c 0
 201 1396 253 1390 300 1390 c 0
 396 1390 588 1394 782 1394 c 0
 914 1394 1080 1403 1113 1403 c 0
 1126 1403 1130 1386 1132 1372 c 2
 1171 1124 l 2
 1173 1106 1173 1099 1173 1093 c 0
 1173 1082 1162 1078 1151 1078 c 0
 1121 1078 1137 1100 1004 1300 c 0
 991 1319 992 1326 968 1326 c 0
 864 1328 793 1328 706 1328 c 2
 642 1328 l 2
 544 1328 500 1325 500 1274 c 0
 500 1134 499 1046 499 900 c 0
 499 869 500 838 531 838 c 0
 669 838 726 844 864 844 c 0
 915 844 964 858 964 989 c 2
 964 1002 l 2
 964 1022 977 1032 994 1032 c 0
 1012 1032 1022 1019 1022 990 c 0
 1022 914 1018 866 1018 792 c 0
 1018 666 1030 606 1030 578 c 0
 1030 564 1019 548 1005 548 c 0
 954 548 966 625 957 689 c 0
 951 733 927 771 876 771 c 2
 532 768 l 2
 513 768 500 755 500 736 c 0
 500 564 500 682 506 297 c 0
 508 138 513 68 655 68 c 0
 686 68 720 69 750 69 c 0
 767 69 784 54 784 36 c 0
 784 9 766 -6 735 -6 c 0
 609 -6 526 3 396 3 c 0
 307 3 270 -3 182 -3 c 0
 156 -3 137 10 137 28 c 0
 137 52 157 64 176 64 c 0
 271 64 341 70 341 254 c 0
 341 283 342 336 342 416 c 0
 342 872 336 1093 336 1168 c 0
 336 1313 288 1329 162 1329 c 2
 150 1329 l 2
 108 1329 104 1347 104 1364 c 0
316 64 m 1
 346 66 375 68 405 68 c 0
 429 68 452 68 476 64 c 1
 466 73 432 65 430 272 c 0
 427 583 422 1174 422 1205 c 0
 422 1322 456 1331 456 1331 c 1
 432 1327 407 1325 384 1325 c 0
 357 1325 331 1328 317 1330 c 1
 337 1318 370 1282 370 1160 c 0
 370 866 377 308 377 279 c 0
 377 83 320 67 316 64 c 1
EndSplineSet
EndChar

StartChar: G.open
Encoding: 65557 -1 77
Width: 901
VWidth: 0
Flags: H
HStem: -495 83<284.364 678.899> 221 89<295.623 515.958> 731 178<714.057 828.679> 797 74<281.117 489.623>
VStem: 47 112<-320.291 -130.455> 58 148<407.142 705.647> 66 112<67.405 186.02> 576 156<397.079 712.262> 746 116<-357.285 -161.012>
LayerCount: 3
Fore
SplineSet
47 -247 m 0xe980
 47 -107 198 -60 198 -60 c 1
 198 -60 66 -5 66 85 c 0xe380
 66 185 209 273 209 273 c 1
 209 273 58 360 58 548 c 0
 58 685 166 871 389 871 c 0xd580
 550 871 559 816 642 816 c 0
 723 816 707 909 770 909 c 0
 812 909 841 865 841 828 c 0
 841 751 784 731 750 731 c 0
 721 731 671 742 668 743 c 1
 668 743 732 678 732 566 c 0
 732 366 562 221 403 221 c 0
 337 221 300 237 274 237 c 0
 255 237 178 170 178 127 c 0xe380
 178 68 273 29 422 29 c 0
 497 29 548 34 592 34 c 0
 729 34 862 -40 862 -214 c 0
 862 -324 802 -495 460 -495 c 0
 98 -495 47 -339 47 -247 c 0xe980
159 -228 m 0xc980
 159 -351 339 -412 498 -412 c 0
 746 -412 746 -286 746 -248 c 0
 746 -88 504 -130 320 -98 c 0
 277 -91 234 -76 234 -76 c 1
 234 -76 159 -103 159 -228 c 0xc980
206 598 m 0xd580
 206 346 355 310 418 310 c 0
 481 310 576 362 576 520 c 0
 576 664 521 797 386 797 c 0
 278 797 206 713 206 598 c 0xd580
EndSplineSet
EndChar

StartChar: H.open
Encoding: 65558 -1 78
Width: 1579
VWidth: 0
Flags: HW
HStem: 4 60<76.7314 235.216 248.992 391.475 459.381 627.61 991.657 1272.67 1359.5 1529.05> 773 75<426.311 1175> 1330 50<238.802 373 1163.22 1285.34>
VStem: 263 32<115.727 1081.87> 348 78<89.918 772.938 848.016 1309.02> 1175 35<102.403 659.981> 1258 78<83.4895 1304.15>
LayerCount: 3
Fore
SplineSet
63 1370 m 0
 63 1389 78 1390 97 1390 c 2
 108 1390 l 2
 147 1390 249 1378 313 1378 c 0
 461 1378 512 1386 566 1386 c 0
 617 1386 618 1377 618 1364 c 2
 618 1361 l 2
 618 1331 613 1338 528 1328 c 0
 431 1317 421 1286 421 1086 c 0
 421 1048 422 1029 423 895 c 0
 423 853 424 848 468 848 c 2
 1146 846 l 2
 1173 846 1175 849 1175 878 c 2
 1175 1120 l 2
 1175 1323 1162 1325 1066 1332 c 0
 1007 1336 998 1333 998 1370 c 0
 998 1389 1013 1390 1032 1390 c 2
 1043 1390 l 2
 1082 1390 1164 1380 1228 1380 c 0
 1376 1380 1434 1396 1488 1396 c 0
 1510 1396 1524 1388 1524 1378 c 0
 1524 1330 1499 1344 1435 1329 c 0
 1339 1306 1334 1272 1334 1105 c 0
 1334 898 1336 690 1336 414 c 2
 1336 336 l 2
 1336 289 1335 250 1335 218 c 0
 1335 74 1348 78 1492 65 c 0
 1515 63 1530 64 1530 48 c 2
 1530 30 l 2
 1530 16 1526 1 1505 1 c 0
 1479 1 1398 6 1275 6 c 0
 1226 6 1133 -4 1033 -4 c 0
 1008 -4 991 3 991 26 c 0
 991 55 1010 60 1029 60 c 0
 1132 60 1162 89 1167 131 c 0
 1170 159 1179 173 1179 412 c 0
 1179 477 1175 639 1175 736 c 0
 1175 767 1173 769 1137 769 c 2
 456 773 l 2
 429 773 426 764 426 743 c 2
 426 336 l 2
 426 73 430 80 590 64 c 0
 613 62 628 46 628 30 c 0
 628 13 616 -4 566 -4 c 0
 453 -4 492 4 369 4 c 0
 320 4 222 -10 122 -10 c 0
 97 -10 76 3 76 26 c 0
 76 55 95 60 114 60 c 0
 128 60 124 59 148 59 c 0
 249 59 252 132 252 145 c 0
 252 171 263 153 263 791 c 0
 263 1324 261 1311 130 1326 c 2
 86 1331 l 2
 63 1333 63 1343 63 1370 c 0
238 1326 m 1
 291 1294 295 1269 295 713 c 2
 295 305 l 2
 295 232 295 149 286 118 c 0
 271 66 248 58 248 58 c 1
 269 62 301 64 331 64 c 0
 357 64 381 63 392 60 c 1
 360 79 348 114 348 199 c 2
 348 289 l 2
 348 1055 342 830 342 1190 c 2
 342 1201 l 2
 342 1304 373 1325 373 1325 c 1
 352 1324 329 1323 304 1323 c 0
 279 1323 255 1324 238 1326 c 1
1143 56 m 1
 1164 60 1216 64 1246 64 c 0
 1272 64 1280 64 1291 61 c 1
 1259 80 1258 114 1258 199 c 2
 1258 289 l 2
 1258 1055 1255 830 1255 1190 c 2
 1255 1201 l 2
 1255 1326 1286 1332 1286 1332 c 1
 1272 1331 1254 1330 1235 1330 c 0
 1213 1330 1188 1331 1162 1334 c 1
 1225 1296 1200 1273 1210 305 c 0
 1210 248 1209 153 1199 118 c 0
 1184 66 1143 56 1143 56 c 1
EndSplineSet
EndChar

StartChar: I.open
Encoding: 65559 -1 79
Width: 658
VWidth: 0
Flags: HW
HStem: 6 55<49.1253 227.625 248.713 391.104 454.192 612.202> 1322 53<74.5705 144 240.552 391.388 449.293 609.589>
VStem: 258 34<249.51 1275.62> 348 76<81.9106 1306.38>
LayerCount: 3
Fore
SplineSet
48 23 m 0
 48 52 68 59 86 59 c 2
 96 59 l 2
 149 59 200 60 229 87 c 0
 255 112 256 100 256 621 c 2
 256 788 l 2
 256 892 258 975 258 1042 c 0
 258 1310 248 1313 144 1323 c 2
 114 1326 l 2
 91 1328 72 1341 72 1359 c 0
 72 1377 91 1386 113 1386 c 0
 152 1386 249 1375 313 1375 c 0
 533 1375 512 1383 566 1383 c 0
 598 1383 611 1379 611 1359 c 0
 611 1326 584 1333 524 1325 c 0
 426 1312 424 1287 424 1102 c 2
 424 1032 l 2
 424 845 426 822 426 239 c 0
 426 72 435 77 576 55 c 0
 599 51 614 41 614 25 c 0
 614 8 616 -7 566 -7 c 0
 453 -7 447 6 324 6 c 0
 275 6 188 -3 88 -3 c 0
 63 -3 48 0 48 23 c 0
239 1334 m 1
 277 1311 292 1291 292 1065 c 0
 292 991 291 894 291 769 c 2
 289 258 l 2
 289 198 288 138 280 113 c 0
 266 67 248 56 248 56 c 1
 263 59 291 61 320 61 c 0
 346 61 373 59 392 54 c 1
 358 74 345 111 345 196 c 2
 348 1197 l 2
 348 1300 392 1325 392 1325 c 1
 379 1323 363 1322 348 1322 c 0
 312 1322 272 1326 239 1334 c 1
EndSplineSet
EndChar

StartChar: J.open
Encoding: 65560 -1 80
Width: 627
VWidth: 0
Flags: H
HStem: -424 148<67.8517 238.288> 865 20G<414.5 434.5> 1106 178<339.908 494.916>
VStem: 302 150<-180.947 830> 329 180<1120 1272.38>
LayerCount: 3
Fore
SplineSet
14 -349 m 4xf0
 14 -293 88 -248 109 -248 c 4
 155 -248 173 -276 215 -276 c 4
 277 -276 300 -179 300 -21 c 4
 300 87 302 174 302 685 c 4
 302 705 166 711 166 741 c 4
 166 782 196 778 296 823 c 4
 358 851 403 885 426 885 c 4
 443 885 452 865 452 830 c 4
 452 334 445 149 445 -74 c 4
 445 -118 406 -198 368 -241 c 4
 222 -405 206 -424 121 -424 c 4
 62 -424 14 -386 14 -349 c 4xf0
329 1194 m 4xe8
 329 1254 374 1284 420 1284 c 4
 464 1284 509 1259 509 1199 c 4
 509 1145 464 1106 420 1106 c 4
 360 1106 329 1148 329 1194 c 4xe8
EndSplineSet
EndChar

StartChar: K.open
Encoding: 65561 -1 81
Width: 938
VWidth: 0
HStem: -4 71<50.1806 147.227 304.619 441.983 776.691 885.985> 747 80<668.326 840.773> 1386 20G<255 278.5>
VStem: 152 138<77.2483 329 432 1268.1> 545 297<702.5 810.5>
LayerCount: 3
Fore
SplineSet
49 1312 m 0
 49 1333 83 1344 94 1347 c 2
 94 1347 243 1406 267 1406 c 0
 290 1406 295 1384 295 1364 c 2
 288 432 l 1
 432 583 545 683 545 722 c 0
 545 775 455 754 455 799 c 0
 455 807 459 827 509 827 c 0
 523 827 549 823 643 823 c 0
 731 823 774 827 790 827 c 0
 820 827 842 824 842 797 c 0
 842 758 808 766 735 747 c 0
 686 734 603 653 539 587 c 2
 447 492 l 1
 644 243 l 1
 788 64 816 76 851 67 c 0
 866 64 886 53 886 31 c 0
 886 16 870 -4 828 -4 c 0
 797 -4 751 0 673 0 c 0
 659 0 560 -4 531 -4 c 0
 505 -4 478 7 478 28 c 0
 478 89 573 47 573 102 c 0
 573 155 394 366 364 405 c 1
 290 329 l 1
 294 82 280 78 396 68 c 0
 418 66 442 53 442 31 c 0
 442 16 427 -4 385 -4 c 0
 322 -4 287 0 229 0 c 0
 195 0 140 -4 103 -4 c 0
 77 -4 50 7 50 28 c 0
 50 64 78 63 95 67 c 0
 152 82 152 93 152 177 c 2
 157 1216 l 2
 157 1265 49 1281 49 1312 c 0
EndSplineSet
EndChar

StartChar: L.open
Encoding: 65562 -1 82
Width: 1187
VWidth: 0
Flags: HW
HStem: -2 74<248.992 391.475 451.324 965.996> -2 61<66.0436 227.901> 1327 54<34.9922 233.377 233.669 386.867 460.091 652.781>
VStem: 264 31<118.891 1086.08> 350 76<97.6594 1302.68>
LayerCount: 3
Fore
SplineSet
34 1363 m 0
 34 1385 56 1386 80 1386 c 0
 119 1386 188 1381 304 1381 c 0
 452 1381 539 1395 593 1395 c 0
 646 1395 656 1384 656 1365 c 0
 656 1349 640 1334 594 1332 c 2
 545 1330 l 2
 437 1326 419 1271 419 1039 c 0
 419 901 426 703 426 418 c 2
 426 340 l 2
 426 82 433 77 591 77 c 2
 611 77 l 2
 699 77 787 81 875 83 c 0
 955 85 951 84 966 107 c 0
 1122 356 1116 362 1137 362 c 0
 1151 362 1156 351 1156 344 c 0
 1156 326 1110 168 1094 15 c 0
 1093 3 1082 -2 1065 -2 c 0
 787 1 656 3 581 3 c 0
 431 3 509 -2 102 -2 c 0
 77 -2 66 7 66 30 c 0
 66 51 81 58 100 59 c 0x78
 235 67 264 74 264 254 c 0
 264 330 266 468 266 616 c 0
 266 705 265 797 263 883 c 2
 258 1071 l 2
 255 1162 266 1261 218 1301 c 0
 188 1327 136 1329 102 1329 c 2
 79 1329 l 2
 55 1329 34 1336 34 1363 c 0
233 1331 m 1xb8
 286 1299 295 1273 295 717 c 2
 295 309 l 2
 295 236 294 166 286 135 c 0
 271 77 248 66 248 66 c 1
 269 70 301 72 331 72 c 0
 357 72 381 71 392 68 c 1
 360 87 350 153 350 203 c 2
 350 293 l 2
 350 1059 342 834 342 1194 c 2
 342 1205 l 2
 342 1308 388 1331 388 1331 c 1
 364 1327 329 1327 306 1327 c 0
 279 1327 247 1329 233 1331 c 1xb8
EndSplineSet
EndChar

StartChar: M.open
Encoding: 65563 -1 83
Width: 1436
VWidth: 0
HStem: -2 77<69.078 181.957 330.4 470.771 514.084 657.065 818.486 966.922 1023.55 1154.83 1317.56 1436.81> 750 112<413.661 607.012 877.203 1080.7> 861 20G<290.5 310.5>
VStem: 185 142<80.0975 688.656> 669 143<83.9813 682.422> 1163 149<86.6203 653.206>
LayerCount: 3
Fore
SplineSet
69 34 m 0xdc
 69 70 96 76 113 77 c 0
 183 81 184 81 185 177 c 2
 188 634 l 2
 188 672 174 674 142 688 c 2
 94 709 l 2
 78 716 71 726 71 738 c 0
 71 781 116 786 185 824 c 0
 233 850 280 881 301 881 c 0xbc
 320 881 327 864 327 854 c 2
 327 727 l 1
 342 741 414 862 540 862 c 0
 716 862 785 720 785 720 c 1
 785 720 864 858 1003 858 c 0
 1301 858 1313 574 1313 370 c 0
 1313 326 1312 274 1312 220 c 0
 1312 81 1317 87 1373 80 c 0
 1408 76 1437 71 1437 33 c 0
 1437 18 1422 -2 1380 -2 c 0
 1317 -2 1287 2 1224 2 c 0
 1189 2 1096 -2 1070 -2 c 0
 1044 -2 1023 9 1023 30 c 0
 1023 94 1108 66 1135 86 c 0
 1153 99 1163 127 1163 160 c 2
 1163 411 l 2
 1163 448 1162 479 1160 506 c 0
 1146 701 1047 746 971 746 c 0
 856 746 815 665 811 663 c 1
 811 663 812 631 812 614 c 2
 812 163 l 2
 812 86 830 82 932 73 c 0
 966 70 967 47 967 32 c 0
 967 19 966 -2 918 -2 c 0
 906 -2 783 6 740 6 c 0
 724 6 578 -2 546 -2 c 0
 524 -2 514 13 514 34 c 0
 514 74 543 74 570 75 c 2
 601 76 l 2
 667 78 669 76 669 456 c 0
 669 617 650 750 476 750 c 0
 392 750 327 678 327 574 c 2
 327 159 l 2
 327 84 342 82 384 79 c 0
 436 75 471 76 471 41 c 0
 471 18 461 2 419 2 c 0
 363 2 327 6 263 6 c 0
 234 6 164 2 121 2 c 0
 95 2 69 13 69 34 c 0xdc
EndSplineSet
EndChar

StartChar: N.open
Encoding: 65564 -1 84
Width: 1686
VWidth: 0
Flags: HW
HStem: -9 93<117.612 304.061> -2 63<500.018 664.989> 1291 78<34.689 252.875> 1314 55<229 357.972> 1331 63<1155.18 1307.78>
VStem: 360 55<282.09 689.587> 1378 71<287 839.589>
LayerCount: 3
Fore
SplineSet
30 1348 m 0
 30 1368 44 1369 81 1369 c 2xa6
 397 1369 l 2x16
 403 1369 419 1358 449 1321 c 0
 652 1066 514 1240 1378 287 c 1
 1378 442 l 2
 1378 1231 1360 1302 1253 1331 c 0
 1218 1340 1155 1321 1155 1365 c 0
 1155 1391 1179 1394 1204 1394 c 2
 1224 1394 l 2x0e
 1264 1394 1303 1391 1342 1391 c 0
 1439 1391 1569 1400 1609 1400 c 0
 1619 1400 1636 1390 1636 1375 c 0
 1636 1302 1452 1412 1450 1144 c 0
 1450 1097 1449 1051 1449 1005 c 0
 1449 855 1454 558 1454 256 c 0
 1454 18 1465 59 1465 12 c 0
 1465 -4 1460 -13 1445 -13 c 0
 1409 -13 1389 11 1140 290 c 2
 1140 290 869 599 818 652 c 0
 646 833 446 1042 445 1042 c 0
 428 1042 415 303 415 301 c 0
 415 162 448 121 494 94 c 0
 532 72 534 63 631 61 c 0
 650 61 665 54 665 30 c 0
 665 4 661 -2 599 -2 c 0x4e
 518 -2 432 6 374 6 c 0
 262 6 208 -9 154 -9 c 0
 122 -9 114 11 114 23 c 0
 114 72 177 44 258 84 c 0
 347 128 323 202 348 586 c 0
 354 678 360 968 360 968 c 2
 360 976 360 984 360 992 c 0
 360 1140 341 1158 322 1177 c 2
 243 1257 l 2
 229 1272 206 1284 190 1291 c 0
 96 1336 30 1295 30 1348 c 0
229 1314 m 17
 246 1298 256 1297 284 1266 c 2
 851 662 l 1
 1206 262 l 1
 1396 64 l 1
 1405 57 l 1
 1401 98 1398 109 1398 142 c 2x16
 1398 160 l 1
 1386 167 1376 176 1364 188 c 2
 1244 313 l 1
 482 1144 l 2
 429 1201 390 1248 336 1314 c 9
 229 1314 l 17
EndSplineSet
Layer: 2
SplineSet
1453 359 m 4
 1453 280 1452 253 1452 227 c 4
 1452 18 1463 53 1463 9 c 4
 1463 -7 1459 -17 1443 -17 c 4
 1407 -17 1387 7 1139 287 c 6
 1139 287 869 597 818 650 c 4
 647 832 447 1041 446 1041 c 4
 429 1041 414 303 414 297 c 4
 414 160 446 120 492 93 c 4
 530 71 532 62 629 60 c 4
 648 60 663 53 663 29 c 4
 663 3 659 -3 600 -3 c 4
 516 -3 429 6 367 6 c 4
 259 6 206 -9 153 -9 c 4
 135 -9 112 -2 112 24 c 4
 112 73 175 44 256 84 c 4
 345 128 322 202 348 586 c 4
 354 678 361 968 361 968 c 6
 361 978 361 988 361 998 c 4
 361 1141 343 1158 324 1177 c 6
 245 1257 l 6
 231 1272 208 1284 192 1291 c 4
 98 1336 32 1296 32 1349 c 4
 32 1368 45 1370 78 1370 c 6
 399 1369 l 6x16
 405 1369 421 1357 451 1320 c 4
 653 1064 516 1239 1377 283 c 5
 1377 380 1377 477 1377 574 c 4
 1377 1235 1355 1300 1255 1328 c 4
 1220 1337 1157 1318 1157 1362 c 4
 1157 1388 1180 1391 1205 1391 c 4
 1292 1391 1278 1387 1350 1387 c 4
 1446 1387 1570 1395 1610 1395 c 4
 1621 1395 1638 1385 1638 1370 c 4
 1638 1297 1455 1408 1452 1140 c 4
 1452 1072 1450 1055 1450 971 c 4
 1450 834 1453 604 1453 359 c 4
1403 53 m 5
 1398 110 1396 97 1396 143 c 6
 1396 156 l 5
 1384 163 1374 172 1362 184 c 6
 1243 310 l 5
 484 1143 l 6
 431 1200 392 1248 338 1314 c 13
 231 1314 l 21
 248 1298 258 1297 286 1266 c 6
 851 660 l 5
 1204 259 l 5
 1394 60 l 5
 1403 53 l 5
EndSplineSet
EndChar

StartChar: O.open
Encoding: 65565 -1 85
Width: 1543
VWidth: 0
Flags: HW
HStem: -39 72<615.664 1001.69> 1371 54<567.353 907.615>
VStem: 44 34<544.106 851.913> 134 90<457.825 982.475> 1318 28<462.884 796.39> 1410 92<419.405 917.116>
LayerCount: 3
Fore
SplineSet
44 695 m 0
 44 1067 275 1425 793 1425 c 0
 1285 1425 1502 1047 1502 683 c 0
 1502 324 1263 -39 804 -39 c 0
 261 -39 44 322 44 695 c 0
78 693 m 0
 78 284 397 72 423 72 c 0
 424 72 425 72 425 73 c 0
 425 82 134 284 134 703 c 0
 134 820 158 922 185 1004 c 0
 230 1139 288 1220 288 1221 c 0
 288 1222 287 1222 287 1222 c 1
 269 1222 78 1030 78 693 c 0
224 735 m 0
 224 372 443 33 803 33 c 0
 1247 33 1318 410 1318 615 c 0
 1318 1228 978 1371 752 1371 c 0
 485 1371 337 1244 270 1069 c 0
 231 968 224 852 224 735 c 0
1083 1289 m 0
 1083 1280 1346 1103 1346 629 c 0
 1346 265 1201 170 1201 165 c 0
 1201 164 1204 164 1204 164 c 1
 1214 164 1309 239 1361 363 c 0
 1393 439 1410 537 1410 658 c 0
 1410 1067 1111 1290 1085 1290 c 0
 1084 1290 1083 1290 1083 1289 c 0
EndSplineSet
EndChar

StartChar: P.open
Encoding: 65566 -1 86
Width: 972
VWidth: 0
Flags: H
HStem: -459 79<8.59409 144.799 294.035 475.896> 0 71<307.354 645.388> 721 131<409.91 635.141> 854 20G<262 271.5>
VStem: 146 144<-374.467 16 100.612 660.476> 785 137<227.833 564.477>
LayerCount: 3
Fore
SplineSet
8 -427 m 0
 8 -384 54 -384 112 -380 c 0
 146 -377 146 -365 146 -278 c 2
 146 -262 l 2
 146 -141 156 613 156 632 c 0
 156 650 155 672 146 674 c 0
 50 691 23 684 23 718 c 0
 23 744 38 745 208 843 c 0
 234 858 257 874 267 874 c 0
 276 874 299 870 299 818 c 0
 299 814 294 726 292 680 c 1
 292 680 385 852 542 852 c 0
 792 852 922 628 922 456 c 0
 922 91 677 0 490 0 c 0
 400 0 287 16 287 16 c 1
 290 -310 l 2
 291 -393 341 -372 434 -380 c 0
 471 -383 476 -396 476 -416 c 0
 476 -432 472 -456 426 -456 c 0
 414 -456 317 -452 228 -452 c 0
 182 -452 123 -459 62 -459 c 0
 31 -459 8 -458 8 -427 c 0
290 149 m 2
 290 130 290 113 310 100 c 0
 327 89 399 71 480 71 c 0
 724 71 785 237 785 377 c 0
 785 619 616 721 496 721 c 0
 430 721 291 705 291 520 c 2
 290 149 l 2
EndSplineSet
EndChar

StartChar: Q.open
Encoding: 65567 -1 87
Width: 1031
VWidth: 0
Flags: H
HStem: -449 81<559.703 701.762 853.995 998.538> -24 117<357.728 633.7> 760 78<326.693 685.669> 834 20G<842.5 864.5>
VStem: 77 116<267.534 607.599> 717 143<-363.676 104 125.76 728.945>
LayerCount: 3
Fore
SplineSet
77 391 m 0xdc
 77 645 221 838 524 838 c 0xec
 602 838 700 821 754 821 c 0
 800 821 832 854 853 854 c 0
 876 854 878 821 878 785 c 0
 878 740 861 641 860 552 c 2
 853 -291 l 2
 853 -365 854 -365 960 -366 c 0
 981 -366 999 -374 999 -398 c 0
 999 -439 983 -450 960 -450 c 0
 925 -450 796 -438 756 -438 c 0
 634 -438 613 -449 591 -449 c 0
 571 -449 557 -442 557 -420 c 0
 557 -383 618 -377 660 -368 c 0
 689 -361 709 -342 709 -268 c 0
 709 -131 718 104 718 104 c 1
 708 96 650 -24 470 -24 c 0
 246 -24 77 136 77 391 c 0xdc
193 458 m 0
 193 235 328 93 531 93 c 0
 705 93 717 170 717 244 c 2
 717 286 l 2
 717 331 718 294 718 662 c 0
 718 719 661 760 491 760 c 0
 277 760 193 624 193 458 c 0
EndSplineSet
EndChar

StartChar: R.open
Encoding: 65568 -1 88
Width: 749
VWidth: 0
HStem: -6 77<35.2654 169.552 343.597 524.167> 710 162<478.384 672.864>
VStem: 179 153<80.5214 655.389>
LayerCount: 3
Fore
SplineSet
35 39 m 0
 35 66 72 69 90 71 c 0
 152 76 178 81 179 175 c 2
 184 667 l 2
 184 679 60 682 60 713 c 2
 60 725 l 2
 60 746 60 762 91 777 c 2
 233 843 l 2
 278 864 292 875 310 875 c 0
 328 875 335 865 335 810 c 2
 335 701 l 1
 335 701 458 872 627 872 c 0
 665 872 723 857 723 776 c 0
 723 724 679 680 636 680 c 0
 583 680 567 710 514 710 c 0
 380 710 332 609 332 552 c 2
 332 200 l 2
 332 90 350 84 397 76 c 0
 452 66 525 78 525 24 c 0
 525 4 515 -13 475 -13 c 0
 432 -13 316 5 234 5 c 0
 172 5 102 -6 87 -6 c 0
 58 -6 35 0 35 39 c 0
EndSplineSet
EndChar

StartChar: S.open
Encoding: 65569 -1 89
Width: 1000
VWidth: 1020
Flags: HW
HStem: -29 74<381.761 675.275> 1243 59<660.928 737.882> 1340 54<308.717 551.369>
VStem: 81 31<949.584 1157.69> 140 76<984.454 1260.37> 736 51<1123.08 1248.11> 819 35<276.455 471.639> 891 66<256.817 550.573>
LayerCount: 3
Fore
SplineSet
74 135 m 0
 74 163 85 140 131 456 c 0
 132 464 137 497 160 497 c 0
 183 497 184 475 184 448 c 2
 184 442 l 2
 184 314.245117188 255.599609375 45 542 45 c 0
 742 45 819 239 819 355 c 0
 819 442 803 509 733 560 c 0
 512 721 81 673 81 1045 c 0
 81 1285 257 1394 416 1394 c 0
 591 1394 699 1302 722 1302 c 0
 749 1302 748 1381 783 1381 c 0
 793 1381 800 1377 800 1355 c 0
 800 1339 787 1290 787 1191 c 0
 787 1093 800 1045 800 1029 c 0
 800 1009 797 1000 779 1000 c 0
 752 1000 737 1099 675 1177 c 0
 593 1281 480 1340 400 1340 c 0
 302 1340 216 1266 216 1114 c 0
 216 820 598 915 824 726 c 0
 901 662 957 567 957 427 c 0
 957 324 925 231 872 159 c 0
 810 74 724 -29 504 -29 c 0
 283 -29 146 147 142 147 c 0
 130 147 113 115 91 115 c 0
 78 115 74 127 74 135 c 0
112 1057 m 0
 112 678 545 760 765 578 c 0
 822 530 854 469 854 393 c 0
 854 277 796 170 796 170 c 1
 796 170 891 242 891 417 c 0
 891 645 682 695 524 753 c 0
 338 821 140 827 140 1121 c 0
 140 1225 189 1284 189 1284 c 1
 189 1284 112 1240 112 1057 c 0
124 207 m 1
 164 198 141 194 268 81 c 1
 204 168 154 267 148 361 c 1
 124 207 l 1
520 1334 m 1
 588 1293 686 1239 740 1122 c 1
 737 1145 736 1172 736 1195 c 0
 736 1213 737 1230 738 1249 c 1
 733 1244 726 1243 720 1243 c 0
 694 1243 683 1267 520 1334 c 1
EndSplineSet
EndChar

StartChar: T.open
Encoding: 65570 -1 90
Width: 1440
VWidth: 1000
Flags: HW
HStem: -9 68<440.214 621.152 645.844 716.512 859.949 1038.89> 6 57<474.489 1004.44> 1304 63<197.25 800 846.399 1221>
VStem: 652 34<122.047 1254.93> 737 76<97.6907 1278.71>
LayerCount: 3
Back
SplineSet
603 1308 m 1x78
 651 1293 684 1276 684 1127 c 2
 686 211 l 2
 686 125 661 76 645 55 c 1
 663 56 681 57 701 57 c 0
 728 57 758 56 782 54 c 1
 746 79 737 141 737 209 c 2
 742 1168 l 2
 742 1231 751 1273 800 1308 c 1
 603 1308 l 1x78
530 53 m 2xb8
 643 53 648 110 648 294 c 0
 648 350 652 528 652 554 c 2
 652 1167 l 2
 652 1284 622 1298 533 1298 c 2
 238 1298 l 2
 218 1298 211 1292 204 1280 c 2
 60 1036 l 2
 50 1019 38 1009 31 1009 c 0
 25 1009 23 1014 23 1022 c 0
 23 1029 24 1039 26 1048 c 2
 87 1346 l 2
 90 1360 93 1361 103 1361 c 2
 1307 1372 l 2
 1324 1372 1326 1361 1330 1335 c 2
 1381 1068 l 2
 1383 1059 1384 1050 1384 1043 c 0
 1384 1036 1382 1031 1377 1031 c 0
 1362 1031 1341 1070 1333 1084 c 2
 1205 1293 l 2
 1199 1304 1194 1304 1184 1304 c 2
 988 1304 l 2
 896 1304 820 1303 819 1170 c 2
 813 316 l 1
 813 117 823 50 990 50 c 0
 1022 50 1039 46 1039 22 c 0
 1039 2 1031 -14 1005 -14 c 0
 995 -14 865 0 720 0 c 0x78
 647 0 482 -15 474 -15 c 0
 450 -15 440 -4 440 24 c 0
 440 53 473 53 508 53 c 2
 530 53 l 2xb8
EndSplineSet
Fore
SplineSet
23 1028 m 0
 23 1035 24 1045 26 1054 c 2
 87 1352 l 2
 90 1366 93 1367 103 1367 c 2
 1307 1378 l 2
 1324 1378 1326 1367 1330 1341 c 2
 1381 1074 l 2
 1383 1065 1384 1056 1384 1049 c 0
 1384 1042 1382 1037 1377 1037 c 0
 1362 1037 1341 1076 1333 1090 c 2
 1205 1299 l 2
 1199 1310 1194 1310 1184 1310 c 2
 988 1310 l 2
 896 1310 820 1309 819 1176 c 0
 814 481 813 394 813 307 c 0
 813 120 827 56 990 56 c 0
 1022 56 1039 52 1039 28 c 0
 1039 8 1031 -8 1005 -8 c 0
 995 -8 865 6 720 6 c 0x78
 647 6 482 -9 474 -9 c 0
 450 -9 440 2 440 30 c 0
 440 59 473 59 508 59 c 2
 530 59 l 2xb8
 643 59 648 116 648 300 c 0
 648 356 652 534 652 560 c 2
 652 1173 l 2
 652 1290 622 1304 533 1304 c 2
 238 1304 l 2
 218 1304 211 1298 204 1286 c 2
 60 1042 l 2
 50 1025 38 1015 31 1015 c 0
 25 1015 23 1020 23 1028 c 0
603 1314 m 1x78
 651 1299 684 1282 684 1133 c 2
 686 217 l 2
 686 131 661 82 645 61 c 1
 663 62 681 63 701 63 c 0
 728 63 758 62 782 60 c 1
 746 85 737 147 737 215 c 2
 742 1174 l 2
 742 1237 751 1279 800 1314 c 1
 603 1314 l 1x78
EndSplineSet
EndChar

StartChar: U.open
Encoding: 65571 -1 91
Width: 1016
VWidth: 0
HStem: -27 103<385.952 629.32> 11 119<844.004 974.168> 750 93<16 130.049 530.701 711.47>
VStem: 130 168<396.091 748> 132 149<197.253 720.345> 700 144<138.849 651.088> 712 151<333.722 747.115>
LayerCount: 3
Fore
SplineSet
16 780 m 2xb0
 16 811 l 2
 16 829 30 846 49 846 c 0
 118 846 258 854 264 854 c 0
 280 854 298 842 298 814 c 0xb0
 298 772 281 476 281 392 c 0
 281 227 350 76 521 76 c 0
 658 76 697 194 700 285 c 0xac
 701 326 712 656 712 697 c 0
 712 740 683 750 628 750 c 2
 574 750 l 2
 545 750 530 756 530 812 c 0
 530 837 564 843 582 843 c 2
 833 846 l 2
 863 846 863 835 863 821 c 0xa2
 846 307 844 307 844 178 c 0
 844 145 845 130 896 130 c 2
 932 130 l 2
 977 130 982 126 982 114 c 2
 982 67 l 2
 982 54 977 55 840 11 c 0x64
 821 5 760 -20 734 -20 c 0
 720 -20 710 -17 710 -1 c 0
 710 69 712 76 712 84 c 2
 712 108 l 1
 695 99 656 -27 472 -27 c 0
 365 -27 132 24 132 318 c 0xaa
 132 381 130 691 130 722 c 0
 130 745 120 748 105 748 c 2
 56 748 l 2
 38 748 16 762 16 780 c 2xb0
EndSplineSet
EndChar

StartChar: V.open
Encoding: 65572 -1 92
Width: 1052
VWidth: 0
HStem: -20 21G<552 593> 747 101<903.971 1018.27> 757 91<31.7381 151.031 320.3 481.958>
VStem: 30 290<689.5 833> 779 242<637.5 816>
LayerCount: 3
Fore
SplineSet
30 819 m 0xb8
 30 847 68 848 92 848 c 0xb8
 117 848 131 845 244 845 c 0
 332 845 406 849 422 849 c 0
 452 849 482 840 482 804 c 0
 482 774 468 763 423 763 c 0
 366 763 320 751 320 708 c 0
 320 671 564 194 592 194 c 0
 609 194 779 562 779 713 c 0
 779 797 647 719 647 812 c 0
 647 839 684 849 714 849 c 0
 769 849 810 843 887 843 c 0
 917 843 959 848 982 848 c 0
 1011 848 1021 822 1021 810 c 0
 1021 756 972 760 936 747 c 0xd8
 890 730 915 649 693 166 c 0
 665 107 616 -20 570 -20 c 0
 534 -20 500 35 451 117 c 0
 176 570 191 720 105 757 c 0
 60 776 30 768 30 819 c 0xb8
EndSplineSet
EndChar

StartChar: W.open
Encoding: 65573 -1 93
Width: 1926
VWidth: 0
Flags: HWO
HStem: -24 31G<656 666.5 1333 1355> 1318 69<183 342 418.924 571.765 728.255 857.75 864 981 1060.57 1214.63 1447.67 1622.06> 1378 20G<1801.5 1849>
VStem: 311 100<1072.34 1313.18> 962 94<1127.69 1319.54> 1633 257<1214.5 1373>
LayerCount: 3
Fore
SplineSet
59 1366 m 0
 59 1386 74 1389 101 1389 c 0
 176 1389 228 1381 292 1381 c 0
 350 1381 428 1387 486 1387 c 0
 536 1387 572 1386 572 1348 c 0
 572 1321 553 1318 528 1318 c 2
 494 1318 l 2
 434 1318 411 1293 411 1241 c 0
 411 1191 434 1115 470 1012 c 2
 731 251 l 1
 960 965 l 1
 838 1362 875 1307 763 1321 c 0
 741 1324 728 1332 728 1346 c 0
 728 1361 730 1387 783 1387 c 0xdc
 841 1387 889 1385 928 1385 c 0
 1116 1386 1117 1392 1172 1392 c 0
 1212 1392 1215 1376 1215 1366 c 2
 1215 1358 l 2
 1215 1332 1194 1328 1177 1328 c 0
 1092 1328 1056 1312 1056 1256 c 0
 1056 1201 1395 305 1395 305 c 1
 1489 637 1633 1198 1633 1231 c 0
 1633 1263 1625 1303 1586 1314 c 0
 1535 1329 1446 1315 1446 1362 c 0
 1446 1390 1484 1392 1504 1392 c 0
 1562 1392 1619 1390 1669 1390 c 0
 1722 1390 1780 1398 1823 1398 c 0xbc
 1875 1398 1890 1380 1890 1366 c 0
 1890 1320 1830 1358 1778 1302 c 0
 1765 1289 1756 1274 1752 1260 c 2
 1639 904 l 2
 1542 596 1578 712 1522 518 c 2
 1373 5 l 2
 1368 -9 1369 -14 1341 -14 c 0
 1325 -14 1324 -10 1270 136 c 2
 1000 878 l 1
 1000 878 834 335 696 -2 c 0
 689 -20 672 -24 661 -24 c 0
 651 -24 640 -18 636 -6 c 2
 537 292 l 1
 316 926 l 2
 283 1021 256 1120 214 1224 c 0
 152 1374 59 1294 59 1366 c 0
183 1324 m 1
 240 1270 251 1224 303 1074 c 2
 650 78 l 1
 676 144 l 1
 327 1152 l 2
 316 1185 311 1211 311 1233 c 0
 311 1290 339 1314 342 1321 c 1
 183 1324 l 1
864 1328 m 1
 899 1291 909 1244 912 1234 c 2
 980 1020 l 2
 1002 953 1021 903 1033 870 c 2
 1326 82 l 1
 1352 165 l 1
 1266 387 1302 257 995 1138 c 0
 977 1190 962 1245 962 1272 c 0x9c
 962 1302 971 1313 981 1328 c 1
 960 1327 946 1326 933 1326 c 0
 897 1326 898 1327 864 1328 c 1
EndSplineSet
EndChar

StartChar: X.open
Encoding: 65574 -1 94
Width: 980
VWidth: 0
HStem: -4 98<787.175 941.093> -4 83<22.0204 177.913> 739 85<29.7034 192.782 726.62 915.12>
LayerCount: 3
Fore
SplineSet
22 37 m 0x60
 22 70 50 79 71 79 c 2
 107 79 l 2x60
 143 79 147 81 169 107 c 0
 207 150 405 426 405 426 c 1
 195 707 184 723 126 739 c 0
 67 755 29 738 29 792 c 0
 29 808 49 824 78 824 c 0
 92 824 170 821 264 821 c 0
 352 821 373 825 389 825 c 0
 419 825 450 815 450 788 c 0
 450 736 371 774 371 718 c 0
 371 696 494 537 494 537 c 1
 494 537 622 696 622 724 c 0
 622 765 546 741 546 788 c 0
 546 815 572 824 602 824 c 0
 615 824 668 822 715 822 c 0
 745 822 840 828 857 828 c 0
 909 828 916 802 916 790 c 0
 916 725 839 763 778 735 c 0
 752 723 724 698 698 663 c 2
 546 462 l 1
 791 130 809 108 827 94 c 0
 862 66 942 103 942 40 c 0
 942 3 920 -4 892 -4 c 0xa0
 857 -4 840 0 718 0 c 0
 683 0 568 -4 542 -4 c 0
 516 -4 492 11 492 32 c 0
 492 102 618 57 618 99 c 0
 618 133 456 348 456 348 c 1
 456 348 285 140 285 103 c 0
 285 50 376 94 376 38 c 0
 376 23 369 -4 327 -4 c 0
 276 -4 302 0 72 0 c 0
 46 0 22 9 22 37 c 0x60
EndSplineSet
EndChar

StartChar: Y.open
Encoding: 65575 -1 95
Width: 1031
VWidth: 0
HStem: 755 83<374 464.922 609.105 690 887.625 1004.41>
VStem: 46 294<694 803> 742 264<644 819.5>
LayerCount: 3
Fore
SplineSet
46 799 m 0
 46 807 51 835 101 835 c 0
 115 835 139 828 233 828 c 0
 321 828 390 838 423 838 c 0
 453 838 465 825 465 798 c 0
 465 766 438 761 410 755 c 2
 374 747 l 2
 355 743 340 736 340 717 c 0
 340 671 543 220 562 220 c 0
 576 220 742 596 742 692 c 0
 742 737 711 745 690 748 c 2
 665 752 l 2
 635 756 609 762 609 794 c 0
 609 821 625 833 655 833 c 0
 668 833 714 828 791 828 c 0
 821 828 948 836 971 836 c 0
 989 836 1006 829 1006 810 c 0
 1006 773 978 760 948 749 c 0
 888 726 895 749 804 549 c 1
 657 220 482 -169 357 -300 c 0
 314 -344 273 -367 232 -367 c 0
 176 -367 153 -341 153 -293 c 0
 153 -257 191 -232 237 -209 c 0
 291 -182 305 -188 365 -120 c 0
 418 -59 469 23 469 30 c 0
 469 34 320 416 152 721 c 0
 120 778 46 745 46 799 c 0
EndSplineSet
EndChar

StartChar: Z.open
Encoding: 65576 -1 96
Width: 713
VWidth: 0
HStem: 0 136<234.026 545.431> 685 139<214.951 447.988>
VStem: 125 91<824 917.186> 547 86<-172.949 -8.09009> 604 84<152.9 312.677>
LayerCount: 3
Fore
SplineSet
33 35 m 0xf0
 33 57 45 81 47 84 c 2
 405 600 l 2
 434 642 448 661 448 672 c 0
 448 683 431 685 385 685 c 2
 259 685 l 2
 141 685 191 573 136 573 c 0
 113 573 105 592 105 618 c 0
 105 660 125 731 125 800 c 2
 125 823 l 2
 125 846 129 918 178 918 c 0
 208 918 216 875 216 851 c 0
 216 836 220 824 251 824 c 2
 588 824 l 2
 636 824 638 823 638 795 c 2
 638 790 l 2
 638 755 549 675 466 545 c 0
 316 292 234 193 234 166 c 0
 234 142 269 136 502 136 c 0
 555 136 577 136 604 260 c 0
 611 291 627 314 657 314 c 0
 667 314 688 306 688 270 c 0xe8
 688 213 645 50 633 -64 c 0
 629 -103 634 -173 591 -173 c 0
 564 -173 547 -155 547 -131 c 2
 547 -57 l 2
 547 -28 539 0 425 0 c 2
 64 0 l 2
 33 0 33 16 33 35 c 0xf0
EndSplineSet
EndChar

StartChar: a.sc
Encoding: 65577 -1 97
Width: 680
VWidth: 0
Flags: H
HStem: -19 64<203.577 373.219> -10 93<529.466 642.857> 547 69<200.867 374.851>
VStem: 56 125<58.1469 236.744> 408 117<84.1994 286 324.718 521.889>
LayerCount: 3
Fore
SplineSet
56 117 m 0xb8
 56 249 158 285 239 302 c 0
 375 330 408 320 408 365 c 2
 408 404 l 2
 408 479 383 547 284 547 c 0
 169 547 194 438 112 438 c 0
 79 438 57 465 57 495 c 0
 57 574 201 616 304 616 c 0
 438 616 525 542 525 439 c 2
 525 162 l 2
 525 95 561 83 574 83 c 0
 635 83 644 129 657 129 c 0
 668 129 675 123 675 110 c 0
 675 43 610 -10 534 -10 c 0x78
 447 -10 427 65 427 65 c 1
 425 63 387 -19 242 -19 c 0
 151 -19 56 2 56 117 c 0xb8
181 159 m 0
 181 94 202 45 286 45 c 0xb8
 349 45 408 81 408 149 c 2
 408 286 l 1
 232 259 181 259 181 159 c 0
EndSplineSet
EndChar

StartChar: b.sc
Encoding: 65578 -1 98
Width: 942
VWidth: 0
Flags: H
HStem: -9 72<19.1879 174.677 338.827 650.406> 502 52<328.375 598.25> 892 83<22.0776 185.625 328 601.844>
VStem: 190 138<76.7781 501.996 554 888.003> 689 158<630.758 827.372> 768 141<162.009 396.806>
LayerCount: 3
Fore
SplineSet
19 33 m 0xf4
 19 43 29 71 59 71 c 0
 75 71 100 73 116 73 c 0
 159 73 178 92 180 117 c 0
 190 302 190 433 190 580 c 0
 190 675 188 700 188 819 c 0
 188 871 180 891 108 891 c 2
 74 891 l 2
 48 891 22 902 22 932 c 0
 22 940 28 975 70 975 c 0
 176 975 234 973 312 973 c 0
 370 973 428 975 500 975 c 0
 767 975 847 833 847 757 c 0xf8
 847 605 688 541 688 541 c 1
 688 541 909 490 909 294 c 0
 909 -5 540 -9 514 -9 c 0
 461 -9 299 4 234 4 c 0
 180 4 112 -9 66 -9 c 0
 24 -9 19 9 19 33 c 0xf4
323 198 m 0
 323 88 330 63 485 63 c 0
 711 63 768 202 768 281 c 0xf4
 768 429 608 480 549 490 c 0
 508 497 449 502 363 502 c 0
 324 502 323 497 323 455 c 0
 323 404 323 429 323 198 c 0
328 574 m 2
 328 560 344 554 361 554 c 2
 410 554 l 2
 540 554 689 558 689 722 c 0xf8
 689 862 538 892 373 892 c 0
 334 892 328 882 328 862 c 2
 328 574 l 2
EndSplineSet
EndChar

StartChar: c.sc
Encoding: 65579 -1 99
Width: 668
VWidth: 0
HStem: -17 105<248.324 529.247> 525 90<204.705 448.573>
VStem: 32 119<189.511 448.257>
LayerCount: 3
Fore
SplineSet
32 284 m 0
 32 480 199 615 367 615 c 0
 494 615 598 560 598 504 c 0
 598 470 565 443 532 443 c 0
 474 443 431 525 312 525 c 0
 240 525 151 479 151 328 c 0
 151 229 222 88 389 88 c 0
 505 88 559 130 590 154 c 0
 605 165 616 169 625 169 c 0
 638 169 644 159 644 148 c 0
 644 86 506 -17 348 -17 c 0
 174 -17 32 105 32 284 c 0
EndSplineSet
EndChar

StartChar: d.sc
Encoding: 65580 -1 100
Width: 790
VWidth: 0
Flags: H
HStem: -9 98<260.335 508.753> 544 57<250.992 526.97>
VStem: 32 118<194.248 454.179> 562 110<109.895 511.248> 566 122<574.191 855.041>
LayerCount: 3
Fore
SplineSet
32 289 m 0xf0
 32 452 139 601 385 601 c 0
 494 601 566 570 566 570 c 1
 563 841 l 2
 563 859 444 853 444 889 c 0
 444 909 489 921 569 949 c 0
 621 967 641 983 665 983 c 0
 689 983 695 967 695 942 c 0
 695 918 689 868 688 841 c 0xe8
 684 662 672 455 672 153 c 0
 672 114 673 108 691 108 c 2
 731 108 l 2
 745 108 766 108 766 89 c 0
 766 59 687 52 605 -8 c 0
 592 -18 585 -23 577 -23 c 0
 568 -23 560 -18 560 -0 c 2
 560 97 l 1
 538 77 517 -9 365 -9 c 0
 208 -9 32 90 32 289 c 0xf0
150 329 m 0
 150 171 288 89 414 89 c 0
 537 89 561 131 562 243 c 2xf0
 564 472 l 2
 564 518 469 544 377 544 c 0
 220 544 150 452 150 329 c 0
EndSplineSet
EndChar

StartChar: e.sc
Encoding: 65581 -1 101
Width: 674
VWidth: 0
Flags: H
HStem: -22 98<238.18 523.189> 535 85<192.545 418.535>
VStem: 32 113<175.18 278.394 327 466.073> 472 161<416.427 486.827>
LayerCount: 3
Fore
SplineSet
32 293 m 0
 32 500 188 620 339 620 c 0
 497 620 633 491 633 442 c 0
 633 420 557 400 543 396 c 2
 149 274 l 1
 151 258 179 76 386 76 c 0
 532 76 586 162 622 162 c 0
 635 162 642 151 642 138 c 0
 642 90 502 -22 361 -22 c 0
 205 -22 32 54 32 293 c 0
145 349 m 0
 145 335 146 327 146 327 c 1
 433 418 l 2
 455 425 472 429 472 441 c 0
 472 459 383 535 291 535 c 0
 174 535 145 428 145 349 c 0
EndSplineSet
EndChar

StartChar: f.sc
Encoding: 65582 -1 102
Width: 489
VWidth: 0
HStem: -5 74<30.2075 141 270.1 385.843> 503 83<26.0782 146 267 456.52> 913 94<344.623 581.306>
VStem: 146 121<72.0212 503 586 795.137>
LayerCount: 3
Fore
SplineSet
26 541 m 0
 26 571 38 586 53 586 c 2
 149 586 l 1
 149 902 366 1007 510 1007 c 0
 583 1007 639 974 639 936 c 0
 639 908 611 864 565 864 c 0
 504 864 473 913 419 913 c 0
 397 913 375 910 359 898 c 0
 295 850 263 745 263 626 c 2
 263 586 l 1
 441 586 l 2
 451 586 457 581 457 556 c 0
 457 525 449 503 431 503 c 2
 267 503 l 1
 267 146 l 2
 267 79 282 73 308 72 c 0
 333 71 386 76 386 36 c 0
 386 5 362 -4 328 -4 c 0
 319 -4 235 0 204 -0 c 0
 180 0 78 -5 70 -5 c 0
 48 -5 30 9 30 28 c 0
 30 61 55 69 81 69 c 2
 113 69 l 2
 139 69 140 79 141 102 c 0
 144 228 146 105 146 503 c 1
 42 504 l 2
 32 504 26 511 26 541 c 0
EndSplineSet
EndChar

StartChar: g.sc
Encoding: 65583 -1 103
Width: 720
VWidth: 0
Flags: H
HStem: -346 66<217.921 552.216> 154 71<230.75 417.672> 503 142<566.878 667.077> 556 59<218.949 398.541>
VStem: 38 90<-225.751 -80.156> 47 118<280.436 512.168> 53 90<45.0125 143.636> 461 125<264.209 505.436> 597 93<-246.189 -95.3458>
LayerCount: 3
Fore
SplineSet
38 -171 m 0xe980
 38 -72 158 -39 158 -39 c 1
 158 -39 53 0 53 63 c 0xe380
 53 133 167 195 167 195 c 1
 167 195 47 256 47 388 c 0
 47 484 133 615 311 615 c 0xd580
 440 615 448 571 514 571 c 0
 579 571 566 645 616 645 c 0
 650 645 673 610 673 580 c 0
 673 519 627 503 600 503 c 0
 577 503 536 512 534 513 c 1
 534 513 586 468 586 391 c 0
 586 254 450 154 323 154 c 0
 270 154 240 167 219 167 c 0
 204 167 143 120 143 90 c 0xe380
 143 49 219 22 338 22 c 0
 398 22 439 26 474 26 c 0
 584 26 690 -27 690 -149 c 0
 690 -226 642 -346 368 -346 c 0
 78 -346 38 -236 38 -171 c 0xe980
128 -154 m 0xc980
 128 -238 271 -280 398 -280 c 0
 596 -280 597 -194 597 -168 c 0
 597 -40 403 -87 256 -65 c 0
 222 -60 187 -50 187 -50 c 1
 187 -50 128 -68 128 -154 c 0xc980
165 421 m 0xd580
 165 250 284 225 334 225 c 0
 384 225 461 261 461 368 c 0
 461 466 417 556 309 556 c 0
 223 556 165 499 165 421 c 0xd580
EndSplineSet
EndChar

StartChar: h.sc
Encoding: 65584 -1 104
Width: 870
VWidth: 0
HStem: 1 61<27.3417 149.374 281.02 402.729 483.472 609.346 735.862 846.517> 509 94<330.255 550.053>
VStem: 159 116<64.8335 478.551 485 862.5> 617 114<64.2549 436.23>
LayerCount: 3
Fore
SplineSet
27 25 m 0
 27 60 46 63 71 63 c 0
 156 63 159 65 159 213 c 0
 159 483 163 246 163 758 c 0
 163 793 162 823 162 849 c 0
 162 863 65 862 50 884 c 0
 46 890 45 896 45 902 c 0
 45 933 71 936 154 968 c 0
 185 980 220 994 246 994 c 0
 279 994 283 977 283 961 c 0
 283 936 282 882 268 485 c 1
 303 533 337 603 480 603 c 0
 539 603 686 576 722 397 c 0
 730 355 729 254 731 196 c 0
 735 69 724 65 802 62 c 0
 834 60 847 49 847 24 c 0
 847 -10 828 -12 812 -12 c 0
 803 -12 734 1 656 1 c 0
 586 1 540 -5 524 -5 c 0
 502 -5 483 1 483 26 c 0
 483 64 524 59 572 64 c 0
 610 67 617 76 617 219 c 0
 617 398 584 451 514 489 c 0
 488 504 458 509 429 509 c 0
 278 509 275 416 275 292 c 2
 275 252 l 2
 275 197 276 168 276 141 c 0
 276 77 278 64 329 61 c 0
 361 59 403 61 403 28 c 0
 403 -6 387 -8 371 -8 c 0
 341 -8 291 4 213 4 c 0
 131 4 70 -2 56 -2 c 0
 45 -2 27 -1 27 25 c 0
EndSplineSet
EndChar

StartChar: i.sc
Encoding: 65585 -1 105
Width: 421
VWidth: 0
Flags: H
HStem: -8 60<25.156 145.541 267.995 388.771> 763 142<205.68 333.786>
VStem: 158 109<54.5469 462.893> 201 138<767.957 900.475>
LayerCount: 3
Fore
SplineSet
25 18 m 0xd0
 25 52 49 52 76 52 c 0
 139 52 147 63 151 116 c 0
 155 174 158 282 158 303 c 0
 158 338 155 414 153 437 c 0
 151 473 35 463 35 498 c 0
 35 513 49 521 77 531 c 0
 255 596 239 597 255 597 c 0
 269 597 274 589 274 578 c 0
 274 542 267 513 267 220 c 0xe0
 267 176 266 144 266 121 c 0
 266 35 279 58 351 50 c 0
 369 48 389 47 389 18 c 0
 389 6 373 -8 339 -8 c 0
 335 -8 290 -1 201 -1 c 0
 128 -1 80 -8 53 -8 c 0
 32 -8 25 1 25 18 c 0xd0
201 837 m 0xd0
 201 871 229 905 271 905 c 0
 312 905 339 871 339 837 c 0
 339 778 292 763 270 763 c 0
 260 763 201 767 201 837 c 0xd0
EndSplineSet
EndChar

StartChar: j.sc
Encoding: 65586 -1 106
Width: 501
VWidth: 0
Flags: H
HStem: -297 118<51.2279 206.98> 758 142<267.802 400.828>
VStem: 241 120<-139.963 587> 263 144<764.206 894.92>
LayerCount: 3
Fore
SplineSet
11 -239 m 0xe0
 11 -195 70 -160 87 -160 c 0
 124 -160 138 -179 172 -179 c 0
 222 -179 240 -112 240 -2 c 0
 240 73 241 133 241 487 c 0
 241 501 133 505 133 526 c 0
 133 554 157 552 237 583 c 0
 287 602 322 626 340 626 c 0
 354 626 361 612 361 587 c 0
 361 237 356 107 356 -50 c 0
 356 -81 324 -138 294 -168 c 0
 177 -284 165 -297 97 -297 c 0
 50 -297 11 -268 11 -239 c 0xe0
263 828 m 0xd0
 263 876 299 900 336 900 c 0
 371 900 407 880 407 832 c 0
 407 789 371 758 336 758 c 0
 288 758 263 791 263 828 c 0xd0
EndSplineSet
EndChar

StartChar: k.sc
Encoding: 65587 -1 107
Width: 749
VWidth: 0
HStem: -4 57<40.0635 118.318 240.651 352.986 600.914 707.988> 516 64<525.994 671.993>
VStem: 121 110<58.5374 231 302 892.706>
LayerCount: 3
Fore
SplineSet
39 919 m 0
 39 934 66 941 75 943 c 2
 75 943 194 984 213 984 c 0
 231 984 235 969 235 955 c 2
 230 302 l 1
 345 408 435 479 435 506 c 0
 435 543 363 528 363 560 c 0
 363 566 366 580 406 580 c 0
 417 580 439 577 514 577 c 0
 584 577 619 580 632 580 c 0
 656 580 673 578 673 556 c 0
 673 525 645 531 587 516 c 0
 548 507 481 452 430 407 c 2
 357 342 l 1
 514 173 l 1
 629 30 652 59 680 53 c 0
 692 51 708 42 708 24 c 0
 708 12 696 -4 662 -4 c 0
 637 -4 600 -1 538 -1 c 0
 527 -1 447 -4 424 -4 c 0
 403 -4 382 3 382 18 c 0
 382 61 458 31 458 70 c 0
 458 107 314 256 290 283 c 1
 231 231 l 1
 234 63 223 61 316 54 c 0
 334 52 353 42 353 24 c 0
 353 12 341 -4 307 -4 c 0
 257 -4 229 -1 183 -1 c 0
 156 -1 112 -4 82 -4 c 0
 61 -4 40 5 40 22 c 0
 40 51 62 50 76 53 c 0
 121 63 121 71 121 129 c 2
 125 852 l 2
 125 886 39 897 39 919 c 0
EndSplineSet
EndChar

StartChar: l.sc
Encoding: 65588 -1 108
Width: 402
VWidth: 0
HStem: -8 62<31.3587 138.966 267.425 380.991>
VStem: 141 122<59.4629 599.391>
LayerCount: 3
Fore
SplineSet
30 13 m 0
 30 59 84 53 113 60 c 0
 134 64 141 71 141 115 c 2
 147 823 l 1
 56 843 44 840 44 867 c 0
 44 901 68 906 136 943 c 0
 181 967 203 988 242 988 c 0
 262 988 279 979 279 957 c 0
 279 862 263 958 263 140 c 0
 263 55 273 66 342 54 c 0
 369 48 381 39 381 24 c 0
 381 12 381 -8 347 -8 c 0
 310 -8 250 -1 216 -1 c 0
 162 -1 95 -12 72 -12 c 0
 51 -12 30 -4 30 13 c 0
EndSplineSet
EndChar

StartChar: m.sc
Encoding: 65589 -1 109
Width: 1149
VWidth: 0
HStem: -2 62<55.0609 146.172 263.827 377.817 412.067 528.211 653.002 773.917 819.437 925.933 1053.27 1149.85> 518 90<319.538 499.069 689.579 882.149>
VStem: 148 114<63.0932 492.208> 536 114<63.5492 483.481> 931 119<69.4292 468.2>
LayerCount: 3
Fore
SplineSet
55 27 m 0
 55 56 76 61 90 62 c 0
 146 65 147 64 148 131 c 2
 151 451 l 2
 151 478 140 478 114 488 c 2
 75 503 l 2
 62 508 57 515 57 523 c 0
 57 553 93 556 148 583 c 0
 187 601 224 623 241 623 c 0
 256 623 262 610 262 602 c 2
 262 502 l 1
 274 513 332 608 433 608 c 0
 574 608 629 498 629 498 c 1
 629 498 692 605 803 605 c 0
 1041 605 1051 408 1051 266 c 0
 1051 235 1050 199 1050 161 c 0
 1050 64 1054 69 1099 64 c 0
 1127 61 1150 57 1150 26 c 0
 1150 14 1139 -2 1105 -2 c 0
 1055 -2 1030 1 980 1 c 0
 952 1 878 -2 857 -2 c 0
 836 -2 819 7 819 24 c 0
 819 75 887 53 909 69 c 0
 923 78 931 97 931 119 c 2
 931 288 l 2
 931 313 931 335 929 353 c 0
 918 485 838 515 777 515 c 0
 685 515 652 460 649 459 c 1
 649 459 650 438 650 426 c 2
 650 120 l 2
 650 68 664 64 746 58 c 0
 773 56 774 37 774 25 c 0
 774 15 773 -2 735 -2 c 0
 725 -2 627 4 593 4 c 0
 580 4 464 -2 438 -2 c 0
 420 -2 412 10 412 27 c 0
 412 59 435 59 457 60 c 2
 482 61 l 2
 535 62 536 61 536 319 c 0
 536 428 521 518 382 518 c 0
 315 518 262 469 262 399 c 2
 262 117 l 2
 262 66 274 65 308 63 c 0
 350 60 378 61 378 33 c 0
 378 14 370 1 336 1 c 0
 291 1 262 4 211 4 c 0
 188 4 131 1 97 1 c 0
 76 1 55 10 55 27 c 0
EndSplineSet
EndChar

StartChar: n.sc
Encoding: 65590 -1 110
Width: 855
VWidth: 0
HStem: -7 70.2607<40.325 155.865 272.506 388.992 490.541 613.167 728.819 840.935> 526 98<361.141 573.98>
VStem: 158 114<62.4388 483.641> 616 117<63.0003 484.798>
LayerCount: 3
Fore
SplineSet
40 23 m 0
 40 55 68 59 111 63 c 0
 113.530854633 63.1874707136 115.923324772 63.2607193047 118.18502861 63.2607193047 c 0
 126.271547608 63.2607193047 132.686407999 62.3243416786 137.777810509 62.3243416786 c 0
 161.645924868 62.3243416786 156.428877709 82.9027785737 158 317 c 0
 158 356 156 418 156 474 c 0
 156 484 141 488 123 491 c 2
 104 495 l 2
 64 502 53 507 53 523 c 0
 53 535 53 539 78 552 c 2
 231 631 l 2
 243 637 255 645 264 645 c 0
 272 645 278 638 278 615 c 2
 276 517 l 1
 312 543 394 624 499 624 c 0
 597 624 681 570 712 498 c 0
 729 460 733 414 733 364 c 2
 733 331 l 2
 733 279 728 203 728 131 c 0
 728 72 730 63 772 63 c 2
 799 63 l 2
 820 63 841 59 841 30 c 0
 841 18 836 -7 801 -7 c 0
 791 -7 712 -1 666 -1 c 0
 653 -1 564 -4 538 -4 c 0
 511 -4 490 4 490 21 c 0
 490 64 528 60 580 63 c 0
 605 64 614 71 614 119 c 0
 614 131 616 119 616 376 c 0
 616 485 531 526 449 526 c 0
 356 526 277 475 276 407 c 0
 275 312 272 120 272 112 c 0
 272 63.4809047219 286.186520456 58.8110544901 312.022766021 58.8110544901 c 0
 318.181686949 58.8110544901 325.002620282 59.076425454 332.451201433 59.076425454 c 0
 341.412314141 59.076425454 351.281859626 58.6923379538 362 57 c 0
 384 53 389 41 389 28 c 0
 389 12 378 -4 349 -4 c 0
 304 -4 249 -1 208 -1 c 0
 177 -1 91 -7 78 -7 c 0
 44 -7 40 14 40 23 c 0
EndSplineSet
EndChar

StartChar: o.sc
Encoding: 65591 -1 111
Width: 1235
VWidth: 0
Flags: H
HStem: -26 74<464.253 835.211> 921 80<390.379 792.582>
VStem: 44 158<316.673 702.422> 1034 158<268.092 689.51>
LayerCount: 3
Fore
SplineSet
44 492 m 0
 44 774 254 1001 600 1001 c 0
 1000 1001 1192 779 1192 478 c 0
 1192 198 997 -26 635 -26 c 0
 235 -26 44 208 44 492 c 0
202 552 m 0
 202 313 326 48 651 48 c 0
 970 48 1034 264 1034 481 c 0
 1034 749 864 921 596 921 c 0
 369 921 202 816 202 552 c 0
EndSplineSet
EndChar

StartChar: p.sc
Encoding: 65592 -1 112
Width: 777
VWidth: 0
Flags: H
HStem: -315 56.9724<7.09105 115.176 233.077 379.998> -1 57<242.78 522.254> 495 105<310.551 530.955>
VStem: 116 115<-257.902 12 76.4233 461.806> 627 110<145.134 403.575>
LayerCount: 3
Fore
SplineSet
6 -295 m 0
 6 -261 43 -261 89 -258 c 0
 116 -256 116 -248 116 -187 c 2
 116 -176 l 2
 116 -92 124 435 124 448 c 0
 124 461 123 476 116 477 c 0
 39 489 18 484 18 508 c 0
 18 526 30 527 166 595 c 0
 187 605 205 617 213 617 c 0
 220 617 239 614 239 574 c 0
 239 571 235 502 233 467 c 1
 233 467 307 600 433 600 c 0
 633 600 737 442 737 321 c 0
 737 64 542 -1 392 -1 c 0
 320 -1 229 12 229 12 c 1
 231 -210 l 2
 231.640113368 -252.247482268 248.670031675 -258.027648544 280.253771607 -258.027648544 c 0
 292.151863813 -258.027648544 306.115358044 -257.207357665 322.046099835 -257.207357665 c 0
 329.890933752 -257.207357665 338.212807372 -257.406270768 347 -258 c 0
 377 -260 380 -271 380 -287 c 0
 380 -300 377 -319 340 -319 c 0
 330 -319 253 -315 182 -315 c 0
 145 -315 99 -321 50 -321 c 0
 25 -321 6 -320 6 -295 c 0
231 109 m 2
 231 96 231 85 247 76 c 0
 261 69 318 56 383 56 c 0
 578 56 627 168 627 263 c 0
 627 426 492 495 396 495 c 0
 343 495 232 484 232 359 c 2
 231 109 l 2
EndSplineSet
EndChar

StartChar: q.sc
Encoding: 65593 -1 113
Width: 824
VWidth: 0
Flags: H
HStem: -315 68<682.236 798.615> -20 94<260.829 520.616> 527 62<252.417 554.094>
VStem: 62 93<178.147 441.704> 574 114<-246.309 81 91.9358 509.388>
LayerCount: 3
Fore
SplineSet
62 273 m 0
 62 452 177 589 419 589 c 0
 481 589 560 572 603 572 c 0
 640 572 665 601 682 601 c 0
 700 601 702 578 702 553 c 0
 702 522 689 453 688 391 c 2
 682 -195 l 2
 682 -246 682 -246 767 -247 c 0
 784 -247 799 -254 799 -273 c 0
 799 -306 785 -315 767 -315 c 0
 739 -315 637 -305 605 -305 c 0
 508 -305 491 -314 473 -314 c 0
 457 -314 446 -309 446 -291 c 0
 446 -261 494 -256 528 -249 c 0
 551 -244 567 -231 567 -179 c 0
 567 -83 574 81 574 81 c 1
 566 75 520 -20 376 -20 c 0
 197 -20 62 93 62 273 c 0
155 322 m 0
 155 171 263 74 425 74 c 0
 564 74 574 127 574 177 c 2
 574 205 l 2
 574 236 574 210 574 460 c 0
 574 499 529 527 393 527 c 0
 222 527 155 435 155 322 c 0
EndSplineSet
EndChar

StartChar: r.sc
Encoding: 65594 -1 114
Width: 598
VWidth: 0
HStem: -5 62<28.219 135.615 271.577 418.338> 486 130<366.674 539.759>
VStem: 143 122<62.1874 457.051 480 481>
LayerCount: 3
Fore
SplineSet
28 31 m 0
 28 53 58 55 72 57 c 0
 122 60 142 64 143 130 c 2
 147 473 l 2
 147 481 48 483 48 505 c 2
 48 514 l 2
 48 529 48 540 73 550 c 2
 186 596 l 2
 222 611 233 618 247 618 c 0
 261 618 267 611 267 567 c 2
 267 480 l 1
 267 480 366 616 501 616 c 0
 531 616 578 604 578 541 c 0
 578 500 542 466 508 466 c 0
 466 466 453 486 411 486 c 0
 304 486 265 418 265 380 c 2
 265 144 l 2
 265 70 279 66 317 61 c 0
 361 53 419 62 419 19 c 0
 419 3 412 -11 380 -11 c 0
 346 -11 253 4 187 4 c 0
 137 4 82 -5 70 -5 c 0
 47 -5 28 0 28 31 c 0
EndSplineSet
EndChar

StartChar: s.sc
Encoding: 65595 -1 115
Width: 544
VWidth: 0
HStem: -24 78<179.231 401.927> 519 74<182.767 362.456>
VStem: 58 60<116.486 245.57> 86 88<391.284 512.467> 396 66<396.758 481.695 549 594.791> 426 87<74.5741 211.098>
LayerCount: 3
Fore
SplineSet
50 66 m 0xd4
 50 78 58 123 58 144 c 0
 58 154 58 180 58 201 c 0
 58 235 72 246 94 246 c 0
 118 246 117 222 118 193 c 0
 119 162 118 125 196 81 c 0
 235 59 279 54 314 54 c 0
 381 54 426 104 426 145 c 0xe4
 426 210 358 224 314 238 c 0
 151 290 86 288 86 421 c 0
 86 503 142 593 271 593 c 0
 343 593 384 562 396 549 c 1
 396 574 l 2
 396 585 399 596 424 596 c 2
 432 596 l 2
 445 596 448 594 451 557 c 2
 460 462 l 2
 461 457 462 448 462 438 c 0xd8
 462 418 458 396 436 396 c 0
 418 396 409 406 404 422 c 0
 386 488 310 519 262 519 c 0
 230 519 174 518 174 441 c 0
 174 332 513 403 513 181 c 0
 513 27 359 -24 290 -24 c 0
 246 -24 206 -21 119 13 c 0
 64 34 50 38 50 66 c 0xd4
EndSplineSet
EndChar

StartChar: t.sc
Encoding: 65596 -1 116
Width: 597
VWidth: 0
HStem: -19 109<304.806 478.31> 485 100<306 544.994>
VStem: 160 124<104.492 488>
LayerCount: 3
Fore
SplineSet
51 510 m 0
 51 530 80 538 121 570 c 0
 267 685 242 749 291 749 c 0
 311 749 320 733 320 713 c 0
 320 692 306 615 306 591 c 2
 306 575 l 1
 375 578 514 585 521 585 c 0
 542 585 548 567 548 551 c 0
 548 541 542 485 503 485 c 0
 482 485 460 486 291 488 c 1
 289 383 284 271 284 260 c 0
 284 128 316 90 378 90 c 0
 482 90 513 169 547 169 c 0
 555 169 572 163 572 142 c 0
 572 90 465 -19 341 -19 c 0
 230 -19 160 28 160 213 c 0
 160 225 173 488 173 488 c 1
 90 488 l 2
 60 488 51 494 51 510 c 0
EndSplineSet
EndChar

StartChar: u.sc
Encoding: 65597 -1 117
Width: 812
VWidth: 0
HStem: -22 82<297.632 509.801> 8 95<675 786> 517 78<13 104.108 424.475 569.982>
VStem: 106 119<126.875 517> 560 115<105.172 515.841> 570 121<140.108 518.008>
LayerCount: 3
Fore
SplineSet
13 543 m 2xb4
 13 568 l 2
 13 582 24 595 39 595 c 0
 94 595 206 602 211 602 c 0
 224 602 238 593 238 574 c 0
 238 545 225 338 225 280 c 0
 225 165 280 60 417 60 c 0
 527 60 558 140 560 202 c 0xb8
 561 230 570 455 570 483 c 0
 570 512 546 519 502 519 c 2
 459 519 l 2
 436 519 424 523 424 568 c 0
 424 588 451 593 465 593 c 2
 667 595 l 2
 691 595 691 588 691 578 c 0xb4
 677 225 675 225 675 136 c 0
 675 113 675 103 717 103 c 2
 746 103 l 2
 782 103 786 100 786 90 c 2
 786 53 l 2
 786 43 782 43 672 8 c 0x78
 657 3 608 -16 587 -16 c 0
 576 -16 568 -14 568 -1 c 0
 568 55 570 60 570 66 c 2
 570 85 l 1
 556 78 525 -22 378 -22 c 0
 292 -22 106 13 106 218 c 0
 106 262 104 477 104 499 c 0
 104 515 96 517 84 517 c 2
 45 517 l 2
 31 517 13 529 13 543 c 2xb4
EndSplineSet
EndChar

StartChar: v.sc
Encoding: 65598 -1 118
Width: 841
VWidth: 0
HStem: -17 153<436.669 502.598> 524 73<25.3905 125.453 256.026 385.964 724.658 816.555>
VStem: 24 232<478 585> 623 194<449 572>
LayerCount: 3
Fore
SplineSet
24 574 m 0
 24 596 55 597 74 597 c 0
 94 597 105 595 195 595 c 0
 265 595 325 598 338 598 c 0
 362 598 386 591 386 562 c 0
 386 538 374 529 338 529 c 0
 292 529 256 521 256 491 c 0
 256 465 451 136 473 136 c 0
 487 136 623 396 623 502 c 0
 623 561 517 506 517 572 c 0
 517 591 547 598 571 598 c 0
 615 598 648 593 710 593 c 0
 734 593 768 597 786 597 c 0
 809 597 817 577 817 567 c 0
 817 524 778 526 749 516 c 0
 712 504 733 448 555 112 c 0
 533 71 493 -17 456 -17 c 0
 427 -17 400 21 361 78 c 0
 141 393 153 498 84 524 c 0
 48 539 24 533 24 574 c 0
EndSplineSet
EndChar

StartChar: w.sc
Encoding: 65599 -1 119
Width: 1285
VWidth: 0
HStem: -17 146<438.69 509.675 888.259 942.565> 528 69<27.4399 139.716 276.01 385.93 709.288 861.605 966.259 1077.98 1168.46 1256.89>
VStem: 1078 179<447 571>
LayerCount: 3
Fore
SplineSet
27 571 m 0
 27 593 46 599 65 599 c 0
 85 599 120 594 211 594 c 0
 281 594 325 597 338 597 c 0
 362 597 386 590 386 561 c 0
 386 537 375 528 339 528 c 0
 325 528 317 529 311 529 c 0
 290 529 276 519 276 505 c 0
 276 479 449 129 472 129 c 0
 486 129 580 271 622 395 c 1
 605 429 570 492 560 509 c 0
 527 562 434 510 434 565 c 0
 434 577 442 594 473 594 c 0
 485 594 622 587 668 587 c 0
 714 587 746 591 808 591 c 0
 832 591 862 581 862 559 c 0
 862 531 840 521 812 521 c 2
 764 521 l 2
 734 521 709 511 709 490 c 0
 709 468 742 418 768 375 c 0
 907 144 902 143 914 143 c 0
 941 143 1078 401 1078 493 c 0
 1078 515 1057 519 1039 522 c 0
 1006 528 966 520 966 567 c 0
 966 589 996 594 1020 594 c 0
 1064 594 1088 589 1150 589 c 0
 1174 589 1208 593 1226 593 c 0
 1249 593 1257 576 1257 566 c 0
 1257 523 1218 525 1189 515 c 0
 1154 504 1194 497 991 112 c 0
 969 71 935 -15 901 -15 c 0
 872 -15 829 41 757 167 c 2
 668 325 l 1
 586 168 518 -17 456 -17 c 0
 437 -17 400 21 361 78 c 0
 319 139 301 169 179 419 c 0
 140 500 128 522 100 523 c 0
 51 525 27 523 27 571 c 0
EndSplineSet
EndChar

StartChar: x.sc
Encoding: 65600 -1 120
Width: 783
VWidth: 0
HStem: -4 66<18.016 146.602 639.897 753.948> 509 68<23.5624 161.485 575.912 732.292>
LayerCount: 3
Fore
SplineSet
18 29 m 0
 18 55 40 62 57 62 c 2
 86 62 l 2
 115 62 117 63 135 81 c 0
 165 110 324 298 324 298 c 1
 156 488 147 498 101 509 c 0
 54 522 23 508 23 551 c 0
 23 564 39 577 62 577 c 0
 73 577 136 575 211 575 c 0
 281 575 298 578 311 578 c 0
 335 578 360 570 360 551 c 0
 360 514 297 542 297 502 c 0
 297 486 395 373 395 373 c 1
 395 373 498 486 498 506 c 0
 498 535 437 518 437 551 c 0
 437 570 458 577 482 577 c 0
 492 577 534 575 572 575 c 0
 596 575 672 580 686 580 c 0
 728 580 733 560 733 550 c 0
 733 498 671 528 622 506 c 0
 601 498 579 481 558 457 c 2
 437 322 l 1
 633 98 648 83 662 74 c 0
 690 52 754 81 754 31 c 0
 754 2 736 -4 714 -4 c 0
 686 -4 672 -1 574 -1 c 0
 546 -1 455 -4 434 -4 c 0
 413 -4 394 6 394 21 c 0
 394 77 494 39 494 69 c 0
 494 93 365 245 365 245 c 1
 365 245 228 98 228 72 c 0
 228 34 301 66 301 26 c 0
 301 15 296 -4 262 -4 c 0
 221 -4 242 -1 58 -1 c 0
 37 -1 18 7 18 29 c 0
EndSplineSet
EndChar

StartChar: y.sc
Encoding: 65601 -1 121
Width: 824
VWidth: 0
HStem: 523 66<299 371.971 487.085 552 707.28 803.616>
VStem: 594 211<445.5 574.5>
LayerCount: 3
Fore
SplineSet
37 561 m 0
 37 567 41 587 81 587 c 0
 92 587 111 581 186 581 c 0
 256 581 312 589 338 589 c 0
 362 589 372 578 372 557 c 0
 372 532 350 528 328 523 c 2
 299 517 l 2
 284 514 272 509 272 496 c 0
 272 464 435 148 450 148 c 0
 461 148 594 412 594 479 c 0
 594 510 569 516 552 518 c 2
 532 521 l 2
 508 524 487 529 487 554 c 0
 487 575 500 585 524 585 c 0
 534 585 571 581 633 581 c 0
 657 581 759 587 777 587 c 0
 791 587 805 582 805 567 c 0
 805 538 782 527 758 518 c 0
 710 502 716 518 643 378 c 1
 525 148 386 -124 286 -216 c 0
 252 -247 219 -262 186 -262 c 0
 141 -262 122 -244 122 -210 c 0
 122 -185 153 -167 190 -151 c 0
 233 -132 244 -136 292 -88 c 0
 334 -45 375 13 375 18 c 0
 375 21 256 291 122 506 c 0
 96 546 37 523 37 561 c 0
EndSplineSet
EndChar

StartChar: z.sc
Encoding: 65602 -1 122
Width: 571
VWidth: 0
HStem: -1 109<188.021 437.773> 466 111<170.148 358.99>
VStem: 100 73<577 642.412> 438 69<-121.964 -9.05761> 484 67<121.035 222.94>
LayerCount: 3
Fore
SplineSet
26 23 m 0xf0
 26 38 37 54 38 56 c 2
 325 408 l 2
 348 437 359 449 359 457 c 0
 359 464 346 466 309 466 c 2
 208 466 l 2
 114 466 152 393 109 393 c 0
 91 393 84 407 84 426 c 0
 84 456 100 507 100 557 c 2
 100 574 l 2
 100 591 104 643 143 643 c 0
 167 643 173 613 173 596 c 0
 173 586 176 577 201 577 c 2
 471 577 l 2
 509 577 511 576 511 557 c 2
 511 554 l 2
 511 530 439 476 373 387 c 0
 253 215 188 146 188 128 c 0
 188 112 216 108 403 108 c 0
 446 108 462 108 484 189 c 0
 490 209 503 224 527 224 c 0
 535 224 551 219 551 193 c 0xe8
 551 152 517 36 507 -45 c 0
 504 -73 508 -122 474 -122 c 0
 452 -122 438 -110 438 -93 c 2
 438 -41 l 2
 438 -21 433 -1 341 -1 c 2
 52 -1 l 2
 27 -1 26 10 26 23 c 0xf0
EndSplineSet
EndChar

StartChar: A.title
Encoding: 65603 -1 123
Width: 680
VWidth: 0
Flags: HW
HStem: -19 64<203.577 373.219> -10 93<529.466 642.857> 547 69<200.867 374.851>
VStem: 56 125<58.1469 236.744> 408 117<84.1994 286 325.133 521.889>
LayerCount: 3
Fore
SplineSet
56 117 m 0xb8
 56 249 158 285 239 302 c 0
 375 331 408 320 408 365 c 2
 408 404 l 2
 408 479 383 547 284 547 c 0
 169 547 194 438 112 438 c 0
 79 438 57 465 57 495 c 0
 57 574 201 616 304 616 c 0
 438 616 525 542 525 439 c 2
 525 162 l 2
 525 95 561 83 574 83 c 0
 635 83 644 129 657 129 c 0
 668 129 675 123 675 110 c 0
 675 43 610 -10 534 -10 c 0x78
 447 -10 427 65 427 65 c 1
 425 63 387 -19 242 -19 c 0
 151 -19 56 2 56 117 c 0xb8
181 159 m 0
 181 94 202 45 286 45 c 0xb8
 349 45 408 81 408 149 c 2
 408 286 l 1
 232 259 181 259 181 159 c 0
EndSplineSet
AlternateSubs2: "'aalt' Access All Alternates in Latin lookup 0 subtable" A.open
Substitution2: "'ss01' Style Set 1 in Latin lookup 1 subtable" A.open
EndChar

StartChar: B.title
Encoding: 65604 -1 124
Width: 942
VWidth: 0
Flags: HW
HStem: -9 72<19.1879 174.677 338.827 650.406> 502 52<328.375 598.25> 892 83<22.0776 185.625 328 601.844>
VStem: 190 138<76.7781 501.996 554 888.003> 689 158<630.758 827.372> 768 141<162.009 396.806>
LayerCount: 3
Fore
SplineSet
19 33 m 0xf4
 19 43 29 71 59 71 c 0
 75 71 100 73 116 73 c 0
 159 73 178 92 180 117 c 0
 190 302 190 433 190 580 c 0
 190 675 188 700 188 819 c 0
 188 871 180 891 108 891 c 2
 74 891 l 2
 48 891 22 902 22 932 c 0
 22 940 28 975 70 975 c 0
 176 975 234 973 312 973 c 0
 370 973 428 975 500 975 c 0
 767 975 847 833 847 757 c 0xf8
 847 605 688 541 688 541 c 1
 688 541 909 490 909 294 c 0
 909 -5 540 -9 514 -9 c 0
 461 -9 299 4 234 4 c 0
 180 4 112 -9 66 -9 c 0
 24 -9 19 9 19 33 c 0xf4
323 198 m 2
 323 88 330 63 485 63 c 0
 711 63 768 202 768 281 c 0xf4
 768 429 608 480 549 490 c 0
 508 497 449 502 363 502 c 0
 324 502 323 497 323 455 c 2
 323 198 l 2
328 574 m 2
 328 560 344 554 361 554 c 2
 410 554 l 2
 540 554 689 558 689 722 c 0xf8
 689 862 538 892 373 892 c 0
 334 892 328 882 328 862 c 2
 328 574 l 2
EndSplineSet
AlternateSubs2: "'aalt' Access All Alternates in Latin lookup 0 subtable" B.open
Substitution2: "'ss01' Style Set 1 in Latin lookup 1 subtable" B.open
EndChar

StartChar: C.title
Encoding: 65605 -1 125
Width: 668
VWidth: 0
Flags: HW
HStem: -17 105<248.324 529.142> 525 90<204.705 448.573>
VStem: 32 119<189.511 448.257>
LayerCount: 3
Fore
SplineSet
32 284 m 0
 32 480 199 615 367 615 c 0
 494 615 598 560 598 504 c 0
 598 470 565 443 532 443 c 0
 474 443 431 525 312 525 c 0
 240 525 151 479 151 328 c 0
 151 229 222 88 389 88 c 0
 556 88 583 169 625 169 c 0
 638 169 644 159 644 148 c 0
 644 86 506 -17 348 -17 c 0
 174 -17 32 105 32 284 c 0
EndSplineSet
AlternateSubs2: "'aalt' Access All Alternates in Latin lookup 0 subtable" C.open
Substitution2: "'ss01' Style Set 1 in Latin lookup 1 subtable" C.open
EndChar

StartChar: D.title
Encoding: 65606 -1 126
Width: 790
VWidth: 0
Flags: HW
HStem: -9 98<260.335 508.753> 544 57<250.992 526.97>
VStem: 32 118<194.248 454.179> 562 110<109.895 511.248> 566 122<574.191 855.041>
LayerCount: 3
Fore
SplineSet
32 289 m 0xf0
 32 452 139 601 385 601 c 0
 494 601 566 570 566 570 c 1
 563 841 l 2
 563 859 444 853 444 889 c 0
 444 909 489 921 569 949 c 0
 621 967 641 983 665 983 c 0
 689 983 695 967 695 942 c 0
 695 918 689 868 688 841 c 0xe8
 684 662 672 455 672 153 c 0
 672 114 673 108 691 108 c 2
 731 108 l 2
 745 108 766 108 766 89 c 0
 766 59 687 52 605 -8 c 0
 592 -18 585 -23 577 -23 c 0
 568 -23 560 -18 560 -0 c 2
 560 97 l 1
 538 77 517 -9 365 -9 c 0
 208 -9 32 90 32 289 c 0xf0
150 329 m 0
 150 171 288 89 414 89 c 0
 537 89 561 131 562 243 c 2xf0
 564 472 l 2
 564 518 469 544 377 544 c 0
 220 544 150 452 150 329 c 0
EndSplineSet
AlternateSubs2: "'aalt' Access All Alternates in Latin lookup 0 subtable" D.open
Substitution2: "'ss01' Style Set 1 in Latin lookup 1 subtable" D.open
EndChar

StartChar: E.title
Encoding: 65607 -1 127
Width: 674
VWidth: 0
Flags: HW
HStem: -22 98<238.18 523.189> 535 85<192.545 418.535>
VStem: 32 113<175.18 278.394 327 466.073> 472 161<416.427 486.827>
LayerCount: 3
Fore
SplineSet
32 293 m 0
 32 500 188 620 339 620 c 0
 497 620 633 491 633 442 c 0
 633 420 557 400 543 396 c 2
 149 274 l 1
 151 258 179 76 386 76 c 0
 532 76 586 162 622 162 c 0
 635 162 642 151 642 138 c 0
 642 90 502 -22 361 -22 c 0
 205 -22 32 54 32 293 c 0
145 349 m 0
 145 335 146 327 146 327 c 1
 433 418 l 2
 455 425 472 429 472 441 c 0
 472 459 383 535 291 535 c 0
 174 535 145 428 145 349 c 0
EndSplineSet
AlternateSubs2: "'aalt' Access All Alternates in Latin lookup 0 subtable" E.open
Substitution2: "'ss01' Style Set 1 in Latin lookup 1 subtable" E.open
EndChar

StartChar: F.title
Encoding: 65608 -1 128
Width: 489
VWidth: 0
Flags: W
HStem: -5 74<30.2075 141 270.1 385.843> 503 83<26.0782 146 267 456.52> 913 94<344.623 581.306>
VStem: 146 121<72.0212 503 586 795.137>
LayerCount: 3
Fore
SplineSet
26 541 m 0
 26 571 38 586 53 586 c 2
 149 586 l 1
 149 902 366 1007 510 1007 c 0
 583 1007 639 974 639 936 c 0
 639 908 611 864 565 864 c 0
 504 864 473 913 419 913 c 0
 397 913 375 910 359 898 c 0
 295 850 263 745 263 626 c 2
 263 586 l 1
 441 586 l 2
 451 586 457 581 457 556 c 0
 457 525 449 503 431 503 c 2
 267 503 l 1
 267 146 l 2
 267 79 282 73 308 72 c 0
 333 71 386 76 386 36 c 0
 386 5 362 -4 328 -4 c 0
 319 -4 235 0 204 -0 c 0
 180 0 78 -5 70 -5 c 0
 48 -5 30 9 30 28 c 0
 30 61 55 69 81 69 c 2
 113 69 l 2
 139 69 140 79 141 102 c 0
 144 228 146 105 146 503 c 1
 42 504 l 2
 32 504 26 511 26 541 c 0
EndSplineSet
AlternateSubs2: "'aalt' Access All Alternates in Latin lookup 0 subtable" F.open
Substitution2: "'ss01' Style Set 1 in Latin lookup 1 subtable" F.open
EndChar

StartChar: G.title
Encoding: 65609 -1 129
Width: 720
VWidth: 0
Flags: HW
HStem: -346 66<217.921 552.216> 154 71<230.75 417.672> 503 142<566.878 667.077> 556 59<218.949 398.541>
VStem: 38 90<-225.751 -80.156> 47 118<280.436 512.168> 53 90<45.0125 143.636> 461 125<264.209 505.436> 597 93<-246.189 -95.3458>
LayerCount: 3
Fore
SplineSet
38 -171 m 0xe980
 38 -72 158 -39 158 -39 c 1
 158 -39 53 0 53 63 c 0xe380
 53 133 167 195 167 195 c 1
 167 195 47 256 47 388 c 0
 47 484 133 615 311 615 c 0xd580
 440 615 448 571 514 571 c 0
 579 571 566 645 616 645 c 0
 650 645 673 610 673 580 c 0
 673 519 627 503 600 503 c 0
 577 503 536 512 534 513 c 1
 534 513 586 468 586 391 c 0
 586 254 450 154 323 154 c 0
 270 154 240 167 219 167 c 0
 204 167 143 120 143 90 c 0xe380
 143 49 219 22 338 22 c 0
 398 22 439 26 474 26 c 0
 584 26 690 -27 690 -149 c 0
 690 -226 642 -346 368 -346 c 0
 78 -346 38 -236 38 -171 c 0xe980
128 -154 m 0xc980
 128 -238 271 -280 398 -280 c 0
 596 -280 597 -194 597 -168 c 0
 597 -40 403 -87 256 -65 c 0
 222 -60 187 -50 187 -50 c 1
 187 -50 128 -68 128 -154 c 0xc980
165 421 m 0xd580
 165 250 284 225 334 225 c 0
 384 225 461 261 461 368 c 0
 461 466 417 556 309 556 c 0
 223 556 165 499 165 421 c 0xd580
EndSplineSet
AlternateSubs2: "'aalt' Access All Alternates in Latin lookup 0 subtable" G.open
Substitution2: "'ss01' Style Set 1 in Latin lookup 1 subtable" G.open
EndChar

StartChar: H.title
Encoding: 65610 -1 130
Width: 870
VWidth: 0
Flags: HW
HStem: -2 65<27.2195 149.374 278.166 402.879 483.267 610.455 735.421 846.652> 509 94<330.255 550.053>
VStem: 159 116<64.8335 478.551 485 856.152> 617 114<64.2549 436.23>
LayerCount: 3
Fore
SplineSet
27 25 m 0
 27 60 46 63 71 63 c 0
 156 63 159 65 159 213 c 0
 159 483 163 246 163 758 c 0
 163 793 162 823 162 849 c 0
 162 869 45 851 45 902 c 0
 45 933 71 936 154 968 c 0
 185 980 220 994 246 994 c 0
 279 994 283 977 283 961 c 0
 283 936 282 882 268 485 c 1
 303 533 337 603 480 603 c 0
 539 603 686 576 722 397 c 0
 730 355 729 254 731 196 c 0
 735 69 724 65 802 62 c 0
 834 60 847 49 847 24 c 0
 847 -10 828 -12 812 -12 c 0
 803 -12 734 1 656 1 c 0
 586 1 540 -5 524 -5 c 0
 502 -5 483 1 483 26 c 0
 483 64 524 59 572 64 c 0
 610 67 617 76 617 219 c 0
 617 398 584 451 514 489 c 0
 488 504 458 509 429 509 c 0
 278 509 275 416 275 292 c 2
 275 252 l 2
 275 197 276 168 276 141 c 0
 276 77 278 64 329 61 c 0
 361 59 403 61 403 28 c 0
 403 -6 387 -8 371 -8 c 0
 341 -8 291 4 213 4 c 0
 131 4 70 -2 56 -2 c 0
 45 -2 27 -1 27 25 c 0
EndSplineSet
AlternateSubs2: "'aalt' Access All Alternates in Latin lookup 0 subtable" H.open
Substitution2: "'ss01' Style Set 1 in Latin lookup 1 subtable" H.open
EndChar

StartChar: I.title
Encoding: 65611 -1 131
Width: 421
VWidth: 0
Flags: HW
HStem: -8 60<25.156 145.541 267.995 388.771> 763 142<205.68 333.786>
VStem: 158 109<54.5469 462.893> 201 138<767.957 900.475>
LayerCount: 3
Fore
SplineSet
25 18 m 0xd0
 25 52 49 52 76 52 c 0
 139 52 147 63 151 116 c 0
 155 174 158 282 158 303 c 0
 158 338 155 414 153 437 c 0
 151 473 35 463 35 498 c 0
 35 513 49 521 77 531 c 0
 255 596 239 597 255 597 c 0
 269 597 274 589 274 578 c 0
 274 542 267 513 267 220 c 0xe0
 267 176 266 144 266 121 c 0
 266 35 279 58 351 50 c 0
 369 48 389 47 389 18 c 0
 389 6 373 -8 339 -8 c 0
 335 -8 290 -1 201 -1 c 0
 128 -1 80 -8 53 -8 c 0
 32 -8 25 1 25 18 c 0xd0
201 837 m 0xd0
 201 871 229 905 271 905 c 0
 312 905 339 871 339 837 c 0
 339 778 292 763 270 763 c 0
 260 763 201 767 201 837 c 0xd0
EndSplineSet
AlternateSubs2: "'aalt' Access All Alternates in Latin lookup 0 subtable" I.open
Substitution2: "'ss01' Style Set 1 in Latin lookup 1 subtable" I.open
EndChar

StartChar: J.title
Encoding: 65612 -1 132
Width: 501
VWidth: 0
Flags: HW
HStem: -297 118<51.2279 206.98> 758 142<267.802 400.828>
VStem: 241 120<-139.963 587> 263 144<764.206 894.92>
LayerCount: 3
Fore
SplineSet
11 -239 m 0xe0
 11 -195 70 -160 87 -160 c 0
 124 -160 138 -179 172 -179 c 0
 222 -179 240 -112 240 -2 c 0
 240 73 241 133 241 487 c 0
 241 501 133 505 133 526 c 0
 133 554 157 552 237 583 c 0
 287 602 322 626 340 626 c 0
 354 626 361 612 361 587 c 0
 361 237 356 107 356 -50 c 0
 356 -81 324 -138 294 -168 c 0
 177 -284 165 -297 97 -297 c 0
 50 -297 11 -268 11 -239 c 0xe0
263 828 m 0xd0
 263 876 299 900 336 900 c 0
 371 900 407 880 407 832 c 0
 407 789 371 758 336 758 c 0
 288 758 263 791 263 828 c 0xd0
EndSplineSet
AlternateSubs2: "'aalt' Access All Alternates in Latin lookup 0 subtable" J.open
Substitution2: "'ss01' Style Set 1 in Latin lookup 1 subtable" J.open
EndChar

StartChar: K.title
Encoding: 65613 -1 133
Width: 749
VWidth: 0
Flags: W
HStem: -4 57<40.0635 118.318 240.651 352.986 600.914 707.988> 516 64<525.994 671.993>
VStem: 121 110<58.5374 231 302 892.706>
LayerCount: 3
Fore
SplineSet
39 919 m 0
 39 934 66 941 75 943 c 2
 75 943 194 984 213 984 c 0
 231 984 235 969 235 955 c 2
 230 302 l 1
 345 408 435 479 435 506 c 0
 435 543 363 528 363 560 c 0
 363 566 366 580 406 580 c 0
 417 580 439 577 514 577 c 0
 584 577 619 580 632 580 c 0
 656 580 673 578 673 556 c 0
 673 525 645 531 587 516 c 1
 548 507 481 452 430 407 c 2
 357 342 l 1
 514 173 l 1
 629 30 652 59 680 53 c 0
 692 51 708 42 708 24 c 0
 708 12 696 -4 662 -4 c 0
 637 -4 600 -1 538 -1 c 0
 527 -1 447 -4 424 -4 c 0
 403 -4 382 3 382 18 c 0
 382 61 458 31 458 70 c 0
 458 107 314 256 290 283 c 1
 231 231 l 1
 234 63 223 61 316 54 c 0
 334 52 353 42 353 24 c 0
 353 12 341 -4 307 -4 c 0
 257 -4 229 -1 183 -1 c 0
 156 -1 112 -4 82 -4 c 0
 61 -4 40 5 40 22 c 0
 40 51 62 50 76 53 c 0
 121 63 121 71 121 129 c 2
 125 852 l 2
 125 886 39 897 39 919 c 0
EndSplineSet
AlternateSubs2: "'aalt' Access All Alternates in Latin lookup 0 subtable" K.open
Substitution2: "'ss01' Style Set 1 in Latin lookup 1 subtable" K.open
EndChar

StartChar: L.title
Encoding: 65614 -1 134
Width: 402
VWidth: 0
Flags: W
HStem: -8 62<31.3587 138.966 267.425 380.991>
VStem: 141 122<59.4629 599.391>
LayerCount: 3
Fore
SplineSet
30 13 m 0
 30 59 84 53 113 60 c 1
 134 64 141 71 141 115 c 2
 147 823 l 1
 56 843 44 840 44 867 c 0
 44 901 68 906 136 943 c 0
 181 967 203 988 242 988 c 0
 262 988 279 979 279 957 c 0
 279 862 263 958 263 140 c 0
 263 55 273 66 342 54 c 1
 369 48 381 39 381 24 c 0
 381 12 381 -8 347 -8 c 0
 310 -8 250 -1 216 -1 c 0
 162 -1 95 -12 72 -12 c 0
 51 -12 30 -4 30 13 c 0
EndSplineSet
AlternateSubs2: "'aalt' Access All Alternates in Latin lookup 0 subtable" L.open
Substitution2: "'ss01' Style Set 1 in Latin lookup 1 subtable" L.open
EndChar

StartChar: M.title
Encoding: 65615 -1 135
Width: 1149
VWidth: 0
Flags: HW
HStem: -2 60<55.0153 145.67 264.406 377.675 412.023 527.507 653.975 773.953 1054.04 1149.93> 518 90<319.538 499.069 689.579 882.252>
VStem: 148 114<63.0932 492.208> 536 114<63.5492 483.481> 931 119<65.078 467.743>
LayerCount: 3
Fore
SplineSet
55 27 m 0
 55 56 76 61 90 62 c 0
 146 65 147 64 148 131 c 2
 151 451 l 2
 151 478 140 478 114 488 c 2
 75 503 l 2
 62 508 57 515 57 523 c 0
 57 553 93 556 148 583 c 1
 187 601 224 623 241 623 c 0
 256 623 262 610 262 602 c 2
 262 502 l 1
 274 513 332 608 433 608 c 0
 574 608 629 498 629 498 c 1
 629 498 692 605 803 605 c 0
 1041 605 1051 408 1051 266 c 0
 1051 235 1050 199 1050 161 c 0
 1050 64 1054 69 1099 64 c 0
 1127 61 1150 57 1150 26 c 0
 1150 14 1139 -2 1105 -2 c 0
 1055 -2 1030 1 980 1 c 0
 952 1 878 -2 857 -2 c 0
 836 -2 819 7 819 24 c 0
 819 96 931 20 931 119 c 2
 931 288 l 2
 931 291 931 295 931 299 c 0
 931 365 927 515 777 515 c 0
 685 515 652 460 649 459 c 1
 649 459 650 438 650 426 c 2
 650 120 l 2
 650 68 664 64 746 58 c 0
 773 56 774 37 774 25 c 0
 774 15 773 -2 735 -2 c 0
 725 -2 627 4 593 4 c 0
 580 4 464 -2 438 -2 c 0
 420 -2 412 10 412 27 c 0
 412 59 435 59 457 60 c 2
 482 61 l 1
 535 62 536 61 536 319 c 0
 536 428 521 518 382 518 c 0
 315 518 262 469 262 399 c 2
 262 117 l 2
 262 66 274 65 308 63 c 0
 350 60 378 61 378 33 c 0
 378 14 370 1 336 1 c 0
 291 1 262 4 211 4 c 0
 188 4 131 1 97 1 c 0
 76 1 55 10 55 27 c 0
EndSplineSet
AlternateSubs2: "'aalt' Access All Alternates in Latin lookup 0 subtable" M.open
Substitution2: "'ss01' Style Set 1 in Latin lookup 1 subtable" M.open
EndChar

StartChar: N.title
Encoding: 65616 -1 136
Width: 855
VWidth: 0
Flags: HW
HStem: -7 70<40.325 155.888 272.5 388.992 490.439 613.167 728.819 840.935> 526 98<361.141 573.98>
VStem: 158 114<62.0833 483.641> 616 117<63.0003 484.798>
LayerCount: 3
Fore
SplineSet
40 23 m 0
 40 55 68 59 111 63 c 0
 114 63 116 63 118 63 c 0
 126 63 133 62 138 62 c 0
 162 62 156 83 158 317 c 0
 158 356 156 418 156 474 c 0
 156 501 53 485 53 523 c 0
 53 535 53 539 78 552 c 2
 231 631 l 2
 243 637 255 645 264 645 c 0
 272 645 278 638 278 615 c 2
 276 517 l 1
 312 543 394 624 499 624 c 0
 597 624 681 570 712 498 c 0
 729 460 733 414 733 364 c 2
 733 331 l 2
 733 279 728 203 728 131 c 0
 728 72 730 63 772 63 c 2
 799 63 l 2
 820 63 841 59 841 30 c 0
 841 18 836 -7 801 -7 c 0
 791 -7 712 -1 666 -1 c 0
 653 -1 564 -4 538 -4 c 0
 511 -4 490 4 490 21 c 0
 490 64 528 60 580 63 c 0
 605 64 614 71 614 119 c 0
 614 131 616 119 616 376 c 0
 616 485 531 526 449 526 c 0
 356 526 277 475 276 407 c 0
 275 312 272 120 272 112 c 0
 272 63 286 59 312 59 c 0
 318 59 325 59 332 59 c 0
 341 59 351 59 362 57 c 0
 384 53 389 41 389 28 c 0
 389 12 378 -4 349 -4 c 0
 304 -4 249 -1 208 -1 c 0
 177 -1 91 -7 78 -7 c 0
 44 -7 40 14 40 23 c 0
EndSplineSet
AlternateSubs2: "'aalt' Access All Alternates in Latin lookup 0 subtable" N.open
Substitution2: "'ss01' Style Set 1 in Latin lookup 1 subtable" N.open
EndChar

StartChar: O.title
Encoding: 65617 -1 137
Width: 1235
VWidth: 0
Flags: HW
HStem: -26 74<464.253 835.211> 921 80<390.379 792.582>
VStem: 44 158<316.673 702.422> 1034 158<268.092 689.51>
LayerCount: 3
Fore
SplineSet
44 492 m 0
 44 774 254 1001 600 1001 c 0
 1000 1001 1192 779 1192 478 c 0
 1192 198 997 -26 635 -26 c 0
 235 -26 44 208 44 492 c 0
202 552 m 0
 202 313 326 48 651 48 c 0
 970 48 1034 264 1034 481 c 0
 1034 749 864 921 596 921 c 0
 369 921 202 816 202 552 c 0
EndSplineSet
AlternateSubs2: "'aalt' Access All Alternates in Latin lookup 0 subtable" O.open
Substitution2: "'ss01' Style Set 1 in Latin lookup 1 subtable" O.open
EndChar

StartChar: P.title
Encoding: 65618 -1 138
Width: 777
VWidth: 0
Flags: HW
HStem: -315 57<7.09105 115.176 233.151 379.993> -1 57<237.881 522.254> 495 105<310.551 530.955>
VStem: 116 115<-257.902 12 65.9224 461.806> 627 110<145.134 403.575>
LayerCount: 3
Fore
SplineSet
6 -295 m 0
 6 -261 43 -261 89 -258 c 0
 116 -256 116 -248 116 -187 c 2
 116 -176 l 2
 116 -92 124 435 124 448 c 0
 124 461 123 476 116 477 c 0
 39 489 18 484 18 508 c 0
 18 526 30 527 166 595 c 0
 187 605 205 617 213 617 c 0
 220 617 239 614 239 574 c 0
 239 571 235 502 233 467 c 1
 233 467 307 600 433 600 c 0
 633 600 737 442 737 321 c 0
 737 64 542 -1 392 -1 c 0
 320 -1 229 12 229 12 c 1
 231 -210 l 2
 232 -252 248 -258 280 -258 c 0
 292 -258 306 -257 322 -257 c 0
 370 -257 380 -263 380 -287 c 0
 380 -300 377 -319 340 -319 c 0
 330 -319 253 -315 182 -315 c 0
 145 -315 99 -321 50 -321 c 0
 25 -321 6 -320 6 -295 c 0
231 104 m 2
 231 87 238 56 383 56 c 0
 578 56 627 168 627 263 c 0
 627 426 492 495 396 495 c 0
 343 495 232 484 232 359 c 2
 231 109 l 1
 231 104 l 2
EndSplineSet
AlternateSubs2: "'aalt' Access All Alternates in Latin lookup 0 subtable" P.open
Substitution2: "'ss01' Style Set 1 in Latin lookup 1 subtable" P.open
EndChar

StartChar: Q.title
Encoding: 65619 -1 139
Width: 824
VWidth: 0
Flags: HW
HStem: -315 68<682.236 798.615> -20 94<260.829 520.616> 527 62<252.417 554.094>
VStem: 62 93<178.147 441.704> 574 114<-246.309 81 91.9358 509.388>
LayerCount: 3
Fore
SplineSet
62 273 m 0
 62 452 177 589 419 589 c 0
 481 589 560 572 603 572 c 0
 640 572 665 601 682 601 c 0
 700 601 702 578 702 553 c 0
 702 522 689 453 688 391 c 2
 682 -195 l 2
 682 -246 682 -246 767 -247 c 0
 784 -247 799 -254 799 -273 c 0
 799 -306 785 -315 767 -315 c 0
 739 -315 637 -305 605 -305 c 0
 508 -305 491 -314 473 -314 c 0
 457 -314 446 -309 446 -291 c 0
 446 -261 494 -256 528 -249 c 0
 551 -244 567 -231 567 -179 c 0
 567 -83 574 81 574 81 c 1
 566 75 520 -20 376 -20 c 0
 197 -20 62 93 62 273 c 0
155 322 m 0
 155 171 263 74 425 74 c 0
 564 74 574 127 574 177 c 2
 574 460 l 2
 574 499 529 527 393 527 c 0
 222 527 155 435 155 322 c 0
EndSplineSet
AlternateSubs2: "'aalt' Access All Alternates in Latin lookup 0 subtable" Q.open
Substitution2: "'ss01' Style Set 1 in Latin lookup 1 subtable" Q.open
EndChar

StartChar: R.title
Encoding: 65620 -1 140
Width: 598
VWidth: 0
Flags: W
HStem: -5 62<28.219 135.615 271.577 418.338> 486 130<366.674 539.759>
VStem: 143 122<62.1874 457.051 480 481>
LayerCount: 3
Fore
SplineSet
28 31 m 0
 28 53 58 55 72 57 c 1
 122 60 142 64 143 130 c 2
 147 473 l 2
 147 481 48 483 48 505 c 2
 48 514 l 2
 48 529 48 540 73 550 c 2
 186 596 l 2
 222 611 233 618 247 618 c 0
 261 618 267 611 267 567 c 2
 267 480 l 1
 267 480 366 616 501 616 c 0
 531 616 578 604 578 541 c 0
 578 500 542 466 508 466 c 0
 466 466 453 486 411 486 c 0
 304 486 265 418 265 380 c 2
 265 144 l 2
 265 70 279 66 317 61 c 1
 361 53 419 62 419 19 c 0
 419 3 412 -11 380 -11 c 0
 346 -11 253 4 187 4 c 0
 137 4 82 -5 70 -5 c 0
 47 -5 28 0 28 31 c 0
EndSplineSet
AlternateSubs2: "'aalt' Access All Alternates in Latin lookup 0 subtable" R.open
Substitution2: "'ss01' Style Set 1 in Latin lookup 1 subtable" R.open
EndChar

StartChar: S.title
Encoding: 65621 -1 141
Width: 544
VWidth: 0
Flags: W
HStem: -24 78<179.231 401.927> 519 74<182.767 362.456>
VStem: 58 60<116.486 245.57> 86 88<391.284 512.467> 396 66<396.758 481.695 549 594.791> 426 87<74.5741 211.098>
LayerCount: 3
Fore
SplineSet
50 66 m 0xd4
 50 78 58 123 58 144 c 2
 58 201 l 2
 58 235 72 246 94 246 c 0
 118 246 117 222 118 193 c 0
 119 162 118 125 196 81 c 0
 235 59 279 54 314 54 c 0
 381 54 426 104 426 145 c 0xe4
 426 210 358 224 314 238 c 0
 151 290 86 288 86 421 c 0
 86 503 142 593 271 593 c 0
 343 593 384 562 396 549 c 1
 396 574 l 2
 396 585 399 596 424 596 c 2
 432 596 l 2
 445 596 448 594 451 557 c 2
 460 462 l 2
 461 457 462 448 462 438 c 0xd8
 462 418 458 396 436 396 c 0
 418 396 409 406 404 422 c 0
 386 488 310 519 262 519 c 0
 230 519 174 518 174 441 c 0
 174 332 513 403 513 181 c 0
 513 27 359 -24 290 -24 c 0
 246 -24 206 -21 119 13 c 0
 64 34 50 38 50 66 c 0xd4
EndSplineSet
AlternateSubs2: "'aalt' Access All Alternates in Latin lookup 0 subtable" S.open
Substitution2: "'ss01' Style Set 1 in Latin lookup 1 subtable" S.open
EndChar

StartChar: T.title
Encoding: 65622 -1 142
Width: 597
VWidth: 0
Flags: W
HStem: -19 109<304.806 478.31> 485 100<306 544.994>
VStem: 160 124<104.492 488>
LayerCount: 3
Fore
SplineSet
51 510 m 0
 51 530 80 538 121 570 c 0
 267 685 242 749 291 749 c 0
 311 749 320 733 320 713 c 0
 320 692 306 615 306 591 c 2
 306 575 l 1
 375 578 514 585 521 585 c 0
 542 585 548 567 548 551 c 0
 548 541 542 485 503 485 c 0
 482 485 460 486 291 488 c 1
 289 383 284 271 284 260 c 0
 284 128 316 90 378 90 c 0
 482 90 513 169 547 169 c 0
 555 169 572 163 572 142 c 0
 572 90 465 -19 341 -19 c 0
 230 -19 160 28 160 213 c 0
 160 225 173 488 173 488 c 1
 90 488 l 2
 60 488 51 494 51 510 c 0
EndSplineSet
AlternateSubs2: "'aalt' Access All Alternates in Latin lookup 0 subtable" T.open
Substitution2: "'ss01' Style Set 1 in Latin lookup 1 subtable" T.open
EndChar

StartChar: U.title
Encoding: 65623 -1 143
Width: 812
VWidth: 0
Flags: W
HStem: -22 82<297.632 509.801> 8 95<675 786> 517 78<13 104.108 424.475 569.982>
VStem: 106 119<126.875 517> 560 115<105.172 515.841> 570 121<140.108 518.008>
LayerCount: 3
Fore
SplineSet
13 543 m 2xb4
 13 568 l 2
 13 582 24 595 39 595 c 0
 94 595 206 602 211 602 c 0
 224 602 238 593 238 574 c 0
 238 545 225 338 225 280 c 0
 225 165 280 60 417 60 c 0
 527 60 558 140 560 202 c 0xb8
 561 230 570 455 570 483 c 0
 570 512 546 519 502 519 c 2
 459 519 l 2
 436 519 424 523 424 568 c 0
 424 588 451 593 465 593 c 2
 667 595 l 2
 691 595 691 588 691 578 c 0xb4
 677 225 675 225 675 136 c 0
 675 113 675 103 717 103 c 2
 746 103 l 2
 782 103 786 100 786 90 c 2
 786 53 l 2
 786 43 782 43 672 8 c 0x78
 657 3 608 -16 587 -16 c 0
 576 -16 568 -14 568 -1 c 0
 568 55 570 60 570 66 c 2
 570 85 l 1
 556 78 525 -22 378 -22 c 0
 292 -22 106 13 106 218 c 0
 106 262 104 477 104 499 c 0
 104 515 96 517 84 517 c 2
 45 517 l 2
 31 517 13 529 13 543 c 2xb4
EndSplineSet
AlternateSubs2: "'aalt' Access All Alternates in Latin lookup 0 subtable" U.open
Substitution2: "'ss01' Style Set 1 in Latin lookup 1 subtable" U.open
EndChar

StartChar: V.title
Encoding: 65624 -1 144
Width: 841
VWidth: 0
Flags: W
HStem: -17 153<436.669 502.598> 524 73<25.3905 125.734 256.026 385.964 724.658 816.555>
VStem: 24 232<478 585> 623 194<449 572>
LayerCount: 3
Fore
SplineSet
24 574 m 0
 24 596 55 597 74 597 c 0
 94 597 105 595 195 595 c 0
 265 595 325 598 338 598 c 0
 362 598 386 591 386 562 c 0
 386 538 374 529 338 529 c 0
 292 529 256 521 256 491 c 0
 256 465 451 136 473 136 c 0
 487 136 623 396 623 502 c 0
 623 561 517 506 517 572 c 0
 517 591 547 598 571 598 c 0
 615 598 648 593 710 593 c 0
 734 593 768 597 786 597 c 0
 809 597 817 577 817 567 c 0
 817 524 778 526 749 516 c 0
 712 504 733 448 555 112 c 0
 533 71 493 -17 456 -17 c 0
 427 -17 400 21 361 78 c 0
 143 394 153 498 84 524 c 1
 48 539 24 533 24 574 c 0
EndSplineSet
AlternateSubs2: "'aalt' Access All Alternates in Latin lookup 0 subtable" V.open
Substitution2: "'ss01' Style Set 1 in Latin lookup 1 subtable" V.open
EndChar

StartChar: W.title
Encoding: 65625 -1 145
Width: 1285
VWidth: 0
Flags: HW
HStem: -17 146<438.69 509.675 888.259 942.565> 523 71<27.8626 143.093 276.01 385.926 709.018 861.978 1166.58 1256.51>
VStem: 1078 179<447 571>
LayerCount: 3
Fore
SplineSet
27 571 m 0
 27 593 46 599 65 599 c 0
 85 599 120 594 211 594 c 0
 281 594 325 597 338 597 c 0
 362 597 386 590 386 561 c 0
 386 537 375 528 339 528 c 0
 325 528 317 529 311 529 c 0
 290 529 276 519 276 505 c 0
 276 479 449 129 472 129 c 0
 486 129 580 271 622 395 c 1
 605 429 570 492 560 509 c 0
 527 562 434 510 434 565 c 0
 434 577 442 594 473 594 c 0
 485 594 622 587 668 587 c 0
 714 587 746 591 808 591 c 0
 832 591 862 581 862 559 c 0
 862 531 840 521 812 521 c 2
 764 521 l 2
 734 521 709 511 709 490 c 0
 709 468 742 418 768 375 c 0
 907 144 902 143 914 143 c 0
 941 143 1078 401 1078 493 c 0
 1078 548 966 496 966 567 c 0
 966 589 996 594 1020 594 c 0
 1064 594 1088 589 1150 589 c 0
 1174 589 1208 593 1226 593 c 0
 1249 593 1257 576 1257 566 c 0
 1257 523 1218 525 1189 515 c 0
 1154 504 1194 497 991 112 c 0
 969 71 935 -15 901 -15 c 0
 872 -15 829 41 757 167 c 2
 668 325 l 1
 586 168 518 -17 456 -17 c 0
 437 -17 400 21 361 78 c 0
 319 139 301 169 179 419 c 0
 140 500 128 522 100 523 c 0
 51 525 27 523 27 571 c 0
EndSplineSet
AlternateSubs2: "'aalt' Access All Alternates in Latin lookup 0 subtable" W.open
Substitution2: "'ss01' Style Set 1 in Latin lookup 1 subtable" W.open
EndChar

StartChar: X.title
Encoding: 65626 -1 146
Width: 783
VWidth: 0
Flags: W
HStem: -4 66<18.016 146.602 639.897 753.948> 509 68<23.5624 161.485>
LayerCount: 3
Fore
SplineSet
18 29 m 0
 18 55 40 62 57 62 c 2
 86 62 l 2
 115 62 117 63 135 81 c 0
 165 110 324 298 324 298 c 1
 156 488 147 498 101 509 c 1
 54 522 23 508 23 551 c 0
 23 564 39 577 62 577 c 0
 73 577 136 575 211 575 c 0
 281 575 298 578 311 578 c 0
 335 578 360 570 360 551 c 0
 360 514 297 542 297 502 c 0
 297 486 395 373 395 373 c 1
 395 373 498 486 498 506 c 0
 498 535 437 518 437 551 c 0
 437 570 458 577 482 577 c 0
 492 577 534 575 572 575 c 0
 596 575 672 580 686 580 c 0
 728 580 733 560 733 550 c 0
 733 480 649 561 558 457 c 1
 437 322 l 1
 633 98 648 83 662 74 c 1
 690 52 754 81 754 31 c 0
 754 2 736 -4 714 -4 c 0
 686 -4 672 -1 574 -1 c 0
 546 -1 455 -4 434 -4 c 0
 413 -4 394 6 394 21 c 0
 394 77 494 39 494 69 c 0
 494 93 365 245 365 245 c 1
 365 245 228 98 228 72 c 0
 228 34 301 66 301 26 c 0
 301 15 296 -4 262 -4 c 0
 221 -4 242 -1 58 -1 c 0
 37 -1 18 7 18 29 c 0
EndSplineSet
AlternateSubs2: "'aalt' Access All Alternates in Latin lookup 0 subtable" X.open
Substitution2: "'ss01' Style Set 1 in Latin lookup 1 subtable" X.open
EndChar

StartChar: Y.title
Encoding: 65627 -1 147
Width: 824
VWidth: 0
Flags: HW
HStem: 518 69<299 371.608 701.772 802.594>
VStem: 594 211<445.5 574.5>
LayerCount: 3
Fore
SplineSet
37 561 m 0
 37 567 41 587 81 587 c 0
 92 587 111 581 186 581 c 0
 256 581 312 589 338 589 c 0
 362 589 372 578 372 557 c 0
 372 532 350 528 328 523 c 2
 299 517 l 2
 284 514 272 509 272 496 c 0
 272 464 435 148 450 148 c 0
 461 148 594 412 594 479 c 0
 594 545 487 497 487 554 c 0
 487 575 500 585 524 585 c 0
 534 585 571 581 633 581 c 0
 657 581 759 587 777 587 c 0
 791 587 805 582 805 567 c 0
 805 538 782 527 758 518 c 0
 710 502 716 518 643 378 c 0
 347 -189 277 -262 186 -262 c 0
 141 -262 122 -244 122 -210 c 0
 122 -185 153 -167 190 -151 c 0
 233 -132 244 -136 292 -88 c 0
 334 -45 375 13 375 18 c 0
 375 21 256 291 122 506 c 0
 96 546 37 523 37 561 c 0
EndSplineSet
AlternateSubs2: "'aalt' Access All Alternates in Latin lookup 0 subtable" Y.open
Substitution2: "'ss01' Style Set 1 in Latin lookup 1 subtable" Y.open
EndChar

StartChar: Z.title
Encoding: 65628 -1 148
Width: 571
VWidth: 0
Flags: W
HStem: -1 109<188.021 437.773> 466 111<170.148 358.99>
VStem: 100 73<577 642.412> 438 69<-121.964 -9.05761> 484 67<121.035 222.94>
LayerCount: 3
Fore
SplineSet
26 23 m 0xf0
 26 38 37 54 38 56 c 2
 325 408 l 2
 348 437 359 449 359 457 c 0
 359 464 346 466 309 466 c 2
 208 466 l 2
 114 466 152 393 109 393 c 0
 91 393 84 407 84 426 c 0
 84 456 100 507 100 557 c 2
 100 574 l 2
 100 591 104 643 143 643 c 0
 167 643 173 613 173 596 c 0
 173 586 176 577 201 577 c 2
 471 577 l 2
 509 577 511 576 511 557 c 2
 511 554 l 2
 511 530 439 476 373 387 c 1
 253 215 188 146 188 128 c 0
 188 112 216 108 403 108 c 0
 446 108 462 108 484 189 c 0
 490 209 503 224 527 224 c 0
 535 224 551 219 551 193 c 0xe8
 551 152 517 36 507 -45 c 0
 504 -73 508 -122 474 -122 c 0
 452 -122 438 -110 438 -93 c 2
 438 -41 l 2
 438 -21 433 -1 341 -1 c 2
 52 -1 l 2
 27 -1 26 10 26 23 c 0xf0
EndSplineSet
AlternateSubs2: "'aalt' Access All Alternates in Latin lookup 0 subtable" Z.open
Substitution2: "'ss01' Style Set 1 in Latin lookup 1 subtable" Z.open
EndChar
